<?xml version="1.0" encoding="UTF-8"?>
<!DOCTYPE svg PUBLIC "-//W3C//DTD SVG 1.0//EN" "http://www.w3.org/TR/2001/REC-SVG-20010904/DTD/svg10.dtd">
<!-- Creator: CorelDRAW -->
<svg xmlns="http://www.w3.org/2000/svg" xml:space="preserve" width="3.55372in" height="1.286in" version="1.0" shape-rendering="geometricPrecision" text-rendering="geometricPrecision" image-rendering="optimizeQuality" fill-rule="evenodd" clip-rule="evenodd"
viewBox="0 0 509.38 184.33"
 xmlns:xlink="http://www.w3.org/1999/xlink"
 xmlns:xodm="http://www.corel.com/coreldraw/odm/2003">
 <g id="Layer_x0020_1">
  <metadata id="CorelCorpID_0Corel-Layer"/>
  <g id="_1374237042256">
   <path fill="black" fill-rule="nonzero" d="M18.54 0l18.02 0c5.08,0 9.71,2.08 13.08,5.44l0.03 0.03c3.35,3.37 5.43,7.99 5.43,13.07l0 141.45 -9.95 -12.91 0 -128.54c0,-2.37 -0.96,-4.51 -2.51,-6.06l-0.02 -0.02c-1.55,-1.55 -3.69,-2.51 -6.06,-2.51l-18.02 0c-2.36,0 -4.5,0.97 -6.06,2.53 -1.56,1.56 -2.53,3.7 -2.53,6.06l0 147.25c0,2.37 0.96,4.51 2.51,6.06l0.02 0.02c1.55,1.55 3.69,2.51 6.06,2.51l18.02 0c2.28,0 4.36,-0.89 5.89,-2.35 0.37,-0.35 0.7,-0.73 1.01,-1.13l6.17 8c-0.11,0.11 -0.22,0.22 -0.33,0.32 -3.34,3.16 -7.82,5.11 -12.74,5.11l-18.02 0c-5.08,0 -9.71,-2.08 -13.08,-5.44l-0.03 -0.03c-3.35,-3.37 -5.43,-7.99 -5.43,-13.07l0 -147.25c0,-5.1 2.08,-9.74 5.44,-13.1 3.36,-3.36 8,-5.44 13.1,-5.44z"/>
   <path fill="none" stroke="black" stroke-width="9.95" stroke-linecap="round" stroke-linejoin="round" stroke-miterlimit="22.9256" d="M115.02 4.98l0 160.81c0,7.46 -6.1,13.56 -13.56,13.56l-18.02 0c-7.46,0 -13.56,-6.1 -13.56,-13.56l0 -160.81"/>
   <rect fill="none" stroke="black" stroke-width="9.95" stroke-linecap="round" stroke-linejoin="round" stroke-miterlimit="22.9256" x="394.36" y="4.98" width="45.15" height="174.37" rx="13.56" ry="20.01"/>
   <g>
    <path fill="none" stroke="black" stroke-width="9.95" stroke-linecap="round" stroke-linejoin="round" stroke-miterlimit="22.9256" d="M134.77 179.35l0 -174.37 31.58 0c7.46,0 13.56,6.1 13.56,13.56"/>
    <path fill="none" stroke="black" stroke-width="9.95" stroke-linecap="round" stroke-linejoin="round" stroke-miterlimit="22.9256" d="M179.92 18.54l0 57.15c0,7.46 -6.1,13.56 -13.56,13.56l-31.58 0"/>
    <path fill="none" stroke="black" stroke-width="9.95" stroke-linecap="round" stroke-linejoin="round" stroke-miterlimit="22.9256" d="M166.36 89.26c7.46,0 13.56,6.1 13.56,13.56l0 76.54"/>
   </g>
   <g>
    <path fill="none" stroke="black" stroke-width="9.95" stroke-linecap="round" stroke-linejoin="round" stroke-miterlimit="22.9256" d="M264.57 179.35l0 -174.37 31.58 0c7.46,0 13.56,6.1 13.56,13.56"/>
    <path fill="none" stroke="black" stroke-width="9.95" stroke-linecap="round" stroke-linejoin="round" stroke-miterlimit="22.9256" d="M309.71 18.54l0 45.86m-13.56 24.85l-31.58 0"/>
    <path fill="none" stroke="black" stroke-width="9.95" stroke-linecap="round" stroke-linejoin="round" stroke-miterlimit="22.9256" d="M309.71 114.11l0 51.68c0,7.45 -6.11,13.56 -13.56,13.56l-30.19 0c-0.77,0 -1.39,-0.63 -1.39,-1.39"/>
   </g>
   <g>
    <path fill="none" stroke="black" stroke-width="9.95" stroke-linecap="round" stroke-linejoin="round" stroke-miterlimit="22.9256" d="M329.46 179.35l0 -174.37 31.58 0c7.46,0 13.56,6.1 13.56,13.56"/>
    <path fill="none" stroke="black" stroke-width="9.95" stroke-linecap="round" stroke-linejoin="round" stroke-miterlimit="22.9256" d="M374.61 18.54l0 57.15c0,7.46 -6.1,13.56 -13.56,13.56l-31.58 0"/>
    <path fill="none" stroke="black" stroke-width="9.95" stroke-linecap="round" stroke-linejoin="round" stroke-miterlimit="22.9256" d="M361.05 89.26c7.46,0 13.56,6.1 13.56,13.56l0 76.54"/>
   </g>
   <path fill="none" stroke="black" stroke-width="9.95" stroke-linecap="round" stroke-linejoin="round" stroke-miterlimit="22.9256" d="M244.82 4.98l-8.46 160.81c-0.35,6.7 -7.59,13.66 -14.09,13.56 -6.29,-0.09 -13.73,-5.94 -14.13,-13.56l-8.46 -160.81"/>
   <path fill="none" stroke="black" stroke-width="9.95" stroke-linecap="round" stroke-linejoin="round" stroke-miterlimit="22.9256" d="M504.4 64.55l0 -46.01c0,-7.46 -6.1,-13.56 -13.56,-13.56l-18.02 0c-7.46,0 -13.56,6.11 -13.56,13.56l0 45.86 45.15 49.7 0 51.68c0,7.46 -6.1,13.56 -13.56,13.56l-18.02 0c-7.46,0 -13.56,-6.1 -13.56,-13.56l0 -52.08"/>
   <line fill="none" stroke="black" stroke-width="9.95" stroke-linecap="round" stroke-linejoin="round" stroke-miterlimit="22.9256" x1="29.75" y1="140.12" x2="60" y2= "179.35" />
  </g>
 </g>
</svg>
