<?xml version="1.0" encoding="UTF-8"?>
<!DOCTYPE svg PUBLIC "-//W3C//DTD SVG 1.0//EN" "http://www.w3.org/TR/2001/REC-SVG-20010904/DTD/svg10.dtd">
<!-- Creator: CorelDRAW -->
<svg xmlns="http://www.w3.org/2000/svg" xml:space="preserve" width="2.3517in" height="2.93031in" version="1.0" shape-rendering="geometricPrecision" text-rendering="geometricPrecision" image-rendering="optimizeQuality" fill-rule="evenodd" clip-rule="evenodd"
viewBox="0 0 453.89 565.56"
 xmlns:xlink="http://www.w3.org/1999/xlink"
 xmlns:xodm="http://www.corel.com/coreldraw/odm/2003">
 <g id="Layer_x0020_1">
  <metadata id="CorelCorpID_0Corel-Layer"/>
  <g id="_1375221642528">
   <g>
    <path fill="black" fill-rule="nonzero" d="M16.53 401.3l16.05 0c4.53,0 8.65,1.86 11.65,4.85l0.03 0.03c2.99,3 4.84,7.12 4.84,11.64l0 126.04 -8.87 -11.51 0 -114.53c0,-2.11 -0.86,-4.02 -2.23,-5.4l-0.02 -0.02c-1.38,-1.38 -3.29,-2.23 -5.4,-2.23l-16.05 0c-2.1,0 -4.01,0.86 -5.4,2.25 -1.39,1.39 -2.25,3.3 -2.25,5.4l0 131.2c0,2.11 0.86,4.02 2.23,5.4l0.02 0.02c1.38,1.38 3.29,2.23 5.4,2.23l16.05 0c2.04,0 3.89,-0.8 5.25,-2.09 0.33,-0.31 0.63,-0.65 0.9,-1.01l5.5 7.13c-0.1,0.1 -0.2,0.19 -0.29,0.29 -2.97,2.82 -6.97,4.55 -11.35,4.55l-16.05 0c-4.53,0 -8.65,-1.86 -11.65,-4.85l-0.03 -0.03c-2.99,-3 -4.84,-7.12 -4.84,-11.64l0 -131.2c0,-4.55 1.86,-8.68 4.85,-11.67 2.99,-2.99 7.12,-4.85 11.67,-4.85z"/>
    <g>
     <path fill="black" fill-rule="nonzero" d="M98.06 405.74c0,-2.45 1.99,-4.43 4.43,-4.43 2.45,0 4.43,1.99 4.43,4.43l-8.87 0zm0 143.29l0 -143.29 8.87 0 0 143.29 0 0 -8.87 0zm8.87 0c0,2.45 -1.99,4.43 -4.43,4.43 -2.45,0 -4.43,-1.99 -4.43,-4.43l8.87 0zm-16.52 16.52l0 -8.87 0 0 0.39 -0.01 0.39 -0.03 0.38 -0.05 0.37 -0.07 0.37 -0.09 0.36 -0.1 0.35 -0.12 0.34 -0.14 0.34 -0.15 0.33 -0.17 0.32 -0.19 0.31 -0.2 0.3 -0.22 0.29 -0.23 0.28 -0.24 0.27 -0.26 0.25 -0.27 0.24 -0.28 0.23 -0.29 0.21 -0.3 0.2 -0.31 0.19 -0.32 0.17 -0.33 0.15 -0.34 0.14 -0.34 0.12 -0.35 0.1 -0.36 0.09 -0.37 0.07 -0.37 0.05 -0.38 0.03 -0.39 0.01 -0.39 8.87 0 -0.02 0.85 -0.06 0.83 -0.1 0.83 -0.15 0.81 -0.18 0.8 -0.22 0.79 -0.26 0.77 -0.3 0.75 -0.33 0.73 -0.37 0.71 -0.4 0.69 -0.43 0.67 -0.46 0.65 -0.49 0.62 -0.52 0.6 -0.55 0.57 -0.57 0.55 -0.6 0.52 -0.62 0.49 -0.65 0.46 -0.67 0.43 -0.69 0.4 -0.71 0.37 -0.73 0.33 -0.75 0.3 -0.77 0.26 -0.79 0.22 -0.8 0.18 -0.81 0.15 -0.83 0.1 -0.83 0.06 -0.85 0.02 0 0zm0 0c-2.45,0 -4.43,-1.99 -4.43,-4.43 0,-2.45 1.99,-4.43 4.43,-4.43l0 8.87zm-16.06 -8.87l16.06 0 0 8.87 -16.06 0 0 0 0 -8.87zm0 8.87c-2.45,0 -4.43,-1.99 -4.43,-4.43 0,-2.45 1.99,-4.43 4.43,-4.43l0 8.87zm-16.52 -16.52l8.87 0 0 0 0.01 0.39 0.03 0.39 0.05 0.38 0.07 0.37 0.09 0.37 0.1 0.36 0.12 0.35 0.14 0.34 0.15 0.34 0.17 0.33 0.19 0.32 0.2 0.31 0.21 0.3 0.23 0.29 0.24 0.28 0.26 0.27 0.27 0.25 0.28 0.24 0.29 0.23 0.3 0.21 0.31 0.2 0.32 0.19 0.33 0.17 0.34 0.15 0.34 0.14 0.35 0.12 0.36 0.1 0.37 0.09 0.37 0.07 0.38 0.05 0.39 0.03 0.39 0.01 0 8.87 -0.85 -0.02 -0.83 -0.06 -0.83 -0.1 -0.81 -0.15 -0.8 -0.18 -0.79 -0.22 -0.77 -0.26 -0.75 -0.3 -0.73 -0.33 -0.71 -0.37 -0.69 -0.4 -0.67 -0.43 -0.65 -0.46 -0.62 -0.49 -0.6 -0.52 -0.57 -0.55 -0.55 -0.57 -0.52 -0.6 -0.49 -0.62 -0.46 -0.65 -0.43 -0.67 -0.4 -0.69 -0.37 -0.71 -0.33 -0.73 -0.3 -0.75 -0.26 -0.77 -0.22 -0.79 -0.18 -0.8 -0.15 -0.81 -0.1 -0.83 -0.06 -0.83 -0.02 -0.85 0 0zm0 0c0,-2.45 1.99,-4.43 4.43,-4.43 2.45,0 4.43,1.99 4.43,4.43l-8.87 0zm8.87 -143.29l0 143.29 -8.87 0 0 -143.29 8.87 0zm-8.87 0c0,-2.45 1.99,-4.43 4.43,-4.43 2.45,0 4.43,1.99 4.43,4.43l-8.87 0z"/>
    </g>
    <g>
     <path fill="black" fill-rule="nonzero" d="M379.54 410.19l-16.05 0 0 -8.9 16.05 0 0 0 0 8.9zm0 -8.9c2.45,0 4.43,1.99 4.43,4.45 0,2.46 -1.99,4.45 -4.43,4.45l0 -8.9zm16.52 16.54l-8.87 0 0 0 -0.01 -0.39 -0.03 -0.39 -0.05 -0.38 -0.07 -0.37 -0.09 -0.37 -0.1 -0.36 -0.12 -0.35 -0.14 -0.34 -0.15 -0.34 -0.17 -0.33 -0.18 -0.32 -0.2 -0.31 -0.22 -0.3 -0.23 -0.29 -0.24 -0.28 -0.25 -0.27 -0.27 -0.26 -0.28 -0.24 -0.29 -0.23 -0.3 -0.21 -0.31 -0.2 -0.32 -0.18 -0.33 -0.17 -0.34 -0.15 -0.35 -0.14 -0.35 -0.12 -0.36 -0.1 -0.37 -0.09 -0.37 -0.07 -0.38 -0.05 -0.39 -0.03 -0.39 -0.01 0 -8.9 0.85 0.02 0.83 0.06 0.83 0.1 0.81 0.15 0.8 0.18 0.79 0.22 0.77 0.26 0.75 0.3 0.73 0.33 0.71 0.37 0.69 0.4 0.67 0.43 0.65 0.46 0.62 0.49 0.6 0.52 0.57 0.54 0.55 0.57 0.52 0.6 0.49 0.62 0.46 0.65 0.43 0.67 0.4 0.69 0.37 0.71 0.33 0.73 0.3 0.75 0.26 0.77 0.22 0.79 0.19 0.8 0.15 0.82 0.11 0.83 0.06 0.84 0.02 0.85 0 0zm0 0c0,2.46 -1.99,4.45 -4.43,4.45 -2.45,0 -4.43,-1.99 -4.43,-4.45l8.87 0zm-8.87 131.2l0 -131.2 8.87 0 0 131.2 0 0 -8.87 0zm8.87 0c0,2.46 -1.99,4.45 -4.43,4.45 -2.45,0 -4.43,-1.99 -4.43,-4.45l8.87 0zm-16.52 16.54l0 -8.9 0 0 0.39 -0.01 0.39 -0.03 0.38 -0.05 0.37 -0.07 0.37 -0.09 0.36 -0.1 0.35 -0.12 0.35 -0.14 0.34 -0.15 0.33 -0.17 0.32 -0.18 0.31 -0.2 0.3 -0.21 0.29 -0.23 0.28 -0.24 0.27 -0.26 0.25 -0.27 0.24 -0.28 0.23 -0.29 0.22 -0.3 0.2 -0.31 0.18 -0.32 0.17 -0.33 0.15 -0.34 0.14 -0.34 0.12 -0.35 0.1 -0.36 0.09 -0.37 0.07 -0.37 0.05 -0.38 0.03 -0.39 0.01 -0.39 8.87 0 -0.02 0.85 -0.06 0.84 -0.11 0.83 -0.15 0.82 -0.19 0.8 -0.22 0.79 -0.26 0.77 -0.3 0.75 -0.33 0.73 -0.37 0.71 -0.4 0.69 -0.43 0.67 -0.46 0.65 -0.49 0.62 -0.52 0.6 -0.55 0.57 -0.57 0.54 -0.6 0.52 -0.62 0.49 -0.65 0.46 -0.67 0.43 -0.69 0.4 -0.71 0.37 -0.73 0.33 -0.75 0.3 -0.77 0.26 -0.79 0.22 -0.8 0.18 -0.81 0.15 -0.83 0.1 -0.83 0.06 -0.85 0.02 0 0zm0 0c-2.45,0 -4.43,-1.99 -4.43,-4.45 0,-2.46 1.99,-4.45 4.43,-4.45l0 8.9zm-16.05 -8.9l16.05 0 0 8.9 -16.05 0 0 0 0 -8.9zm0 8.9c-2.45,0 -4.43,-1.99 -4.43,-4.45 0,-2.46 1.99,-4.45 4.43,-4.45l0 8.9zm-16.52 -16.54l8.87 0 0 0 0.01 0.39 0.03 0.39 0.05 0.38 0.07 0.37 0.09 0.37 0.1 0.36 0.12 0.35 0.14 0.34 0.15 0.34 0.17 0.33 0.18 0.32 0.2 0.31 0.22 0.3 0.23 0.29 0.24 0.28 0.25 0.27 0.27 0.26 0.28 0.24 0.29 0.23 0.3 0.21 0.31 0.2 0.32 0.18 0.33 0.17 0.34 0.15 0.35 0.14 0.35 0.12 0.36 0.1 0.37 0.09 0.37 0.07 0.38 0.05 0.39 0.03 0.39 0.01 0 8.9 -0.85 -0.02 -0.83 -0.06 -0.83 -0.1 -0.81 -0.15 -0.8 -0.18 -0.79 -0.22 -0.77 -0.26 -0.75 -0.3 -0.73 -0.33 -0.71 -0.37 -0.69 -0.4 -0.67 -0.43 -0.65 -0.46 -0.62 -0.49 -0.6 -0.52 -0.57 -0.54 -0.55 -0.57 -0.52 -0.6 -0.49 -0.62 -0.46 -0.65 -0.43 -0.67 -0.4 -0.69 -0.37 -0.71 -0.33 -0.73 -0.3 -0.75 -0.26 -0.77 -0.22 -0.79 -0.19 -0.8 -0.15 -0.82 -0.11 -0.83 -0.06 -0.84 -0.02 -0.85 0 0zm0 0c0,-2.46 1.99,-4.45 4.43,-4.45 2.45,0 4.43,1.99 4.43,4.45l-8.87 0zm8.87 -131.2l0 131.2 -8.87 0 0 -131.2 0 0 8.87 0zm-8.87 0c0,-2.46 1.99,-4.45 4.43,-4.45 2.45,0 4.43,1.99 4.43,4.45l-8.87 0zm16.52 -16.54l0 8.9 0 0 -0.39 0.01 -0.39 0.03 -0.38 0.05 -0.37 0.07 -0.37 0.09 -0.36 0.1 -0.35 0.12 -0.35 0.14 -0.34 0.15 -0.33 0.17 -0.32 0.18 -0.31 0.2 -0.3 0.21 -0.29 0.23 -0.28 0.24 -0.27 0.26 -0.25 0.27 -0.24 0.28 -0.23 0.29 -0.22 0.3 -0.2 0.31 -0.18 0.32 -0.17 0.33 -0.15 0.34 -0.14 0.34 -0.12 0.35 -0.1 0.36 -0.09 0.37 -0.07 0.37 -0.05 0.38 -0.03 0.39 -0.01 0.39 -8.87 0 0.02 -0.85 0.06 -0.84 0.11 -0.83 0.15 -0.82 0.19 -0.8 0.22 -0.79 0.26 -0.77 0.3 -0.75 0.33 -0.73 0.37 -0.71 0.4 -0.69 0.43 -0.67 0.46 -0.65 0.49 -0.62 0.52 -0.6 0.55 -0.57 0.57 -0.54 0.6 -0.52 0.62 -0.49 0.65 -0.46 0.67 -0.43 0.69 -0.4 0.71 -0.37 0.73 -0.33 0.75 -0.3 0.77 -0.26 0.79 -0.22 0.8 -0.18 0.81 -0.15 0.83 -0.1 0.83 -0.06 0.85 -0.02 0 0zm0 0c2.45,0 4.43,1.99 4.43,4.45 0,2.46 -1.99,4.45 -4.43,4.45l0 -8.9z"/>
    </g>
    <g>
     <g>
      <path fill="black" fill-rule="nonzero" d="M124.53 561.11c0,2.45 -1.99,4.43 -4.43,4.43 -2.45,0 -4.43,-1.99 -4.43,-4.43l8.87 0zm0 -155.38l0 155.38 -8.87 0 0 -155.38 4.43 -4.43 4.43 4.43zm-8.87 0c0,-2.45 1.99,-4.43 4.43,-4.43 2.45,0 4.43,1.99 4.43,4.43l-8.87 0zm32.58 4.43l-28.14 0 0 -8.87 28.14 0 0 0 0 8.87zm0 -8.87c2.45,0 4.43,1.99 4.43,4.43 0,2.45 -1.99,4.43 -4.43,4.43l0 -8.87zm16.52 16.52l-8.87 0 -0.01 -0.39 -0.03 -0.39 -0.05 -0.38 -0.07 -0.37 -0.09 -0.37 -0.1 -0.36 -0.12 -0.35 -0.14 -0.34 -0.15 -0.34 -0.17 -0.33 -0.18 -0.32 -0.2 -0.31 -0.22 -0.3 -0.23 -0.29 -0.24 -0.28 -0.26 -0.27 -0.27 -0.26 -0.28 -0.24 -0.29 -0.23 -0.3 -0.22 -0.31 -0.2 -0.32 -0.18 -0.33 -0.17 -0.34 -0.15 -0.34 -0.14 -0.35 -0.12 -0.36 -0.1 -0.37 -0.09 -0.37 -0.07 -0.38 -0.05 -0.39 -0.03 -0.39 -0.01 0 -8.87 0.85 0.02 0.83 0.06 0.83 0.1 0.81 0.15 0.8 0.18 0.79 0.22 0.77 0.26 0.75 0.3 0.73 0.33 0.71 0.36 0.69 0.4 0.67 0.43 0.65 0.46 0.62 0.49 0.6 0.52 0.57 0.55 0.55 0.57 0.52 0.6 0.49 0.62 0.46 0.65 0.43 0.67 0.4 0.69 0.36 0.71 0.33 0.73 0.3 0.75 0.26 0.77 0.22 0.79 0.18 0.8 0.15 0.81 0.1 0.83 0.06 0.83 0.02 0.85zm0 0c0,2.45 -1.99,4.43 -4.43,4.43 -2.45,0 -4.43,-1.99 -4.43,-4.43l8.87 0z"/>
     </g>
     <g>
      <path fill="black" fill-rule="nonzero" d="M155.89 417.83c0,-2.45 1.99,-4.43 4.43,-4.43 2.45,0 4.43,1.99 4.43,4.43l-8.87 0zm0 50.92l0 -50.92 8.87 0 0 50.92 0 0 -8.87 0zm8.87 0c0,2.45 -1.99,4.43 -4.43,4.43 -2.45,0 -4.43,-1.99 -4.43,-4.43l8.87 0zm-16.52 16.52l0 -8.87 0 0 0.39 -0.01 0.39 -0.03 0.38 -0.05 0.37 -0.07 0.37 -0.09 0.36 -0.1 0.35 -0.12 0.34 -0.14 0.34 -0.15 0.33 -0.17 0.32 -0.18 0.31 -0.2 0.3 -0.22 0.29 -0.23 0.28 -0.24 0.27 -0.25 0.26 -0.27 0.24 -0.28 0.23 -0.29 0.22 -0.3 0.2 -0.31 0.18 -0.32 0.17 -0.33 0.15 -0.34 0.14 -0.34 0.12 -0.35 0.1 -0.36 0.09 -0.37 0.07 -0.37 0.05 -0.38 0.03 -0.39 0.01 -0.39 8.87 0 -0.02 0.85 -0.06 0.83 -0.1 0.83 -0.15 0.81 -0.18 0.8 -0.22 0.79 -0.26 0.77 -0.3 0.75 -0.33 0.73 -0.36 0.71 -0.4 0.69 -0.43 0.67 -0.46 0.65 -0.49 0.62 -0.52 0.6 -0.55 0.57 -0.57 0.55 -0.6 0.52 -0.62 0.49 -0.65 0.46 -0.67 0.43 -0.69 0.4 -0.71 0.36 -0.73 0.33 -0.75 0.3 -0.77 0.26 -0.79 0.22 -0.8 0.18 -0.81 0.15 -0.83 0.1 -0.83 0.06 -0.85 0.02 0 0zm0 0c-2.45,0 -4.43,-1.99 -4.43,-4.43 0,-2.45 1.99,-4.43 4.43,-4.43l0 8.87zm-28.14 -8.87l28.14 0 0 8.87 -28.14 0 0 -8.87zm0 8.87c-2.45,0 -4.43,-1.99 -4.43,-4.43 0,-2.45 1.99,-4.43 4.43,-4.43l0 8.87z"/>
     </g>
     <g>
      <path fill="black" fill-rule="nonzero" d="M148.24 485.27c-2.45,0 -4.43,-1.99 -4.43,-4.43 0,-2.45 1.99,-4.43 4.43,-4.43l0 8.87zm16.52 7.65l-8.87 0 0 0 -0.01 -0.39 -0.03 -0.39 -0.05 -0.38 -0.07 -0.37 -0.09 -0.37 -0.1 -0.36 -0.12 -0.35 -0.14 -0.34 -0.15 -0.34 -0.17 -0.33 -0.18 -0.32 -0.2 -0.31 -0.22 -0.3 -0.23 -0.29 -0.24 -0.28 -0.26 -0.27 -0.27 -0.26 -0.28 -0.24 -0.29 -0.23 -0.3 -0.21 -0.31 -0.2 -0.32 -0.18 -0.33 -0.17 -0.34 -0.15 -0.34 -0.14 -0.35 -0.12 -0.36 -0.1 -0.37 -0.09 -0.37 -0.07 -0.38 -0.05 -0.39 -0.03 -0.39 -0.01 0 -8.87 0.85 0.02 0.83 0.06 0.83 0.1 0.81 0.15 0.8 0.18 0.79 0.22 0.77 0.26 0.75 0.3 0.73 0.33 0.71 0.36 0.69 0.4 0.67 0.43 0.65 0.46 0.62 0.49 0.6 0.52 0.57 0.54 0.55 0.57 0.52 0.6 0.49 0.62 0.46 0.65 0.43 0.67 0.4 0.69 0.36 0.71 0.33 0.73 0.3 0.75 0.26 0.77 0.22 0.79 0.18 0.8 0.15 0.81 0.1 0.83 0.06 0.83 0.02 0.85 0 0zm0 0c0,2.45 -1.99,4.43 -4.43,4.43 -2.45,0 -4.43,-1.99 -4.43,-4.43l8.87 0zm-8.87 68.2l0 -68.2 8.87 0 0 68.2 -8.87 0zm8.87 0c0,2.45 -1.99,4.43 -4.43,4.43 -2.45,0 -4.43,-1.99 -4.43,-4.43l8.87 0z"/>
     </g>
    </g>
    <g>
     <g>
      <path fill="black" fill-rule="nonzero" d="M240.18 561.11c0,2.45 -1.99,4.43 -4.43,4.43 -2.45,0 -4.43,-1.99 -4.43,-4.43l8.87 0zm0 -155.38l0 155.38 -8.87 0 0 -155.38 4.43 -4.43 4.43 4.43zm-8.87 0c0,-2.45 1.99,-4.43 4.43,-4.43 2.45,0 4.43,1.99 4.43,4.43l-8.87 0zm32.58 4.43l-28.14 0 0 -8.87 28.14 0 0 0 0 8.87zm0 -8.87c2.45,0 4.43,1.99 4.43,4.43 0,2.45 -1.99,4.43 -4.43,4.43l0 -8.87zm16.52 16.52l-8.87 0 -0.01 -0.39 -0.03 -0.39 -0.05 -0.38 -0.07 -0.37 -0.09 -0.37 -0.1 -0.36 -0.12 -0.35 -0.14 -0.34 -0.15 -0.34 -0.17 -0.33 -0.18 -0.32 -0.2 -0.31 -0.22 -0.3 -0.23 -0.29 -0.24 -0.28 -0.26 -0.27 -0.27 -0.26 -0.28 -0.24 -0.29 -0.23 -0.3 -0.22 -0.31 -0.2 -0.32 -0.18 -0.33 -0.17 -0.34 -0.15 -0.34 -0.14 -0.35 -0.12 -0.36 -0.1 -0.37 -0.09 -0.37 -0.07 -0.38 -0.05 -0.39 -0.03 -0.39 -0.01 0 -8.87 0.85 0.02 0.83 0.06 0.83 0.1 0.81 0.15 0.8 0.18 0.79 0.22 0.77 0.26 0.75 0.3 0.73 0.33 0.71 0.36 0.69 0.4 0.67 0.43 0.65 0.46 0.62 0.49 0.6 0.52 0.57 0.55 0.55 0.57 0.52 0.6 0.49 0.62 0.46 0.65 0.43 0.67 0.4 0.69 0.36 0.71 0.33 0.73 0.3 0.75 0.26 0.77 0.22 0.79 0.18 0.8 0.15 0.81 0.1 0.83 0.06 0.83 0.02 0.85zm0 0c0,2.45 -1.99,4.43 -4.43,4.43 -2.45,0 -4.43,-1.99 -4.43,-4.43l8.87 0z"/>
     </g>
     <g>
      <path fill="black" fill-rule="nonzero" d="M271.54 417.83c0,-2.45 1.99,-4.43 4.43,-4.43 2.45,0 4.43,1.99 4.43,4.43l-8.87 0zm0 40.86l0 -40.86 8.87 0 0 40.86 -8.87 0zm8.87 0c0,2.45 -1.99,4.43 -4.43,4.43 -2.45,0 -4.43,-1.99 -4.43,-4.43l8.87 0zm-16.52 17.71c2.45,0 4.43,1.99 4.43,4.43 0,2.45 -1.99,4.43 -4.43,4.43l0 -8.87zm-28.14 0l28.14 0 0 8.87 -28.14 0 0 -8.87zm0 8.87c-2.45,0 -4.43,-1.99 -4.43,-4.43 0,-2.45 1.99,-4.43 4.43,-4.43l0 8.87z"/>
     </g>
     <g>
      <path fill="black" fill-rule="nonzero" d="M271.54 502.98c0,-2.45 1.99,-4.43 4.43,-4.43 2.45,0 4.43,1.99 4.43,4.43l-8.87 0zm0 46.05l0 -46.05 8.87 0 0 46.05 0 0 -8.87 0zm8.87 0c0,2.45 -1.99,4.43 -4.43,4.43 -2.45,0 -4.43,-1.99 -4.43,-4.43l8.87 0zm-16.52 16.52l0 -8.87 0 0 0.39 -0.01 0.39 -0.03 0.38 -0.05 0.37 -0.07 0.37 -0.09 0.36 -0.1 0.35 -0.12 0.35 -0.14 0.34 -0.15 0.33 -0.17 0.32 -0.18 0.31 -0.2 0.31 -0.22 0.29 -0.23 0.28 -0.24 0.27 -0.26 0.26 -0.27 0.24 -0.28 0.23 -0.29 0.22 -0.31 0.2 -0.31 0.18 -0.32 0.17 -0.33 0.15 -0.34 0.14 -0.35 0.12 -0.35 0.1 -0.36 0.09 -0.37 0.07 -0.37 0.05 -0.38 0.03 -0.39 0.01 -0.39 8.87 0 -0.02 0.85 -0.06 0.83 -0.11 0.83 -0.15 0.82 -0.19 0.8 -0.22 0.79 -0.26 0.77 -0.3 0.75 -0.33 0.73 -0.37 0.71 -0.4 0.69 -0.43 0.67 -0.46 0.64 -0.49 0.62 -0.52 0.6 -0.55 0.57 -0.57 0.55 -0.6 0.52 -0.62 0.49 -0.64 0.46 -0.67 0.43 -0.69 0.4 -0.71 0.37 -0.73 0.33 -0.75 0.3 -0.77 0.26 -0.79 0.22 -0.8 0.19 -0.82 0.15 -0.83 0.11 -0.83 0.06 -0.85 0.02 0 0zm0 0c-2.45,0 -4.43,-1.99 -4.43,-4.43 0,-2.45 1.99,-4.43 4.43,-4.43l0 8.87zm-26.9 -8.87l26.9 0 0 8.87 -26.9 0 0 0 0 -8.87zm0 8.87c-2.45,0 -4.43,-1.99 -4.43,-4.43 0,-2.45 1.99,-4.43 4.43,-4.43l0 8.87zm-5.68 -5.68l8.87 0 -0 -0.15 -0.01 -0.18 -0.02 -0.16 -0.03 -0.16 -0.04 -0.17 -0.04 -0.14 -0.05 -0.14 -0.06 -0.14 -0.07 -0.15 -0.07 -0.14 -0.08 -0.13 -0.09 -0.14 -0.08 -0.11 -0.1 -0.13 -0.11 -0.12 -0.1 -0.1 -0.1 -0.1 -0.12 -0.11 -0.13 -0.1 -0.1 -0.07 -0.15 -0.1 -0.14 -0.08 -0.11 -0.06 -0.16 -0.07 -0.14 -0.06 -0.14 -0.05 -0.15 -0.04 -0.16 -0.04 -0.16 -0.03 -0.16 -0.02 -0.18 -0.01 -0.15 -0 0 8.87 -0.28 -0.01 -0.31 -0.02 -0.28 -0.04 -0.28 -0.05 -0.28 -0.07 -0.27 -0.08 -0.26 -0.09 -0.25 -0.1 -0.27 -0.12 -0.22 -0.11 -0.25 -0.14 -0.25 -0.16 -0.2 -0.14 -0.22 -0.17 -0.21 -0.18 -0.19 -0.18 -0.18 -0.19 -0.18 -0.21 -0.17 -0.22 -0.15 -0.21 -0.15 -0.24 -0.14 -0.24 -0.12 -0.24 -0.12 -0.26 -0.1 -0.25 -0.09 -0.26 -0.07 -0.26 -0.07 -0.29 -0.05 -0.28 -0.04 -0.28 -0.02 -0.31 -0.01 -0.28zm0 0c0,-2.45 1.99,-4.43 4.43,-4.43 2.45,0 4.43,1.99 4.43,4.43l-8.87 0z"/>
     </g>
    </g>
    <g>
     <g>
      <path fill="black" fill-rule="nonzero" d="M298.01 561.11c0,2.45 -1.99,4.43 -4.43,4.43 -2.45,0 -4.43,-1.99 -4.43,-4.43l8.87 0zm0 -155.38l0 155.38 -8.87 0 0 -155.38 4.43 -4.43 4.43 4.43zm-8.87 0c0,-2.45 1.99,-4.43 4.43,-4.43 2.45,0 4.43,1.99 4.43,4.43l-8.87 0zm32.58 4.43l-28.14 0 0 -8.87 28.14 0 0 0 0 8.87zm0 -8.87c2.45,0 4.43,1.99 4.43,4.43 0,2.45 -1.99,4.43 -4.43,4.43l0 -8.87zm16.52 16.52l-8.87 0 -0.01 -0.39 -0.03 -0.39 -0.05 -0.38 -0.07 -0.37 -0.09 -0.37 -0.1 -0.36 -0.12 -0.35 -0.14 -0.34 -0.15 -0.34 -0.17 -0.33 -0.18 -0.32 -0.2 -0.31 -0.21 -0.3 -0.23 -0.29 -0.24 -0.28 -0.26 -0.27 -0.27 -0.26 -0.28 -0.24 -0.29 -0.23 -0.3 -0.22 -0.31 -0.2 -0.32 -0.18 -0.33 -0.17 -0.34 -0.15 -0.34 -0.14 -0.35 -0.12 -0.36 -0.1 -0.37 -0.09 -0.37 -0.07 -0.38 -0.05 -0.39 -0.03 -0.39 -0.01 0 -8.87 0.85 0.02 0.83 0.06 0.83 0.1 0.81 0.15 0.8 0.18 0.79 0.22 0.77 0.26 0.75 0.3 0.73 0.33 0.71 0.36 0.69 0.4 0.67 0.43 0.65 0.46 0.62 0.49 0.6 0.52 0.57 0.55 0.54 0.57 0.52 0.6 0.49 0.62 0.46 0.65 0.43 0.67 0.4 0.69 0.36 0.71 0.33 0.73 0.3 0.75 0.26 0.77 0.22 0.79 0.18 0.8 0.15 0.81 0.1 0.83 0.06 0.83 0.02 0.85zm0 0c0,2.45 -1.99,4.43 -4.43,4.43 -2.45,0 -4.43,-1.99 -4.43,-4.43l8.87 0z"/>
     </g>
     <g>
      <path fill="black" fill-rule="nonzero" d="M329.37 417.83c0,-2.45 1.99,-4.43 4.43,-4.43 2.45,0 4.43,1.99 4.43,4.43l-8.87 0zm0 50.92l0 -50.92 8.87 0 0 50.92 0 0 -8.87 0zm8.87 0c0,2.45 -1.99,4.43 -4.43,4.43 -2.45,0 -4.43,-1.99 -4.43,-4.43l8.87 0zm-16.52 16.52l0 -8.87 0 0 0.39 -0.01 0.39 -0.03 0.38 -0.05 0.37 -0.07 0.37 -0.09 0.36 -0.1 0.35 -0.12 0.34 -0.14 0.34 -0.15 0.33 -0.17 0.32 -0.18 0.31 -0.2 0.3 -0.22 0.29 -0.23 0.28 -0.24 0.27 -0.25 0.25 -0.27 0.25 -0.28 0.23 -0.29 0.21 -0.3 0.2 -0.31 0.18 -0.32 0.17 -0.33 0.15 -0.34 0.14 -0.34 0.12 -0.35 0.1 -0.36 0.09 -0.37 0.07 -0.37 0.05 -0.38 0.03 -0.39 0.01 -0.39 8.87 0 -0.02 0.85 -0.06 0.83 -0.1 0.83 -0.15 0.81 -0.18 0.8 -0.22 0.79 -0.26 0.77 -0.3 0.75 -0.33 0.73 -0.36 0.71 -0.4 0.69 -0.43 0.67 -0.46 0.65 -0.49 0.62 -0.52 0.59 -0.55 0.57 -0.57 0.55 -0.6 0.52 -0.62 0.49 -0.65 0.46 -0.67 0.43 -0.69 0.4 -0.71 0.36 -0.73 0.33 -0.75 0.3 -0.77 0.26 -0.79 0.22 -0.8 0.18 -0.81 0.15 -0.83 0.1 -0.83 0.06 -0.85 0.02 0 0zm0 0c-2.45,0 -4.43,-1.99 -4.43,-4.43 0,-2.45 1.99,-4.43 4.43,-4.43l0 8.87zm-28.14 -8.87l28.14 0 0 8.87 -28.14 0 0 -8.87zm0 8.87c-2.45,0 -4.43,-1.99 -4.43,-4.43 0,-2.45 1.99,-4.43 4.43,-4.43l0 8.87z"/>
     </g>
     <g>
      <path fill="black" fill-rule="nonzero" d="M321.71 485.27c-2.45,0 -4.43,-1.99 -4.43,-4.43 0,-2.45 1.99,-4.43 4.43,-4.43l0 8.87zm16.52 7.65l-8.87 0 0 0 -0.01 -0.39 -0.03 -0.39 -0.05 -0.38 -0.07 -0.37 -0.09 -0.37 -0.1 -0.36 -0.12 -0.35 -0.14 -0.34 -0.15 -0.34 -0.17 -0.33 -0.18 -0.32 -0.2 -0.31 -0.21 -0.3 -0.23 -0.29 -0.24 -0.28 -0.25 -0.27 -0.27 -0.25 -0.28 -0.24 -0.29 -0.23 -0.3 -0.21 -0.31 -0.2 -0.32 -0.18 -0.33 -0.17 -0.34 -0.15 -0.34 -0.14 -0.35 -0.12 -0.36 -0.1 -0.37 -0.09 -0.37 -0.07 -0.38 -0.05 -0.39 -0.03 -0.39 -0.01 0 -8.87 0.85 0.02 0.83 0.06 0.83 0.1 0.81 0.15 0.8 0.18 0.79 0.22 0.77 0.26 0.75 0.3 0.73 0.33 0.71 0.36 0.69 0.4 0.67 0.43 0.65 0.46 0.62 0.49 0.6 0.52 0.57 0.55 0.55 0.57 0.52 0.6 0.49 0.62 0.46 0.65 0.43 0.67 0.4 0.69 0.36 0.71 0.33 0.73 0.3 0.75 0.26 0.77 0.22 0.79 0.18 0.8 0.15 0.81 0.1 0.83 0.06 0.83 0.02 0.85 0 0zm0 0c0,2.45 -1.99,4.43 -4.43,4.43 -2.45,0 -4.43,-1.99 -4.43,-4.43l8.87 0zm-8.87 68.2l0 -68.2 8.87 0 0 68.2 -8.87 0zm8.87 0c0,2.45 -1.99,4.43 -4.43,4.43 -2.45,0 -4.43,-1.99 -4.43,-4.43l8.87 0z"/>
     </g>
    </g>
    <g>
     <path fill="black" fill-rule="nonzero" d="M213.72 405.5c0.13,-2.45 2.22,-4.32 4.66,-4.2 2.45,0.13 4.32,2.22 4.2,4.66l-8.86 -0.47zm-7.54 143.29l7.54 -143.29 8.86 0.47 -7.54 143.29 -8.86 -0.47zm8.86 0.47c-0.13,2.45 -2.22,4.32 -4.66,4.2 -2.45,-0.13 -4.32,-2.22 -4.2,-4.66l8.86 0.47zm-17.05 16.29l0.13 -8.87 0 0 0.25 -0 0.27 -0.02 0.28 -0.04 0.3 -0.06 0.32 -0.08 0.33 -0.11 0.34 -0.13 0.34 -0.15 0.35 -0.17 0.35 -0.19 0.35 -0.22 0.35 -0.23 0.35 -0.25 0.34 -0.27 0.33 -0.29 0.33 -0.3 0.32 -0.32 0.3 -0.33 0.29 -0.34 0.27 -0.34 0.26 -0.35 0.24 -0.35 0.22 -0.36 0.2 -0.36 0.17 -0.35 0.15 -0.35 0.13 -0.34 0.11 -0.33 0.09 -0.32 0.07 -0.31 0.04 -0.3 0.02 -0.28 8.86 0.47 -0.07 0.84 -0.12 0.82 -0.17 0.81 -0.21 0.79 -0.25 0.77 -0.29 0.75 -0.32 0.74 -0.35 0.72 -0.38 0.7 -0.41 0.68 -0.44 0.66 -0.47 0.64 -0.49 0.62 -0.51 0.6 -0.54 0.58 -0.56 0.56 -0.58 0.54 -0.6 0.52 -0.62 0.49 -0.64 0.46 -0.66 0.44 -0.68 0.41 -0.69 0.38 -0.71 0.35 -0.73 0.32 -0.75 0.28 -0.76 0.25 -0.78 0.21 -0.8 0.17 -0.81 0.12 -0.83 0.07 -0.84 0.02 0 0zm-0 0c-2.45,-0.04 -4.4,-2.05 -4.37,-4.5 0.04,-2.45 2.05,-4.4 4.5,-4.37l-0.13 8.87zm-16.95 -16.29l8.86 -0.47 0 0 0.03 0.38 0.05 0.37 0.07 0.37 0.09 0.37 0.11 0.36 0.13 0.36 0.16 0.36 0.18 0.36 0.19 0.35 0.21 0.34 0.23 0.34 0.25 0.33 0.27 0.32 0.28 0.31 0.3 0.3 0.31 0.29 0.32 0.28 0.33 0.26 0.34 0.25 0.35 0.23 0.35 0.22 0.35 0.2 0.36 0.18 0.36 0.16 0.36 0.14 0.35 0.12 0.34 0.1 0.34 0.09 0.32 0.07 0.31 0.05 0.3 0.03 0.28 0.01 -0.13 8.87 -0.77 -0.03 -0.77 -0.07 -0.76 -0.12 -0.75 -0.15 -0.74 -0.19 -0.73 -0.22 -0.72 -0.26 -0.71 -0.29 -0.7 -0.32 -0.68 -0.35 -0.68 -0.38 -0.66 -0.41 -0.64 -0.43 -0.63 -0.46 -0.61 -0.49 -0.6 -0.52 -0.58 -0.54 -0.56 -0.57 -0.53 -0.59 -0.51 -0.62 -0.49 -0.64 -0.46 -0.67 -0.43 -0.7 -0.4 -0.72 -0.37 -0.74 -0.33 -0.77 -0.3 -0.79 -0.26 -0.81 -0.21 -0.83 -0.17 -0.85 -0.12 -0.88 -0.07 -0.89 0 0zm0 -0c-0.13,-2.45 1.75,-4.53 4.2,-4.66 2.45,-0.13 4.53,1.75 4.66,4.2l-8.86 0.47zm1.31 -143.76l7.54 143.29 -8.86 0.47 -7.54 -143.29 8.86 -0.47zm-8.86 0.47c-0.13,-2.45 1.75,-4.53 4.2,-4.66 2.45,-0.13 4.53,1.75 4.66,4.2l-8.86 0.47z"/>
    </g>
    <g>
     <path fill="black" fill-rule="nonzero" d="M453.89 458.82c0,2.45 -1.99,4.43 -4.43,4.43 -2.45,0 -4.43,-1.99 -4.43,-4.43l8.87 0zm0 -40.99l0 40.99 -8.87 0 0 -40.99 0 0 8.87 0zm-8.87 0c0,-2.45 1.99,-4.43 4.43,-4.43 2.45,0 4.43,1.99 4.43,4.43l-8.87 0zm-7.65 -7.65l0 -8.87 0 0 0.85 0.02 0.83 0.06 0.83 0.1 0.81 0.15 0.8 0.18 0.79 0.22 0.77 0.26 0.75 0.3 0.73 0.33 0.71 0.36 0.69 0.4 0.67 0.43 0.65 0.46 0.62 0.49 0.6 0.52 0.57 0.55 0.55 0.57 0.52 0.6 0.49 0.62 0.46 0.65 0.43 0.67 0.4 0.69 0.36 0.71 0.33 0.73 0.3 0.75 0.26 0.77 0.22 0.79 0.18 0.8 0.15 0.81 0.1 0.83 0.06 0.83 0.02 0.85 -8.87 0 -0.01 -0.39 -0.03 -0.39 -0.05 -0.38 -0.07 -0.37 -0.09 -0.37 -0.1 -0.36 -0.12 -0.35 -0.14 -0.34 -0.15 -0.34 -0.17 -0.33 -0.18 -0.32 -0.2 -0.31 -0.22 -0.3 -0.23 -0.29 -0.24 -0.28 -0.26 -0.27 -0.27 -0.26 -0.28 -0.24 -0.29 -0.23 -0.3 -0.22 -0.31 -0.2 -0.32 -0.18 -0.33 -0.17 -0.34 -0.15 -0.34 -0.14 -0.35 -0.12 -0.36 -0.1 -0.37 -0.09 -0.37 -0.07 -0.38 -0.05 -0.39 -0.03 -0.39 -0.01 0 0zm0 0c-2.45,0 -4.43,-1.99 -4.43,-4.43 0,-2.45 1.99,-4.43 4.43,-4.43l0 8.87zm-16.05 -8.87l16.05 0 0 8.87 -16.05 0 0 0 0 -8.87zm0 8.87c-2.45,0 -4.43,-1.99 -4.43,-4.43 0,-2.45 1.99,-4.43 4.43,-4.43l0 8.87zm-7.65 7.65l-8.87 0 0 0 0.02 -0.85 0.06 -0.83 0.1 -0.83 0.15 -0.81 0.19 -0.8 0.22 -0.78 0.26 -0.77 0.3 -0.75 0.33 -0.73 0.37 -0.71 0.4 -0.69 0.43 -0.67 0.46 -0.64 0.49 -0.62 0.52 -0.6 0.55 -0.57 0.57 -0.55 0.6 -0.52 0.62 -0.49 0.64 -0.46 0.67 -0.43 0.69 -0.4 0.71 -0.37 0.73 -0.33 0.75 -0.3 0.77 -0.26 0.78 -0.22 0.8 -0.19 0.81 -0.15 0.83 -0.1 0.83 -0.06 0.85 -0.02 0 8.87 -0.39 0.01 -0.39 0.03 -0.38 0.05 -0.37 0.07 -0.37 0.09 -0.36 0.1 -0.35 0.12 -0.35 0.14 -0.34 0.15 -0.33 0.17 -0.32 0.19 -0.31 0.2 -0.3 0.22 -0.29 0.23 -0.28 0.24 -0.27 0.26 -0.26 0.27 -0.24 0.28 -0.23 0.29 -0.22 0.3 -0.2 0.31 -0.19 0.32 -0.17 0.33 -0.15 0.34 -0.14 0.35 -0.12 0.35 -0.1 0.36 -0.09 0.37 -0.07 0.37 -0.05 0.38 -0.03 0.39 -0.01 0.39 0 0zm0 0c0,2.45 -1.99,4.43 -4.43,4.43 -2.45,0 -4.43,-1.99 -4.43,-4.43l8.87 0zm-8.87 40.87l0 -40.87 8.87 0 0 40.87 -7.72 2.98 -1.15 -2.98zm8.87 0c0,2.45 -1.99,4.43 -4.43,4.43 -2.45,0 -4.43,-1.99 -4.43,-4.43l8.87 0zm32.51 47.27l-40.23 -44.29 6.57 -5.96 40.23 44.29 1.15 2.98 -7.72 2.98zm6.57 -5.96c1.65,1.81 1.51,4.62 -0.3,6.26 -1.81,1.65 -4.62,1.51 -6.26,-0.3l6.57 -5.96zm-7.72 49.03l0 -46.05 8.87 0 0 46.05 0 0 -8.87 0zm8.87 0c0,2.45 -1.99,4.43 -4.43,4.43 -2.45,0 -4.43,-1.99 -4.43,-4.43l8.87 0zm-16.52 16.52l0 -8.87 0 0 0.39 -0.01 0.39 -0.03 0.38 -0.05 0.37 -0.07 0.37 -0.09 0.36 -0.1 0.35 -0.12 0.34 -0.14 0.34 -0.15 0.33 -0.17 0.32 -0.19 0.31 -0.2 0.3 -0.21 0.29 -0.23 0.28 -0.24 0.27 -0.26 0.26 -0.27 0.24 -0.28 0.23 -0.29 0.21 -0.3 0.2 -0.31 0.19 -0.32 0.17 -0.33 0.15 -0.34 0.14 -0.34 0.12 -0.35 0.1 -0.36 0.09 -0.37 0.07 -0.37 0.05 -0.38 0.03 -0.39 0.01 -0.39 8.87 0 -0.02 0.85 -0.06 0.83 -0.1 0.83 -0.15 0.81 -0.18 0.8 -0.22 0.79 -0.26 0.77 -0.3 0.75 -0.33 0.73 -0.37 0.71 -0.4 0.69 -0.43 0.67 -0.46 0.65 -0.49 0.62 -0.52 0.6 -0.55 0.57 -0.57 0.55 -0.6 0.52 -0.62 0.49 -0.65 0.46 -0.67 0.43 -0.69 0.4 -0.71 0.37 -0.73 0.33 -0.75 0.3 -0.77 0.26 -0.79 0.22 -0.8 0.18 -0.81 0.15 -0.83 0.1 -0.83 0.06 -0.85 0.02 0 0zm0 0c-2.45,0 -4.43,-1.99 -4.43,-4.43 0,-2.45 1.99,-4.43 4.43,-4.43l0 8.87zm-16.05 -8.87l16.05 0 0 8.87 -16.05 0 0 0 0 -8.87zm0 8.87c-2.45,0 -4.43,-1.99 -4.43,-4.43 0,-2.45 1.99,-4.43 4.43,-4.43l0 8.87zm-16.52 -16.52l8.87 0 0 0 0.01 0.39 0.03 0.39 0.05 0.38 0.07 0.37 0.09 0.37 0.1 0.36 0.12 0.35 0.14 0.34 0.15 0.34 0.17 0.33 0.18 0.32 0.2 0.31 0.21 0.3 0.23 0.29 0.25 0.28 0.25 0.27 0.27 0.25 0.28 0.24 0.29 0.23 0.3 0.22 0.31 0.2 0.32 0.18 0.33 0.17 0.34 0.15 0.34 0.14 0.35 0.12 0.36 0.1 0.37 0.09 0.37 0.07 0.38 0.05 0.39 0.03 0.39 0.01 0 8.87 -0.85 -0.02 -0.83 -0.06 -0.83 -0.1 -0.81 -0.15 -0.8 -0.18 -0.79 -0.22 -0.77 -0.26 -0.75 -0.3 -0.73 -0.33 -0.71 -0.36 -0.69 -0.4 -0.67 -0.43 -0.65 -0.46 -0.62 -0.49 -0.6 -0.52 -0.57 -0.55 -0.55 -0.57 -0.52 -0.59 -0.49 -0.62 -0.46 -0.65 -0.43 -0.67 -0.4 -0.69 -0.36 -0.71 -0.33 -0.73 -0.3 -0.75 -0.26 -0.77 -0.22 -0.79 -0.18 -0.8 -0.15 -0.81 -0.1 -0.83 -0.06 -0.83 -0.02 -0.85 0 0zm0 0c0,-2.45 1.99,-4.43 4.43,-4.43 2.45,0 4.43,1.99 4.43,4.43l-8.87 0zm8.87 -46.41l0 46.41 -8.87 0 0 -46.41 8.87 0zm-8.87 0c0,-2.45 1.99,-4.43 4.43,-4.43 2.45,0 4.43,1.99 4.43,4.43l-8.87 0z"/>
    </g>
    <g>
     <path fill="black" fill-rule="nonzero" d="M23 528.86c-1.49,-1.94 -1.13,-4.72 0.8,-6.22 1.94,-1.49 4.72,-1.13 6.22,0.8l-7.02 5.41zm26.95 34.96l-26.95 -34.96 7.02 -5.41 26.95 34.96 -7.02 5.41zm7.02 -5.41c1.49,1.94 1.13,4.72 -0.8,6.22 -1.94,1.49 -4.72,1.13 -6.22,-0.8l7.02 -5.41z"/>
    </g>
   </g>
   <g>
    <path id="_3979f2be-e166-4043-b147-6c633d94aa2b.svg" fill="black" fill-rule="nonzero" d="M91.21 67.92l0 0c-7.25,-27.28 5.23,-42.72 13.1,-49.3 0.95,-0.85 2.47,-0.98 3.58,-0.06 0.83,0.7 1.15,1.44 1.24,2.45 -0.87,19.29 12.41,33.49 12.41,33.49l-30.33 13.41z"/>
    <path id="_3979f2be-e166-4043-b147-6c633d94aa2b.svg_0" fill="black" fill-rule="nonzero" d="M2.25 170.05c4.39,6.27 4.86,6.65 9.71,12.37 6.58,7.88 13.37,15.22 20.44,22.8 1.15,1.44 2.53,2.6 4.15,3.48 2.65,1.05 16.38,-0.15 26.55,-1.04 14.74,-1.29 30.25,-2.65 38.6,-0.82 4.16,0.66 7.68,2.91 9.77,6.32 3.82,5.56 4.36,14.45 2.08,26.44 5.66,-3.05 10.95,-5.03 15.93,-6.19 10.86,-32.13 37.51,-56.97 70.72,-65.29l-0.92 0.23c3.11,-8.33 6.29,-16.83 10.08,-24.83 4.63,-10.04 9.76,-19.8 15.37,-29.26 -8.56,-14.43 -18.23,-28.16 -28.96,-41.15 -3.45,-4.31 -7.13,-8.34 -10.56,-12.39 -14.24,-16.43 -29.06,-33.57 -35.36,-55.81 -1.44,-4.74 -2.48,-4.91 -2.48,-4.91 -0.76,0.07 -1.25,0.37 -1.73,0.66 -7.8,4.52 -13.17,13.45 -15.03,24.37 -1.7,9.88 -0.57,19.77 0.98,31.67 0.13,1.53 -0.75,3.14 -1.98,3.76l-4.42 2.18c-10.57,5.02 -21.63,10.34 -31.95,15.35 -3.19,1.56 -6.13,3.1 -8.26,5.08 -3.55,3.38 -5.13,8.65 -6.96,14.18 -3.01,10.82 0.2,11.03 5.95,21.48l-68.55 38.81c-1.4,-0.06 -15.24,4.16 -15.42,7.12 0.29,1.68 1.1,3.97 2.25,5.4zm198.75 -2.14c0.4,-0.1 0.8,-0.19 1.2,-0.28 -0.4,0.09 -0.8,0.19 -1.2,0.28zm1.91 -0.44c0.42,-0.09 0.84,-0.18 1.26,-0.27 -0.42,0.09 -0.84,0.18 -1.26,0.27zm1.94 -0.41c0.42,-0.08 0.84,-0.17 1.26,-0.24 -0.42,0.08 -0.84,0.16 -1.26,0.24zm1.92 -0.37c0.49,-0.09 0.97,-0.17 1.46,-0.25 -0.49,0.08 -0.97,0.16 -1.46,0.25zm1.93 -0.33c0.51,-0.08 1.01,-0.16 1.52,-0.23 -0.51,0.07 -1.02,0.15 -1.52,0.23zm1.97 -0.3c0.52,-0.07 1.04,-0.14 1.56,-0.21 -0.52,0.06 -1.04,0.13 -1.56,0.21zm1.9 -0.25c0.58,-0.07 1.17,-0.14 1.75,-0.2 -0.59,0.06 -1.17,0.13 -1.75,0.2zm1.97 -0.22c0.6,-0.06 1.2,-0.11 1.8,-0.16 -0.6,0.05 -1.2,0.1 -1.8,0.16zm6.04 -0.42c0.66,-0.03 1.32,-0.05 1.98,-0.06 -0.66,0.01 -1.32,0.03 -1.98,0.06zm2.06 -0.06c0.68,-0.01 1.35,-0.02 2.03,-0.02 -0.68,0 -1.36,0.01 -2.03,0.02z"/>
    <g>
     <path fill="black" fill-rule="nonzero" d="M124.24 211.49c1.79,-3.3 5.92,-4.53 9.22,-2.74 3.3,1.79 4.53,5.92 2.74,9.22l-11.97 -6.48zm-0.09 54.25l-13.61 0 0 0 0.01 -1.84 0.04 -1.83 0.07 -1.82 0.1 -1.82 0.13 -1.81 0.16 -1.8 0.18 -1.79 0.21 -1.78 0.24 -1.78 0.27 -1.77 0.29 -1.76 0.32 -1.75 0.35 -1.74 0.37 -1.73 0.4 -1.72 0.42 -1.71 0.45 -1.7 0.47 -1.69 0.5 -1.68 0.53 -1.67 0.55 -1.65 0.57 -1.65 0.6 -1.63 0.62 -1.62 0.65 -1.61 0.67 -1.6 0.69 -1.59 0.72 -1.57 0.74 -1.56 0.76 -1.55 0.78 -1.53 0.81 -1.52 11.97 6.48 -0.71 1.34 -0.69 1.35 -0.67 1.36 -0.65 1.37 -0.63 1.38 -0.61 1.39 -0.59 1.4 -0.57 1.42 -0.55 1.43 -0.53 1.44 -0.51 1.45 -0.48 1.46 -0.46 1.47 -0.44 1.48 -0.42 1.49 -0.4 1.5 -0.37 1.51 -0.35 1.51 -0.33 1.52 -0.3 1.53 -0.28 1.54 -0.26 1.55 -0.23 1.56 -0.21 1.56 -0.19 1.57 -0.16 1.58 -0.14 1.59 -0.11 1.59 -0.09 1.6 -0.06 1.61 -0.04 1.62 -0.01 1.62 0 0zm54.6 89.72l-5.35 12.51 -0.41 -0.19 -3.55 -1.89 -3.46 -2 -3.38 -2.11 -3.29 -2.22 -3.2 -2.33 -3.11 -2.43 -3.01 -2.53 -2.92 -2.62 -2.82 -2.71 -2.72 -2.81 -2.62 -2.89 -2.52 -2.97 -2.41 -3.06 -2.3 -3.13 -2.19 -3.21 -2.09 -3.28 -1.97 -3.35 -1.86 -3.41 -1.74 -3.48 -1.62 -3.54 -1.51 -3.6 -1.38 -3.65 -1.26 -3.7 -1.14 -3.75 -1.01 -3.8 -0.88 -3.84 -0.75 -3.88 -0.62 -3.91 -0.48 -3.95 -0.35 -3.98 -0.21 -4 -0.07 -4.03 13.61 0 0.06 3.55 0.18 3.53 0.31 3.5 0.43 3.48 0.54 3.45 0.66 3.42 0.78 3.38 0.89 3.34 1 3.3 1.11 3.26 1.22 3.22 1.33 3.17 1.43 3.12 1.54 3.07 1.64 3.01 1.74 2.95 1.84 2.89 1.93 2.83 2.03 2.76 2.12 2.69 2.22 2.62 2.31 2.55 2.4 2.47 2.48 2.39 2.57 2.31 2.65 2.22 2.74 2.14 2.82 2.05 2.9 1.96 2.98 1.86 3.05 1.76 3.13 1.66 -0.41 -0.19zm-5.35 12.51l-0.21 -0.09 -0.2 -0.1 0.41 0.19zm25.88 -37.65l13.47 1.91 -0 0.02 -0.22 1.61 -0.21 1.66 -0.21 1.72 -0.22 1.76 -0.22 1.79 -0.24 1.82 -0.26 1.84 -0.28 1.85 -0.32 1.85 -0.36 1.85 -0.42 1.85 -0.48 1.84 -0.55 1.82 -0.64 1.8 -0.74 1.78 -0.86 1.74 -1 1.7 -1.16 1.64 -1.33 1.56 -1.52 1.45 -1.71 1.29 -1.89 1.1 -2.05 0.88 -2.18 0.64 -2.27 0.39 -2.35 0.15 -2.42 -0.08 -2.48 -0.3 -2.55 -0.51 -2.63 -0.72 -2.73 -0.93 -2.84 -1.14 5.35 -12.51 2.22 0.89 2.01 0.68 1.79 0.49 1.58 0.32 1.37 0.17 1.15 0.04 0.96 -0.06 0.78 -0.14 0.64 -0.19 0.53 -0.23 0.48 -0.28 0.45 -0.34 0.45 -0.43 0.46 -0.54 0.46 -0.66 0.46 -0.79 0.45 -0.92 0.43 -1.05 0.41 -1.16 0.38 -1.27 0.35 -1.36 0.33 -1.45 0.3 -1.52 0.27 -1.58 0.25 -1.64 0.24 -1.68 0.22 -1.71 0.22 -1.74 0.21 -1.75 0.22 -1.76 0.23 -1.76 0.24 -1.76 -0 0.02zm13.47 1.91l-0 0.02 -0.02 0.11 0.02 -0.13zm0.37 -2.58l-0.37 2.58 -13.47 -1.91 0.37 -2.58 13.47 1.9 -0 0.01zm0 -0.01l-0 0.01 0.04 -0.32 -0.04 0.31zm0.37 -2.62l-0.37 2.62 -13.48 -1.89 0.37 -2.62 13.48 1.88 -0 0.01zm0 -0.01l-0 0.01 -0.01 0.09 0.01 -0.1zm0.37 -2.65l-0.37 2.65 -13.48 -1.86 0.37 -2.65 13.48 1.86 -0 0.01zm0 -0.01l-0 0.01 -0.03 0.23 0.03 -0.24zm0.37 -2.68l-0.37 2.68 -13.48 -1.85 0.37 -2.68 13.48 1.84 -0 0.01zm0 -0.01l-0 0.02 0 -0.01 0 -0.01zm0.37 -2.7l-0.37 2.7 -13.48 -1.83 0.37 -2.7 13.49 1.82 -0 0zm0.37 -2.72l-0.37 2.72 -13.49 -1.82 0.37 -2.72 13.49 1.81 -0 0zm0.37 -2.74l-0.37 2.73 -13.49 -1.81 0.37 -2.73 13.49 1.81 0 0zm0.37 -2.75l-0.37 2.74 -13.49 -1.8 0.37 -2.74 13.49 1.8 -0 0zm0.37 -2.75l-0.37 2.75 -13.49 -1.8 0.37 -2.75 13.49 1.8 0 0zm0.37 -2.75l-0.37 2.75 -13.49 -1.8 0.37 -2.75 0 -0 13.49 1.8zm0.37 -2.74l-0.37 2.74 -13.49 -1.8 0.37 -2.74 0 -0.01 13.49 1.81zm0.37 -2.72l-0.37 2.73 -13.49 -1.81 0.37 -2.73 0 -0 13.49 1.82zm0.37 -2.71l-0.37 2.72 -13.49 -1.82 0.37 -2.72 0 -0 13.49 1.82zm0.36 -2.69l-0.37 2.7 -13.48 -1.83 0.37 -2.7 0 -0.01 13.48 1.84zm-13.48 -1.83l0 -0.01 -0.04 0.28 0.04 -0.28zm13.85 -0.84l-0.37 2.68 -13.48 -1.84 0.37 -2.68 0 -0.01 13.48 1.86zm-13.48 -1.84l0 -0.01 0.01 -0.08 -0.01 0.09zm13.85 -0.79l-0.37 2.65 -13.48 -1.87 0.37 -2.65 0 -0.01 13.48 1.88zm-13.48 -1.87l0 -0.01 0.05 -0.37 -0.05 0.38zm13.84 -0.74l-0.37 2.61 -13.48 -1.89 0.37 -2.61 0 -0.01 13.48 1.9zm-13.48 -1.89l0 -0.01 -0 0.02 0 -0.01zm13.84 -0.68l-0.37 2.58 -13.47 -1.91 0.37 -2.58 0 -0.02 13.47 1.93zm-13.47 -1.91l0 -0.02 -0.03 0.21 0.03 -0.2zm13.84 -0.61l-0.37 2.54 -13.47 -1.94 0.37 -2.54 0 -0.02 13.46 1.96zm-13.47 -1.94l-0 0 0 -0.03 -0 0.02zm13.83 -0.53l-0.37 2.49 -13.46 -1.98 0.37 -2.49 0 -0.01 13.46 2zm-13.46 -1.98l0 -0.01 0.04 -0.27 -0.04 0.29zm13.83 -0.45l-0.37 2.45 -13.46 -2.01 0.37 -2.45 0 -0.02 13.45 2.03zm-13.46 -2.01l0 -0.02 -0.03 0.19 0.03 -0.17zm13.82 -0.36l-0.37 2.4 -13.45 -2.06 0.37 -2.4 0 -0.02 13.45 2.08zm-13.45 -2.06l0 -0.02 0.02 -0.1 -0.02 0.12zm13.81 -0.26l-0.37 2.34 -13.44 -2.1 0.37 -2.34 0 -0.03 13.44 2.13zm-13.44 -2.1l0 -0.03 -0.01 0.04 0 -0.01zm13.81 -0.15l-0.37 2.28 -13.44 -2.16 0.37 -2.28 0.01 -0.03 13.43 2.19zm-13.44 -2.16l-0 0.01 0.01 -0.04 -0.01 0.03zm13.8 -0.03l-0.37 2.22 -13.43 -2.22 0.37 -2.22 0 -0.03 13.42 2.25zm-13.43 -2.22l0 -0.03 0.01 -0.05 -0.01 0.08zm13.79 0.09l-0.37 2.16 -13.42 -2.28 0.37 -2.16 0.01 -0.04 13.41 2.31zm-13.42 -2.28l0.01 -0.04 0 -0.02 -0.01 0.06zm13.78 0.23l-0.37 2.09 -13.4 -2.35 0.37 -2.09 0.01 -0.04 13.4 2.39zm-13.4 -2.35l0.01 -0.04 -0.02 0.11 0.01 -0.07zm13.76 0.37l-0.37 2.02 -13.39 -2.43 0.37 -2.02 0.01 -0.05 13.38 2.48zm-13.39 -2.43l0.01 -0.05 0.01 -0.05 -0.02 0.09zm13.75 0.53l-0.37 1.94 -13.37 -2.53 0.37 -1.94 0.01 -0.05 13.36 2.57zm-13.37 -2.53l-0.01 0.03 0.01 -0.07 -0.01 0.05zm13.73 0.7l-0.37 1.87 -13.35 -2.62 0.37 -1.87 0.01 -0.05 13.34 2.67zm-13.35 -2.62l0.01 -0.05 -0 0.01 -0.01 0.05zm13.71 0.88l-0.37 1.79 -13.33 -2.72 0.37 -1.79 0.01 -0.06 13.32 2.79zm-13.33 -2.72l0.01 -0.06 -0.02 0.08 0 -0.02zm13.69 1.08l-0.37 1.71 -13.31 -2.85 0.37 -1.71 0.02 -0.07 13.29 2.92zm-13.31 -2.85l0.02 -0.07 -0.01 0.03 -0.01 0.04zm13.66 1.3l-0.37 1.63 -13.27 -3 0.37 -1.63 0.02 -0.08 13.26 3.08zm-13.27 -3l0.02 -0.08 0 -0.02 -0.02 0.09zm13.62 1.53l-0.37 1.54 -13.24 -3.15 0.37 -1.54 0.02 -0.08 13.22 3.24zm-13.24 -3.15l0.01 -0.04 0.01 -0.05 -0.02 0.08zm13.58 1.78l-0.37 1.46 -13.2 -3.32 0.37 -1.46 0.03 -0.1 13.17 3.42zm-13.2 -3.32l0.01 -0.03 0.02 -0.07 -0.03 0.1zm13.54 2.06l-0.37 1.36 -13.14 -3.52 0.37 -1.36 0.03 -0.12 13.11 3.64zm-13.14 -3.52l0.02 -0.06 0.02 -0.06 -0.03 0.12zm13.48 2.36l-0.37 1.28 -13.08 -3.76 0.37 -1.28 0.04 -0.13 13.04 3.89zm-13.08 -3.76l0.02 -0.05 0.02 -0.08 -0.04 0.13zm13.41 2.71l-0.37 1.18 -13 -4.02 0.37 -1.18 0.05 -0.15 12.95 4.17zm-13 -4.02l0.03 -0.08 0.02 -0.07 -0.05 0.15zm13.32 3.08l-0.37 1.09 -12.9 -4.33 0.37 -1.09 0.06 -0.18 12.84 4.51zm-12.9 -4.33l0.03 -0.09 0.03 -0.09 -0.06 0.18zm13.2 3.51l-0.37 1 -12.78 -4.68 0.37 -1 0.08 -0.22 12.69 4.9zm-12.78 -4.68l0.04 -0.11 0.04 -0.1 -0.08 0.22zm13.06 4l-0.37 0.9 -12.61 -5.12 0.37 -0.9 0.11 -0.25 12.5 5.37zm-12.61 -5.12l0.05 -0.12 0.06 -0.12 -0.11 0.25zm12.87 4.56l-0.37 0.81 -12.39 -5.62 0.37 -0.81 0.15 -0.3 12.25 5.92zm-12.39 -5.62l0.07 -0.15 0.08 -0.16 -0.15 0.3zm12.61 5.21l-0.37 0.71 -12.1 -6.22 0.37 -0.71 0.2 -0.36 11.9 6.58zm-12.1 -6.22l0.1 -0.19 0.1 -0.17 -0.2 0.36zm12.27 5.97l-0.37 0.62 -11.7 -6.94 0.37 -0.62 0.29 -0.45 11.41 7.39zm-11.7 -6.94l0.14 -0.23 0.16 -0.22 -0.29 0.45zm11.78 6.88l-0.37 0.52 -11.12 -7.85 0.37 -0.52 0.43 -0.55 10.69 8.39zm-11.12 -7.85l0.2 -0.28 0.23 -0.27 -0.43 0.55zm11.05 7.97l-0.37 0.42 -10.26 -8.94 0.37 -0.42 0.62 -0.62 9.64 9.56zm-10.26 -8.94l0.29 -0.34 0.32 -0.29 -0.62 0.62zm10.01 9.24l-0.37 0.33 -9.03 -10.19 0.37 -0.33 0.91 -0.68 8.12 10.86zm-9.03 -10.19l0.42 -0.38 0.48 -0.3 -0.91 0.68zm8.48 10.63l-0.37 0.23 -7.21 -11.54 0.37 -0.23 1.31 -0.64 5.89 12.18zm-7.21 -11.54l0.62 -0.39 0.69 -0.25 -1.31 0.64zm6.26 12.05l-0.37 0.13 -4.58 -12.81 0.37 -0.13 1.65 -0.37 2.94 13.18zm-4.58 -12.81l0.8 -0.29 0.84 -0.08 -1.65 0.37zm3.3 13.14l-0.37 0.03 -1.29 -13.55 0.37 -0.03 1.76 0.06 -0.47 13.49zm-1.29 -13.55l0.88 -0.08 0.88 0.15 -1.76 -0.06zm-0.1 13.55l-0.37 -0.06 2.23 -13.42 0.37 0.06 1.56 0.46 -3.79 12.97zm2.23 -13.42l0.81 0.13 0.75 0.32 -1.56 -0.46zm-3.42 13.13l-0.37 -0.16 5.35 -12.51 0.37 0.16 1.16 0.64 -6.51 11.88zm5.35 -12.51l0.61 0.26 0.55 0.37 -1.16 -0.64zm-6.14 12.13l-0.37 -0.25 7.67 -11.24 0.37 0.25 0.81 0.65 -8.48 10.59zm7.67 -11.24l0.43 0.29 0.38 0.36 -0.81 -0.65zm-8.11 10.94l-0.37 -0.34 9.29 -9.95 0.37 0.34 0.57 0.6 -9.85 9.35zm9.29 -9.95l0.3 0.28 0.27 0.32 -0.57 -0.6zm-9.49 9.78l-0.37 -0.44 10.42 -8.75 0.37 0.44 0.38 0.49 -10.8 8.26zm10.42 -8.75l0.2 0.24 0.18 0.26 -0.38 -0.49zm-10.43 8.78l-0.37 -0.53 11.18 -7.76 0.37 0.53 0.26 0.41 -11.44 7.35zm11.18 -7.76l0.14 0.21 0.12 0.2 -0.26 -0.41zm-11.07 7.97l-0.37 -0.62 11.7 -6.94 0.37 0.62 0.18 0.33 -11.89 6.61zm11.7 -6.94l0.1 0.16 0.09 0.17 -0.18 -0.33zm-11.52 7.32l-0.37 -0.71 12.07 -6.28 0.37 0.71 0.14 0.28 -12.21 6zm12.07 -6.28l0.07 0.13 0.07 0.15 -0.14 -0.28zm-11.85 6.79l-0.37 -0.79 12.35 -5.71 0.37 0.79 0.11 0.24 -12.46 5.47zm12.35 -5.71l0.05 0.11 0.05 0.13 -0.11 -0.24zm-12.09 6.35l-0.37 -0.88 12.56 -5.23 0.37 0.88 0.07 0.18 -12.63 5.05zm12.56 -5.23l0.04 0.1 0.03 0.08 -0.07 -0.18zm-12.26 6.01l-0.37 -0.96 12.7 -4.88 0.37 0.96 0.07 0.18 -12.77 4.69zm12.7 -4.88l0.04 0.09 0.03 0.09 -0.07 -0.18zm-12.41 5.73l-0.37 -1.04 12.84 -4.51 0.37 1.04 0.05 0.14 -12.89 4.36zm12.84 -4.51l0.02 0.06 0.03 0.08 -0.05 -0.14zm-12.52 5.49l-0.37 -1.12 12.94 -4.22 0.37 1.12 0.04 0.12 -12.98 4.1zm12.94 -4.22l0.02 0.05 0.02 0.07 -0.04 -0.12zm-12.61 5.3l-0.37 -1.2 13.01 -3.98 0.37 1.2 0.03 0.11 -13.05 3.87zm13.01 -3.98l0.02 0.06 0.02 0.05 -0.03 -0.11zm-12.68 5.14l-0.37 -1.28 13.08 -3.76 0.37 1.28 0.03 0.1 -13.11 3.66zm13.08 -3.76l0.03 0.1 -0 -0.02 -0.02 -0.08zm-12.74 5.01l-0.37 -1.35 13.13 -3.56 0.37 1.35 0.02 0.08 -13.15 3.48zm13.13 -3.56l0.01 0.02 0.01 0.05 -0.02 -0.08zm-12.79 4.9l-0.37 -1.42 13.17 -3.41 0.37 1.42 0.02 0.08 -13.19 3.33zm13.17 -3.41l0.01 0.04 0.01 0.04 -0.02 -0.08zm-12.83 4.82l-0.37 -1.49 13.21 -3.26 0.37 1.49 0.02 0.07 -13.23 3.19zm13.21 -3.26l0 0.02 0.01 0.05 -0.02 -0.07zm-12.86 4.74l-0.37 -1.55 13.24 -3.12 0.37 1.55 0.01 0.06 -13.26 3.06zm13.24 -3.12l0.01 0.04 0.01 0.03 -0.01 -0.06zm-12.89 4.68l-0.37 -1.62 13.27 -3 0.37 1.62 0.01 0.05 -13.28 2.95zm13.27 -3l0.01 0.05 0 0 -0.01 -0.05zm-12.92 4.63l-0.37 -1.68 13.29 -2.91 0.37 1.68 0.01 0.05 -13.3 2.86zm13.29 -2.91l0.01 0.05 -0.02 -0.08 0.01 0.03zm-12.94 4.59l-0.37 -1.74 13.31 -2.81 0.37 1.74 0.01 0.04 -13.32 2.77zm13.31 -2.81l0.01 0.06 -0 -0.02 -0.01 -0.04zm-12.96 4.56l-0.37 -1.79 13.33 -2.72 0.37 1.79 0.01 0.03 -13.34 2.69zm13.33 -2.72l0.01 0.03 -0.02 -0.09 0.01 0.06zm-12.97 4.54l-0.37 -1.84 13.34 -2.66 0.37 1.84 0.01 0.04 -13.35 2.62zm13.34 -2.66l0.01 0.04 0.01 0.03 -0.01 -0.07zm-12.99 4.51l-0.37 -1.89 13.36 -2.58 0.37 1.89 0.01 0.03 -13.37 2.55zm13.36 -2.58l0.01 0.03 -0.01 -0.06 0.01 0.03zm-13 4.49l-0.37 -1.94 13.37 -2.52 0.37 1.94 0.01 0.03 -13.38 2.49zm13.37 -2.52l0.01 0.03 0.01 0.04 -0.01 -0.07zm-13.01 4.48l-0.37 -1.99 13.38 -2.47 0.37 1.99 0 0.02 -13.39 2.45zm13.38 -2.47l0 0.02 0 0.01 -0 -0.03zm-13.02 4.47l-0.37 -2.03 13.39 -2.43 0.37 2.03 0 0.03 -13.39 2.4zm13.39 -2.43l0 0.03 -0.02 -0.1 0.01 0.07zm-13.03 4.46l-0.37 -2.07 13.4 -2.37 0.37 2.07 0 0.02 -13.4 2.35zm13.4 -2.37l0 0.02 -0 -0.02 0 0zm-13.04 4.46l-0.37 -2.1 13.41 -2.34 0.37 2.1 0 0.01 -13.41 2.32zm13.41 -2.34l0 0.01 0.04 0.23 -0.04 -0.25zm-13.04 4.46l-0.37 -2.13 13.41 -2.31 0.37 2.13 0 0.02 -13.41 2.29zm13.41 -2.31l0 0.02 -0.03 -0.15 0.02 0.13zm-13.05 4.45l-0.37 -2.16 13.42 -2.28 0.37 2.16 0 0.02 -13.42 2.26zm13.42 -2.28l0 0.02 0 0.03 -0.01 -0.04zm-13.05 4.45l-0.37 -2.19 13.42 -2.24 0.37 2.19 0 0.01 -13.42 2.23zm13.42 -2.24l0 0.01 -0.01 -0.09 0.01 0.08zm-13.06 4.45l-0.37 -2.21 13.43 -2.22 0.37 2.21 0 0.01 -13.43 2.21zm13.43 -2.22l0 0.02 -0 -0.01 -0 -0.01zm-13.06 4.45l-0.37 -2.23 13.43 -2.2 0.37 2.23 0 0.01 -13.43 2.19zm13.43 -2.2l0 0.03 -0 -0.02 -0 -0.01zm-13.06 4.45l-0.37 -2.25 13.43 -2.19 0.37 2.25 0 0 -13.43 2.18zm0.37 2.26l-0.37 -2.27 13.43 -2.18 0.37 2.27 0 0.01 -13.43 2.17zm13.43 -2.18l0 0.01 0.04 0.24 -0.04 -0.26zm-13.07 4.45l-0.37 -2.28 13.44 -2.16 0.37 2.28 0 0 -13.44 2.16zm0.37 2.28l-0.37 -2.28 13.44 -2.15 0.37 2.28 0 0 -13.44 2.15zm0.37 2.29l-0.37 -2.29 13.44 -2.15 0.37 2.29 -13.44 2.15 0 -0zm0.37 2.29l-0.37 -2.29 13.44 -2.15 0.37 2.29 0 0 -13.44 2.15zm0.36 2.29l-0.37 -2.29 13.44 -2.14 0.37 2.29 -13.44 2.15 -0 -0zm0.37 2.29l-0.37 -2.29 13.44 -2.15 0.37 2.29 -13.44 2.15 -0 -0zm0.37 2.29l-0.37 -2.28 13.44 -2.16 0.37 2.28 -13.44 2.16 -0 -0zm0.37 2.28l-0.37 -2.27 13.43 -2.17 0.37 2.27 -13.43 2.17 0 -0zm0.37 2.26l-0.37 -2.26 13.43 -2.17 0.37 2.26 -13.43 2.18 -0 -0.01zm0 0.01l-0 -0.01 -0.04 -0.23 0.04 0.24zm0.37 2.25l-0.37 -2.25 13.43 -2.19 0.37 2.25 -13.43 2.2 -0 -0.01zm0 0.01l-0 -0.01 -0 -0.02 0 0.03zm0.37 2.23l-0.37 -2.23 13.43 -2.21 0.37 2.23 -13.43 2.22 -0 -0.01zm0 0.01l-0 -0.01 -0.04 -0.22 0.04 0.23zm0.37 2.21l-0.37 -2.21 13.42 -2.23 0.37 2.21 -13.42 2.24 -0 -0.01zm0 0.01l-0 -0.01 0.04 0.23 -0.04 -0.22zm0.37 2.19l-0.37 -2.19 13.42 -2.25 0.37 2.19 -13.42 2.26 -0 -0.01zm0 0.01l-0 -0.01 -0.03 -0.2 0.03 0.21zm0.37 2.16l-0.37 -2.16 13.42 -2.27 0.37 2.16 -13.42 2.28 -0 -0.02zm0 0.02l-0 -0.02 0.03 0.18 -0.03 -0.16zm0.37 2.14l-0.37 -2.14 13.41 -2.3 0.37 2.14 -13.41 2.32 -0 -0.02zm0 0.02l-0 -0.02 0 -0 0 0.02zm0.37 2.11l-0.37 -2.11 13.41 -2.33 0.37 2.11 -13.4 2.35 -0 -0.02zm0 0.02l-0 -0.02 -0.03 -0.16 0.03 0.17zm0.37 2.08l-0.37 -2.08 13.4 -2.36 0.37 2.08 -13.4 2.38 -0 -0.02zm0 0.02l-0 -0.02 -0 -0.02 0.01 0.04zm0.37 2.04l-0.37 -2.04 13.39 -2.4 0.37 2.04 -13.39 2.42 -0 -0.02zm0 0.02l-0 -0.02 0.03 0.14 -0.02 -0.12zm0.37 2.01l-0.37 -2.01 13.39 -2.44 0.37 2.01 -13.38 2.47 -0.01 -0.03zm0.01 0.03l-0.01 -0.04 0 0.02 0.01 0.03zm0.37 1.97l-0.37 -1.97 13.38 -2.5 0.37 1.97 -13.37 2.52 -0 -0.02zm0 0.02l-0 -0.02 -0.02 -0.12 0.03 0.14zm0.37 1.93l-0.37 -1.93 13.37 -2.54 0.37 1.93 -13.36 2.56 -0 -0.03zm0 0.03l-0 -0.03 0.03 0.15 -0.02 -0.12zm0.37 1.89l-0.37 -1.89 13.36 -2.59 0.37 1.89 -13.35 2.62 -0.01 -0.03zm0.01 0.03l-0.01 -0.03 -0.02 -0.1 0.03 0.13zm0.37 1.84l-0.37 -1.84 13.35 -2.65 0.37 1.84 -13.34 2.68 -0.01 -0.03zm0.01 0.03l-0.01 -0.03 0.01 0.05 -0 -0.02zm0.37 1.8l-0.37 -1.8 13.33 -2.72 0.37 1.8 -13.33 2.75 -0.01 -0.04zm0.01 0.04l-0.01 -0.04 0.02 0.09 -0.01 -0.05zm0.37 1.75l-0.37 -1.75 13.32 -2.79 0.37 1.75 -13.31 2.83 -0.01 -0.04zm0.01 0.04l-0.01 -0.04 -0.01 -0.03 0.01 0.07zm0.37 1.7l-0.37 -1.7 13.3 -2.87 0.37 1.7 -13.29 2.9 -0.01 -0.03zm0.01 0.03l-0.01 -0.03 0.01 0.02 0 0.01zm0.37 1.65l-0.37 -1.65 13.29 -2.94 0.37 1.65 -13.28 2.99 -0.01 -0.05zm0.01 0.05l-0.01 -0.05 -0 -0.01 0.01 0.06zm0.37 1.6l-0.37 -1.6 13.26 -3.04 0.37 1.6 -13.25 3.09 -0.01 -0.05zm0.01 0.05l-0.01 -0.05 0 0.01 0.01 0.04zm0.37 1.55l-0.37 -1.55 13.24 -3.14 0.37 1.55 -13.23 3.19 -0.01 -0.05zm0.01 0.05l-0.01 -0.05 0 0.02 0.01 0.03zm0.37 1.49l-0.37 -1.49 13.22 -3.24 0.37 1.49 -13.2 3.3 -0.01 -0.06zm0.01 0.06l0 0.01 -0.02 -0.07 0.01 0.06zm0.37 1.44l-0.37 -1.44 13.19 -3.35 0.37 1.44 -13.17 3.42 -0.02 -0.07zm0.02 0.07l-0.01 -0.04 -0.01 -0.02 0.02 0.07zm0.37 1.38l-0.37 -1.38 13.15 -3.49 0.37 1.38 -13.13 3.56 -0.02 -0.08zm0.02 0.08l-0 -0.01 -0.02 -0.06 0.02 0.08zm0.37 1.32l-0.37 -1.32 13.11 -3.64 0.37 1.32 -13.09 3.71 -0.02 -0.07zm0.02 0.07l-0.02 -0.07 -0 -0.01 0.02 0.08zm0.37 1.27l-0.37 -1.27 13.07 -3.78 0.37 1.27 -13.05 3.86 -0.02 -0.08zm0.02 0.08l-0.01 -0.03 -0.01 -0.04 0.02 0.08zm0.37 1.21l-0.37 -1.21 13.02 -3.94 0.37 1.21 -12.99 4.04 -0.03 -0.1zm0.03 0.1l-0.01 -0.02 -0.03 -0.08 0.03 0.1zm0.37 1.15l-0.37 -1.15 12.96 -4.14 0.37 1.15 -12.93 4.25 -0.03 -0.1zm0.03 0.1l-0.02 -0.05 -0.02 -0.05 0.03 0.1zm0.37 1.09l-0.37 -1.09 12.89 -4.35 0.37 1.09 -12.86 4.46 -0.04 -0.11zm0.04 0.11l-0.02 -0.06 -0.02 -0.06 0.04 0.11zm0.37 1.03l-0.37 -1.03 12.82 -4.57 0.37 1.03 -12.77 4.7 -0.05 -0.13zm0.05 0.13l-0.03 -0.08 -0.02 -0.05 0.05 0.13zm0.37 0.97l-0.37 -0.97 12.72 -4.83 0.37 0.97 -12.67 4.96 -0.05 -0.13zm0.05 0.13l-0.02 -0.05 -0.03 -0.08 0.05 0.13zm0.37 0.91l-0.37 -0.91 12.62 -5.09 0.37 0.91 -12.55 5.26 -0.07 -0.17zm0.07 0.17l-0.05 -0.11 -0.02 -0.06 0.07 0.17zm0.37 0.84l-0.37 -0.84 12.48 -5.43 0.37 0.84 -12.4 5.6 -0.08 -0.17zm0.08 0.17l-0.03 -0.07 -0.04 -0.1 0.08 0.17zm0.37 0.78l-0.37 -0.78 12.32 -5.77 0.37 0.78 -12.23 5.97 -0.1 -0.2zm0.1 0.2l-0.05 -0.1 -0.05 -0.1 0.1 0.2zm0.37 0.72l-0.37 -0.72 12.13 -6.17 0.37 0.72 -12.01 6.38 -0.12 -0.22zm0.12 0.22l-0.06 -0.11 -0.06 -0.11 0.12 0.22zm0.37 0.66l-0.37 -0.66 11.9 -6.6 0.37 0.66 -11.75 6.85 -0.15 -0.25zm0.15 0.25l-0.07 -0.12 -0.07 -0.13 0.15 0.25zm0.37 0.6l-0.37 -0.6 11.6 -7.11 0.37 0.6 -11.41 7.4 -0.19 -0.3zm0.19 0.3l-0.1 -0.15 -0.09 -0.15 0.19 0.3zm0.37 0.54l-0.37 -0.54 11.22 -7.7 0.37 0.54 -11 8 -0.22 -0.3zm0.22 0.3l-0.11 -0.14 -0.11 -0.16 0.22 0.3zm0.37 0.48l-0.37 -0.48 10.78 -8.3 0.37 0.48 -10.5 8.65 -0.29 -0.35zm0.29 0.35l-0.15 -0.17 -0.14 -0.18 0.29 0.35zm0.37 0.41l-0.37 -0.41 10.21 -9 0.37 0.41 -9.83 9.39 -0.38 -0.4zm0.38 0.4l-0.2 -0.19 -0.18 -0.21 0.38 0.4zm0.37 0.35l-0.37 -0.35 9.45 -9.79 0.37 0.35 -9 10.19 -0.45 -0.4zm0.45 0.4l-0.23 -0.19 -0.22 -0.21 0.45 0.4zm0.37 0.3l-0.37 -0.3 8.55 -10.59 0.37 0.3 -7.97 11.01 -0.58 -0.42zm0.58 0.42l-0.3 -0.19 -0.28 -0.22 0.58 0.42zm0.37 0.24l-0.37 -0.24 7.39 -11.42 0.37 0.24 -6.67 11.83 -0.72 -0.41zm0.72 0.41l-0.37 -0.18 -0.35 -0.22 0.72 0.41zm0.37 0.18l-0.37 -0.18 5.95 -12.24 0.37 0.18 -5.11 12.58 -0.84 -0.34zm0.84 0.34l-0.43 -0.14 -0.41 -0.2 0.84 0.34zm0.37 0.12l-0.37 -0.12 4.27 -12.92 0.37 0.12 -3.33 13.16 -0.94 -0.24zm0.94 0.24l-0.48 -0.09 -0.46 -0.15 0.94 0.24zm0.37 0.07l-0.37 -0.07 2.39 -13.4 0.37 0.07 -1.35 13.5 -1.04 -0.1zm1.04 0.1l-0.52 -0.01 -0.52 -0.09 1.04 0.1zm0.37 0.01l-0.37 -0.01 0.31 -13.6 0.37 0.01 0.69 13.55 -1 0.05zm1 -0.05l-0.49 0.06 -0.5 -0.01 1 -0.05zm0.37 -0.05l-0.37 0.05 -1.68 -13.5 0.37 -0.05 2.62 13.32 -0.93 0.18zm0.93 -0.18l-0.46 0.13 -0.47 0.06 0.93 -0.18zm0.37 -0.1l-0.37 0.1 -3.55 -13.14 0.37 -0.1 4.37 12.86 -0.82 0.28zm0.82 -0.28l-0.4 0.16 -0.42 0.11 0.82 -0.28zm0.37 -0.15l-0.37 0.15 -5.18 -12.58 0.37 -0.15 5.87 12.25 -0.69 0.33zm0.69 -0.33l-0.33 0.18 -0.36 0.15 0.69 -0.33zm21.71 -86.24l1.32 13.54 0.62 -0.09 0.99 -0.34 0.32 -0.21 -0.2 0.23 -0.48 0.72 -0.63 1.16 -0.7 1.54 -0.74 1.86 -0.75 2.14 -0.75 2.38 -0.75 2.59 -0.74 2.76 -0.74 2.91 -0.73 3.03 -0.72 3.13 -0.72 3.2 -0.71 3.24 -0.71 3.27 -0.71 3.27 -0.72 3.24 -0.72 3.2 -0.73 3.13 -0.74 3.05 -0.75 2.94 -0.77 2.82 -0.8 2.68 -0.83 2.53 -0.88 2.38 -0.95 2.23 -1.06 2.09 -1.27 1.98 -1.64 1.9 -2.31 1.72 -6.56 -11.92 -0.54 0.38 0.08 -0.11 0.4 -0.65 0.56 -1.11 0.64 -1.5 0.68 -1.84 0.69 -2.12 0.7 -2.36 0.7 -2.57 0.7 -2.75 0.7 -2.9 0.7 -3.03 0.7 -3.13 0.71 -3.2 0.71 -3.25 0.71 -3.28 0.72 -3.28 0.73 -3.27 0.75 -3.23 0.76 -3.17 0.78 -3.09 0.8 -2.99 0.83 -2.87 0.86 -2.74 0.91 -2.59 0.97 -2.44 1.05 -2.29 1.17 -2.15 1.38 -2.02 1.73 -1.9 2.31 -1.68 3.04 -1.11 0.62 -0.09zm-0.62 0.09l0.31 -0.06 0.31 -0.03 -0.62 0.09zm2.31 13.42l-0.37 0.04 -1.32 -13.54 0.37 -0.04 0.63 -0.03 0.69 13.58zm-1.32 -13.54l0.31 -0.03 0.32 -0 -0.63 0.03zm1.05 13.57l-0.37 0 -0.06 -13.61 0.37 -0 0.65 0.03 -0.6 13.58zm-0.06 -13.61l0.32 -0 0.33 0.03 -0.65 -0.03zm32.72 73.34l-8.23 10.84 -0.19 -0.15 -1.82 -1.76 -1.51 -1.92 -1.3 -2.05 -1.18 -2.19 -1.09 -2.34 -1.03 -2.48 -0.99 -2.62 -0.95 -2.74 -0.92 -2.85 -0.9 -2.95 -0.88 -3.03 -0.87 -3.09 -0.85 -3.13 -0.84 -3.15 -0.83 -3.16 -0.83 -3.14 -0.82 -3.1 -0.82 -3.04 -0.81 -2.96 -0.81 -2.86 -0.81 -2.73 -0.8 -2.58 -0.8 -2.4 -0.79 -2.19 -0.78 -1.95 -0.75 -1.67 -0.69 -1.35 -0.59 -0.98 -0.41 -0.55 -0.07 -0.08 0.5 0.29 1.16 0.29 1.25 -13.55 3.13 0.83 2.43 1.49 1.82 1.75 1.44 1.87 1.22 1.99 1.09 2.12 1.01 2.26 0.96 2.41 0.92 2.55 0.89 2.68 0.87 2.8 0.86 2.9 0.85 2.99 0.84 3.05 0.83 3.1 0.83 3.13 0.83 3.14 0.83 3.13 0.83 3.1 0.83 3.05 0.83 2.97 0.84 2.88 0.84 2.76 0.84 2.61 0.85 2.44 0.84 2.24 0.83 2.01 0.81 1.74 0.77 1.43 0.68 1.08 0.53 0.69 0.27 0.27 -0.19 -0.15zm-8.23 10.84l-0.1 -0.08 -0.09 -0.08 0.19 0.15zm0.37 0.28l-0.37 -0.28 8.23 -10.84 0.37 0.28 -7.99 11.01 -0.24 -0.17zm0.24 0.17l-0.12 -0.08 -0.12 -0.09 0.24 0.17zm0.37 0.25l-0.37 -0.25 7.75 -11.19 0.37 0.25 -7.52 11.34 -0.23 -0.16zm0.23 0.16l-0.12 -0.08 -0.11 -0.08 0.23 0.16zm0.37 0.23l-0.37 -0.23 7.28 -11.5 0.37 0.23 -7.03 11.65 -0.26 -0.15zm0.26 0.15l-0.14 -0.08 -0.12 -0.07 0.26 0.15zm0.37 0.21l-0.37 -0.21 6.77 -11.8 0.37 0.21 -6.48 11.96 -0.29 -0.16zm0.29 0.16l-0.14 -0.07 -0.16 -0.09 0.29 0.16zm0.37 0.19l-0.37 -0.19 6.19 -12.12 0.37 0.19 -5.88 12.27 -0.3 -0.15zm0.3 0.15l-0.15 -0.07 -0.15 -0.08 0.3 0.15zm0.37 0.16l-0.37 -0.16 5.58 -12.41 0.37 0.16 -5.29 12.53 -0.29 -0.12zm0.29 0.12l-0.15 -0.06 -0.14 -0.06 0.29 0.12zm0.37 0.15l-0.37 -0.15 5 -12.65 0.37 0.15 -4.65 12.78 -0.36 -0.13zm0.36 0.13l-0.19 -0.06 -0.17 -0.07 0.36 0.13zm0.37 0.12l-0.37 -0.12 4.29 -12.91 0.37 0.12 -3.94 13.02 -0.34 -0.1zm0.34 0.1l-0.17 -0.05 -0.17 -0.06 0.34 0.1zm0.37 0.1l-0.37 -0.1 3.6 -13.12 0.37 0.1 -3.24 13.21 -0.37 -0.09zm0.37 0.09l-0.18 -0.04 -0.18 -0.05 0.37 0.09zm0.37 0.08l-0.37 -0.08 2.87 -13.3 0.37 0.08 -2.5 13.37 -0.38 -0.07zm0.38 0.07l-0.19 -0.03 -0.18 -0.04 0.38 0.07zm0.37 0.06l-0.37 -0.06 2.12 -13.44 0.37 0.06 -1.75 13.49 -0.37 -0.05zm0.37 0.05l-0.18 -0.02 -0.19 -0.03 0.37 0.05zm0.37 0.04l-0.37 -0.04 1.37 -13.54 0.37 0.04 -0.98 13.57 -0.39 -0.03zm0.39 0.03l-0.2 -0.01 -0.19 -0.02 0.39 0.03zm0.37 0.02l-0.37 -0.02 0.59 -13.6 0.37 0.02 -0.25 13.6 -0.34 -0.01zm0.34 0.01l-0.17 0 -0.16 -0.01 0.34 0.01zm0.37 -0l-0.37 0 -0.09 -13.61 0.37 -0 0.49 13.59 -0.41 0.01zm0.41 -0.01l-0.2 0.01 -0.21 0 0.41 -0.01zm0.37 -0.02l-0.37 0.02 -0.9 -13.58 0.37 -0.02 1.21 13.55 -0.31 0.03zm0.31 -0.03l-0.16 0.02 -0.15 0.01 0.31 -0.03zm0.37 -0.04l-0.37 0.04 -1.51 -13.52 0.37 -0.04 1.89 13.47 -0.37 0.05zm0.37 -0.05l-0.19 0.03 -0.19 0.02 0.37 -0.05zm0.37 -0.06l-0.37 0.06 -2.26 -13.42 0.37 -0.06 2.57 13.36 -0.31 0.06zm0.31 -0.06l-0.15 0.03 -0.16 0.03 0.31 -0.06zm24.03 -34.55l0.36 13.6 0.21 -0.01 -0.29 0.03 -0.3 0.07 -0.33 0.11 -0.37 0.16 -0.42 0.22 -0.47 0.29 -0.51 0.37 -0.55 0.44 -0.58 0.52 -0.61 0.59 -0.63 0.65 -0.65 0.71 -0.67 0.77 -0.68 0.81 -0.69 0.85 -0.71 0.89 -0.72 0.91 -0.74 0.93 -0.75 0.95 -0.78 0.96 -0.8 0.96 -0.83 0.96 -0.86 0.95 -0.9 0.94 -0.95 0.92 -1 0.9 -1.07 0.86 -1.15 0.82 -1.24 0.75 -1.35 0.67 -1.46 0.56 -1.55 0.42 -2.87 -13.3 0.15 -0.04 0.21 -0.08 0.28 -0.14 0.36 -0.22 0.42 -0.3 0.48 -0.38 0.52 -0.47 0.56 -0.55 0.59 -0.62 0.62 -0.69 0.64 -0.75 0.66 -0.8 0.68 -0.85 0.7 -0.89 0.73 -0.92 0.75 -0.94 0.77 -0.96 0.79 -0.98 0.82 -0.98 0.86 -0.98 0.89 -0.98 0.93 -0.97 0.99 -0.95 1.04 -0.92 1.11 -0.89 1.18 -0.85 1.27 -0.79 1.36 -0.71 1.45 -0.61 1.55 -0.49 1.63 -0.35 1.69 -0.19 0.21 -0.01zm-0.21 0.01l0.11 -0.01 0.1 -0 -0.21 0.01zm0.94 13.58l-0.37 0.01 -0.36 -13.6 0.37 -0.01 0.25 -0 0.11 13.61zm-0.36 -13.6l0.13 -0 0.12 0 -0.25 0zm0.48 13.61l-0.37 -0 0.14 -13.61 0.37 0 0.24 0.01 -0.38 13.6zm0.14 -13.61l0.12 0 0.12 0.01 -0.24 -0.01zm-0.01 13.62l-0.37 -0.02 0.62 -13.59 0.37 0.02 0.23 0.01 -0.85 13.58zm0.62 -13.59l0.1 0 0.12 0.01 -0.23 -0.01zm-0.48 13.61l-0.37 -0.03 1.07 -13.56 0.37 0.03 0.22 0.02 -1.29 13.54zm1.07 -13.56l0.13 0.01 0.09 0.01 -0.22 -0.02zm-0.92 13.59l-0.37 -0.04 1.51 -13.52 0.37 0.04 0.24 0.03 -1.75 13.49zm1.51 -13.52l0.12 0.01 0.11 0.02 -0.24 -0.03zm-1.38 13.55l-0.37 -0.05 1.98 -13.46 0.37 0.05 0.2 0.03 -2.19 13.43zm1.98 -13.46l0.1 0.01 0.11 0.02 -0.2 -0.03zm29.44 20.93l-1.52 13.52 -0.15 -0.02 -1.7 -0.3 -1.64 -0.42 -1.57 -0.53 -1.49 -0.62 -1.42 -0.7 -1.34 -0.77 -1.27 -0.82 -1.2 -0.87 -1.15 -0.9 -1.09 -0.92 -1.04 -0.94 -0.99 -0.95 -0.95 -0.95 -0.92 -0.95 -0.89 -0.94 -0.86 -0.92 -0.83 -0.9 -0.81 -0.87 -0.79 -0.84 -0.77 -0.8 -0.75 -0.75 -0.73 -0.7 -0.7 -0.65 -0.68 -0.59 -0.65 -0.53 -0.62 -0.46 -0.59 -0.39 -0.56 -0.32 -0.52 -0.26 -0.5 -0.2 -0.47 -0.15 -0.47 -0.1 2.39 -13.4 1.6 0.36 1.53 0.48 1.45 0.58 1.38 0.67 1.29 0.74 1.22 0.8 1.15 0.84 1.09 0.87 1.04 0.9 0.99 0.91 0.95 0.92 0.92 0.93 0.89 0.93 0.86 0.92 0.84 0.91 0.82 0.89 0.81 0.87 0.79 0.84 0.78 0.8 0.77 0.77 0.75 0.72 0.74 0.67 0.73 0.62 0.71 0.56 0.7 0.5 0.68 0.44 0.67 0.38 0.65 0.32 0.64 0.27 0.63 0.21 0.64 0.16 0.66 0.11 -0.15 -0.02zm-1.52 13.52l-0.05 -0.01 -0.09 -0.01 0.15 0.02zm0.37 0.04l-0.37 -0.04 1.52 -13.52 0.37 0.04 -1.39 13.54 -0.13 -0.01zm0.13 0.01l-0.1 -0.01 -0.02 -0 0.13 0.01zm0.37 0.03l-0.37 -0.03 1.26 -13.55 0.37 0.03 -1.12 13.56 -0.14 -0.01zm0.14 0.01l-0.04 -0 -0.1 -0.01 0.14 0.01zm0.37 0.03l-0.37 -0.03 0.98 -13.57 0.37 0.03 -0.83 13.58 -0.15 -0.01zm0.15 0.01l-0.09 -0 -0.06 -0 0.15 0.01zm0.37 0.02l-0.37 -0.02 0.68 -13.59 0.37 0.02 -0.54 13.6 -0.14 -0.01zm0.14 0.01l-0.08 -0 -0.06 -0 0.14 0.01zm29.35 -21.83l-0.42 13.6 0.07 0 -0.61 0 -0.62 0.04 -0.64 0.07 -0.65 0.1 -0.67 0.13 -0.69 0.16 -0.71 0.19 -0.73 0.22 -0.75 0.25 -0.77 0.28 -0.79 0.3 -0.81 0.33 -0.83 0.35 -0.84 0.36 -0.86 0.38 -0.88 0.39 -0.9 0.4 -0.91 0.4 -0.93 0.41 -0.95 0.4 -0.97 0.4 -1 0.39 -1.02 0.38 -1.04 0.36 -1.07 0.34 -1.1 0.31 -1.13 0.27 -1.16 0.23 -1.2 0.19 -1.22 0.13 -1.25 0.07 -1.28 -0 0.39 -13.6 0.51 -0 0.53 -0.03 0.55 -0.06 0.58 -0.09 0.61 -0.12 0.64 -0.16 0.66 -0.19 0.69 -0.22 0.72 -0.25 0.74 -0.28 0.77 -0.3 0.8 -0.33 0.82 -0.35 0.84 -0.37 0.86 -0.38 0.88 -0.39 0.91 -0.4 0.93 -0.41 0.95 -0.41 0.98 -0.41 1 -0.4 1.03 -0.39 1.05 -0.38 1.08 -0.36 1.11 -0.34 1.14 -0.31 1.17 -0.27 1.2 -0.23 1.24 -0.19 1.27 -0.13 1.29 -0.07 1.32 -0.01 0.07 0zm-0.07 -0l0.07 0 -0.01 0 -0.06 -0zm0.01 13.61l-0.37 -0.01 0.42 -13.6 0.37 0.01 0.1 0 -0.52 13.6zm0.42 -13.6l0.05 0 0.05 0 -0.1 -0zm-0.16 13.61l-0.37 -0.02 0.62 -13.59 0.37 0.02 0.09 0 -0.71 13.59zm0.62 -13.59l0.03 0 0.05 0 -0.09 -0zm-0.34 13.61l-0.37 -0.02 0.79 -13.58 0.37 0.02 0.07 0 -0.86 13.58zm0.79 -13.58l0.01 0 0.06 0 -0.07 -0zm-0.49 13.61l-0.37 -0.03 0.93 -13.58 0.37 0.03 0.09 0.01 -1.01 13.57zm0.93 -13.58l0.07 0 0.02 0 -0.09 -0.01zm-0.65 13.6l-0.37 -0.03 1.1 -13.56 0.37 0.03 0.08 0.01 -1.18 13.56zm1.1 -13.56l0.02 0 0.07 0.01 -0.08 -0.01zm-0.81 13.59l-0.37 -0.03 1.26 -13.55 0.37 0.03 0.07 0.01 -1.34 13.54zm1.26 -13.55l0.07 0.01 -0.02 -0 -0.06 -0.01zm-0.97 13.58l-0.37 -0.04 1.41 -13.53 0.37 0.04 0.08 0.01 -1.49 13.53zm1.41 -13.53l0.07 0.01 0.01 0 -0.08 -0.01zm32.57 7.93l0.87 13.58 -0.04 0 -1.47 0.06 -1.44 0 -1.41 -0.05 -1.38 -0.09 -1.35 -0.14 -1.32 -0.18 -1.29 -0.22 -1.26 -0.25 -1.23 -0.28 -1.19 -0.3 -1.17 -0.32 -1.14 -0.34 -1.11 -0.35 -1.09 -0.36 -1.06 -0.37 -1.04 -0.37 -1.02 -0.37 -1 -0.37 -0.98 -0.36 -0.96 -0.36 -0.95 -0.35 -0.94 -0.33 -0.93 -0.32 -0.92 -0.3 -0.91 -0.28 -0.9 -0.27 -0.9 -0.25 -0.9 -0.22 -0.9 -0.2 -0.9 -0.17 -0.91 -0.15 -0.92 -0.12 1.57 -13.52 1.34 0.18 1.31 0.21 1.28 0.25 1.24 0.28 1.21 0.3 1.18 0.32 1.15 0.34 1.13 0.35 1.1 0.36 1.07 0.37 1.05 0.37 1.03 0.37 1.01 0.37 0.99 0.37 0.97 0.36 0.95 0.35 0.94 0.34 0.92 0.32 0.91 0.3 0.9 0.29 0.89 0.27 0.89 0.25 0.88 0.22 0.88 0.2 0.88 0.17 0.88 0.15 0.89 0.12 0.9 0.09 0.91 0.06 0.93 0.03 0.95 -0 0.98 -0.04 -0.04 0zm0.87 13.58l-0.04 0 0.09 -0.01 -0.04 0zm0.37 -0.02l-0.37 0.02 -0.87 -13.58 0.37 -0.02 0.9 13.58 -0.03 0zm0.03 -0l-0.03 0 -0.07 0 0.1 -0.01zm0.37 -0.03l-0.37 0.03 -0.93 -13.58 0.37 -0.03 0.97 13.57 -0.04 0zm0.04 -0l-0.02 0 -0.02 0 0.04 -0zm0.37 -0.03l-0.37 0.03 -1.02 -13.57 0.37 -0.03 1.04 13.57 -0.03 0zm0.03 -0l-0.03 0 0.16 -0.01 -0.13 0.01zm0.37 -0.03l-0.37 0.03 -1.07 -13.57 0.37 -0.03 1.08 13.56 -0.01 0zm0.01 -0l-0.01 0 -0.25 0.02 0.26 -0.02zm0.37 -0.03l-0.37 0.03 -1.1 -13.56 0.37 -0.03 1.15 13.56 -0.06 0zm0.06 -0l-0.06 0 0.06 -0.01 -0.01 0zm0.37 -0.03l-0.37 0.03 -1.21 -13.55 0.37 -0.03 1.21 13.55zm-1.21 -13.55c3.74,-0.33 7.05,2.43 7.38,6.17 0.33,3.74 -2.43,7.05 -6.17,7.38l-1.21 -13.55z"/>
    </g>
    <g>
     <path fill="#B3B3B3" d="M295.11 355.66c-6.83,5.35 -14.28,9.94 -22.23,13.64 2.54,-5.25 4.53,-11.96 6.32,-19.29 4.08,-2.64 7.96,-5.57 11.6,-8.76 1.36,5 2.77,9.89 4.31,14.41zm-46.5 21.76c-7.7,1.64 -15.69,2.51 -23.89,2.51 -9.78,0 -19.27,-1.23 -28.33,-3.54 6.1,-1.65 10.45,-5.77 13.67,-11.38 4.77,0.7 9.66,1.06 14.63,1.06 5.43,0 10.75,-0.43 15.95,-1.26l0.06 0.12c0.42,1.11 0.86,2.18 1.33,3.27l0.51 1.06 0.14 0.37 0.37 0.72 0.23 0.37 0.6 1.08 0.69 1.11 0.37 0.54 1.25 1.64 0.37 0.41 1.44 1.41 0.62 0.5zm-23.92 -212.31c55.49,0 100.48,44.99 100.48,100.48 0,19.79 -5.72,38.24 -15.6,53.79 0.68,2.49 1.34,5.01 2.01,7.54 0.87,3.29 1.74,6.61 2.6,9.78 15.48,-19.49 24.73,-44.15 24.73,-70.97 0,-63.06 -51.12,-114.19 -114.19,-114.19l-0.03 13.55 0 0z"/>
    </g>
    <path id="_3979f2be-e166-4043-b147-6c633d94aa2b.svg_1" fill="#B3B3B3" fill-rule="nonzero" d="M447.2 170.06c-4.39,6.27 -4.86,6.65 -9.71,12.37 -6.58,7.88 -13.37,15.22 -20.43,22.8 -1.15,1.44 -2.53,2.6 -4.15,3.48 -2.65,1.05 -16.38,-0.15 -26.55,-1.04 -14.74,-1.29 -30.25,-2.65 -38.6,-0.82 -4.16,0.66 -7.68,2.91 -9.77,6.32 -3.82,5.56 -4.41,14.23 -2.13,26.21 -5.7,-3.07 -11.02,-5.06 -16.03,-6.21 -13.49,-39.59 -50.98,-68.07 -95.14,-68.07 -8.78,0 -17.3,1.13 -25.41,3.25 3.11,-8.33 6.29,-16.83 10.08,-24.83 11.7,-25.36 26.56,-48.9 44.32,-70.4 3.45,-4.31 7.13,-8.34 10.56,-12.39 14.24,-16.43 29.06,-33.57 35.36,-55.81 1.44,-4.74 2.48,-4.91 2.48,-4.91 0.76,0.07 1.25,0.37 1.73,0.66 7.8,4.52 13.17,13.45 15.03,24.37 1.7,9.88 0.57,19.77 -0.98,31.67 -0.13,1.53 0.75,3.14 1.98,3.76l4.42 2.18c10.57,5.02 21.63,10.34 31.95,15.35 3.19,1.56 6.13,3.1 8.26,5.08 3.55,3.38 5.13,8.65 6.96,14.18 3.01,10.82 -0.2,11.03 -5.95,21.48l68.55 38.81c1.4,-0.06 15.24,4.16 15.42,7.12 -0.29,1.68 -1.1,3.97 -2.25,5.4z"/>
    <path id="_3979f2be-e166-4043-b147-6c633d94aa2b.svg_2" fill="#B3B3B3" fill-rule="nonzero" d="M358.12 67.92c7.25,-27.28 -5.23,-42.72 -13.1,-49.3 -0.95,-0.85 -2.47,-0.98 -3.58,-0.06 -0.83,0.7 -1.15,1.44 -1.24,2.45 0.87,19.29 -12.41,33.49 -12.41,33.49l30.33 13.41z"/>
   </g>
  </g>
 </g>
</svg>
