<?xml version="1.0" encoding="UTF-8"?>
<!DOCTYPE svg PUBLIC "-//W3C//DTD SVG 1.0//EN" "http://www.w3.org/TR/2001/REC-SVG-20010904/DTD/svg10.dtd">
<!-- Creator: CorelDRAW -->
<svg xmlns="http://www.w3.org/2000/svg" xml:space="preserve" width="2.34983in" height="1.9685in" version="1.0" shape-rendering="geometricPrecision" text-rendering="geometricPrecision" image-rendering="optimizeQuality" fill-rule="evenodd" clip-rule="evenodd"
viewBox="0 0 234.91 196.79"
 xmlns:xlink="http://www.w3.org/1999/xlink"
 xmlns:xodm="http://www.corel.com/coreldraw/odm/2003">
 <g id="Layer_x0020_1">
  <metadata id="CorelCorpID_0Corel-Layer"/>
  <g id="_1375672396448">
   <g>
    <path id="_3979f2be-e166-4043-b147-6c633d94aa2b.svg" fill="black" fill-rule="nonzero" d="M106.73 78.17c0.55,-1.3 1.11,-2.58 1.71,-3.83 6.06,-13.13 13.76,-25.33 22.96,-36.46 1.79,-2.23 3.69,-4.32 5.47,-6.42 7.38,-8.51 15.05,-17.39 18.32,-28.91 0.75,-2.46 1.28,-2.54 1.28,-2.54 0.39,0.03 0.65,0.19 0.9,0.34 4.04,2.34 6.82,6.96 7.78,12.62 0.88,5.12 0.3,10.24 -0.51,16.41 -0.07,0.79 0.39,1.63 1.02,1.95l2.29 1.13c5.48,2.6 11.21,5.36 16.55,7.95 1.65,0.81 3.18,1.6 4.28,2.63 1.84,1.75 2.66,4.48 3.6,7.35 1.56,5.61 -0.1,5.71 -3.08,11.13l35.51 20.1c0.72,-0.03 7.9,2.16 7.99,3.69 -0.15,0.87 -0.57,2.05 -1.16,2.8 -2.27,3.25 -2.52,3.44 -5.03,6.41 -3.41,4.08 -6.92,7.88 -10.58,11.81 -0.6,0.74 -1.31,1.34 -2.15,1.8 -1.37,0.54 -8.48,-0.08 -13.75,-0.54 -7.64,-0.67 -15.67,-1.37 -19.99,-0.42 -2.15,0.34 -3.98,1.51 -5.06,3.27 -1.98,2.88 -2.29,7.37 -1.1,13.58 1.06,4.45 1.58,9.08 1.58,13.65 0,13.89 -4.79,26.66 -12.81,36.76 -0.45,-1.64 -0.9,-3.36 -1.35,-5.07 -0.35,-1.31 -0.69,-2.62 -1.04,-3.91 5.12,-8.06 8.08,-17.61 8.08,-27.86 0,-24.18 -16.49,-44.51 -38.84,-50.36 -4.22,-1.1 -8.64,-2.16 -13.21,-2.16 -3.3,0 -6.72,0.26 -9.84,0.84l0.19 -6.6 0 -1.12zm46.13 106.04c-3.54,2.77 -7.4,5.15 -11.51,7.06 1.32,-2.72 2.35,-6.2 3.27,-9.99 2.11,-1.37 4.12,-2.88 6.01,-4.54 0.7,2.59 1.43,5.12 2.23,7.46zm-24.09 11.27c-3.99,0.85 -8.13,1.3 -12.37,1.3 -5.07,0 -9.98,-0.64 -14.67,-1.84 3.16,-0.86 5.41,-2.99 7.08,-5.89 2.47,0.36 5,0.55 7.58,0.55 2.81,0 5.57,-0.23 8.26,-0.65l0.03 0.06c0.22,0.58 0.44,1.13 0.69,1.7l0.26 0.55 0.07 0.19 0.19 0.37 0.12 0.19 0.31 0.56 0.36 0.57 0.19 0.28 0.65 0.85 0.19 0.21 0.75 0.73 0.32 0.26z"/>
   </g>
   <path id="_3979f2be-e166-4043-b147-6c633d94aa2b.svg_0" fill="black" fill-rule="nonzero" d="M185.5 35.18c3.76,-14.13 -2.71,-22.13 -6.79,-25.54 -0.49,-0.44 -1.28,-0.51 -1.85,-0.03 -0.43,0.36 -0.6,0.74 -0.64,1.27 0.45,9.99 -6.43,17.35 -6.43,17.35l15.71 6.95z"/>
   <path id="_3979f2be-e166-4043-b147-6c633d94aa2b.svg_1" fill="black" fill-rule="nonzero" d="M47.24 35.18l0 0c-3.76,-14.13 2.71,-22.13 6.79,-25.53 0.49,-0.44 1.28,-0.51 1.85,-0.03 0.43,0.36 0.6,0.74 0.64,1.27 -0.45,9.99 6.43,17.35 6.43,17.35l-15.71 6.95z"/>
   <path id="_3979f2be-e166-4043-b147-6c633d94aa2b.svg_2" fill="black" fill-rule="nonzero" d="M1.16 88.08c2.27,3.25 2.52,3.44 5.03,6.41 3.41,4.08 6.92,7.88 10.58,11.81 0.6,0.74 1.31,1.34 2.15,1.8 1.37,0.54 8.48,-0.08 13.75,-0.54 7.64,-0.67 15.67,-1.37 19.99,-0.42 2.15,0.34 3.98,1.51 5.06,3.27 1.98,2.88 2.26,7.49 1.08,13.69 2.93,-1.58 5.67,-2.61 8.25,-3.21 6.95,-20.57 26.41,-35.38 49.32,-35.38 4.56,0 8.99,0.59 13.21,1.69 -1.61,-4.32 -3.26,-8.73 -5.23,-12.88 -6.06,-13.13 -13.76,-25.33 -22.96,-36.46 -1.79,-2.23 -3.69,-4.32 -5.47,-6.42 -7.38,-8.51 -15.05,-17.39 -18.32,-28.91 -0.75,-2.46 -1.28,-2.54 -1.28,-2.54 -0.4,0.03 -0.65,0.19 -0.9,0.34 -4.04,2.34 -6.82,6.96 -7.78,12.62 -0.88,5.12 -0.3,10.24 0.51,16.41 0.07,0.79 -0.39,1.63 -1.02,1.95l-2.29 1.13c-5.48,2.6 -11.21,5.36 -16.55,7.95 -1.65,0.81 -3.18,1.6 -4.28,2.63 -1.84,1.75 -2.66,4.48 -3.6,7.35 -1.56,5.61 0.1,5.71 3.08,11.13l-35.51 20.1c-0.72,-0.03 -7.9,2.16 -7.99,3.69 0.15,0.87 0.57,2.05 1.16,2.8z"/>
   <g>
    <path fill="black" fill-rule="nonzero" d="M99.07 80.96c1.86,-0.58 3.84,0.45 4.42,2.31 0.58,1.86 -0.45,3.84 -2.31,4.42l-2.11 -6.72zm-34.77 56.68l-7.05 0 0 0 0.05 -2.49 0.15 -2.46 0.25 -2.43 0.35 -2.4 0.45 -2.37 0.54 -2.34 0.63 -2.3 0.72 -2.26 0.81 -2.22 0.89 -2.18 0.97 -2.13 1.06 -2.09 1.13 -2.04 1.21 -1.99 1.29 -1.94 1.36 -1.88 1.43 -1.82 1.5 -1.77 1.56 -1.71 1.63 -1.64 1.69 -1.58 1.75 -1.51 1.81 -1.45 1.87 -1.38 1.92 -1.31 1.97 -1.23 2.02 -1.16 2.07 -1.08 2.12 -1 2.16 -0.92 2.2 -0.84 2.24 -0.75 2.11 6.72 -1.98 0.67 -1.95 0.74 -1.91 0.81 -1.87 0.89 -1.83 0.95 -1.79 1.02 -1.74 1.09 -1.7 1.15 -1.65 1.22 -1.6 1.28 -1.55 1.34 -1.49 1.4 -1.44 1.45 -1.38 1.51 -1.32 1.56 -1.26 1.61 -1.2 1.66 -1.13 1.71 -1.07 1.75 -1 1.79 -0.93 1.84 -0.86 1.88 -0.78 1.92 -0.71 1.95 -0.63 1.99 -0.55 2.02 -0.47 2.06 -0.39 2.09 -0.31 2.12 -0.22 2.14 -0.13 2.17 -0.05 2.2 0 0zm28.28 46.47l-2.77 6.48 -0.21 -0.1 -1.84 -0.98 -1.79 -1.04 -1.75 -1.09 -1.7 -1.15 -1.66 -1.2 -1.61 -1.26 -1.56 -1.31 -1.51 -1.36 -1.46 -1.41 -1.41 -1.45 -1.36 -1.5 -1.3 -1.54 -1.25 -1.58 -1.19 -1.62 -1.14 -1.66 -1.08 -1.7 -1.02 -1.74 -0.96 -1.77 -0.9 -1.8 -0.84 -1.83 -0.78 -1.86 -0.72 -1.89 -0.65 -1.92 -0.59 -1.94 -0.52 -1.97 -0.46 -1.99 -0.39 -2.01 -0.32 -2.03 -0.25 -2.04 -0.18 -2.06 -0.11 -2.07 -0.04 -2.09 7.05 0 0.03 1.84 0.1 1.83 0.16 1.82 0.22 1.8 0.28 1.79 0.34 1.77 0.4 1.75 0.46 1.73 0.52 1.71 0.58 1.69 0.63 1.67 0.69 1.64 0.74 1.62 0.8 1.59 0.85 1.56 0.9 1.53 0.95 1.5 1 1.46 1.05 1.43 1.1 1.39 1.15 1.36 1.2 1.32 1.24 1.28 1.29 1.24 1.33 1.2 1.38 1.15 1.42 1.11 1.46 1.06 1.5 1.01 1.54 0.96 1.58 0.91 1.62 0.86 -0.21 -0.1zm-2.77 6.48l-0.11 -0.05 -0.1 -0.05 0.21 0.1zm13.41 -19.5l6.98 0.99 -0 0.01 -0.11 0.83 -0.11 0.86 -0.11 0.89 -0.11 0.91 -0.11 0.93 -0.12 0.94 -0.13 0.95 -0.15 0.96 -0.17 0.96 -0.19 0.96 -0.22 0.96 -0.25 0.95 -0.29 0.94 -0.33 0.93 -0.38 0.92 -0.44 0.9 -0.52 0.88 -0.6 0.85 -0.69 0.81 -0.79 0.75 -0.89 0.67 -0.98 0.57 -1.06 0.46 -1.13 0.33 -1.18 0.2 -1.22 0.08 -1.25 -0.04 -1.28 -0.16 -1.32 -0.27 -1.36 -0.37 -1.41 -0.48 -1.47 -0.59 2.77 -6.48 1.15 0.46 1.04 0.35 0.93 0.25 0.82 0.17 0.71 0.09 0.6 0.02 0.5 -0.03 0.41 -0.07 0.33 -0.1 0.28 -0.12 0.25 -0.14 0.23 -0.18 0.23 -0.22 0.24 -0.28 0.24 -0.34 0.24 -0.41 0.23 -0.48 0.22 -0.54 0.21 -0.6 0.2 -0.66 0.18 -0.71 0.17 -0.75 0.15 -0.79 0.14 -0.82 0.13 -0.85 0.12 -0.87 0.11 -0.89 0.11 -0.9 0.11 -0.91 0.11 -0.91 0.12 -0.91 0.13 -0.91 -0 0.01zm6.98 0.99l-0 0.01 -0.01 0.06 0.01 -0.07zm0.19 -1.33l-0.19 1.33 -6.98 -0.99 0.19 -1.33 6.98 0.98 -0 0.01zm0 -0.01l-0 0.01 0.02 -0.16 -0.02 0.16zm0.19 -1.35l-0.19 1.35 -6.98 -0.98 0.19 -1.35 6.98 0.97 -0 0.01zm0 -0.01l-0 0.01 -0.01 0.05 0.01 -0.05zm0.19 -1.37l-0.19 1.37 -6.98 -0.97 0.19 -1.37 6.98 0.96 -0 0zm0 -0l-0 0 -0.02 0.12 0.02 -0.12zm0.19 -1.39l-0.19 1.39 -6.98 -0.96 0.19 -1.39 6.98 0.95 -0 0.01zm0 -0.01l-0 0.01 0 -0.01 0 -0.01zm0.19 -1.4l-0.19 1.4 -6.98 -0.95 0.19 -1.4 6.98 0.94 -0 0zm0.19 -1.41l-0.19 1.41 -6.99 -0.94 0.19 -1.41 6.99 0.94 -0 0zm0.19 -1.42l-0.19 1.42 -6.99 -0.94 0.19 -1.42 6.99 0.94 0 0zm0.19 -1.42l-0.19 1.42 -6.99 -0.93 0.19 -1.42 6.99 0.93 -0 0zm0.19 -1.42l-0.19 1.42 -6.99 -0.93 0.19 -1.42 6.99 0.93 0 0zm0.19 -1.42l-0.19 1.42 -6.99 -0.93 0.19 -1.42 0 -0 6.99 0.93zm0.19 -1.42l-0.19 1.42 -6.99 -0.93 0.19 -1.42 0 -0 6.99 0.94zm0.19 -1.41l-0.19 1.41 -6.99 -0.94 0.19 -1.41 0 -0 6.99 0.94zm0.19 -1.41l-0.19 1.41 -6.99 -0.94 0.19 -1.41 0 -0 6.98 0.94zm0.19 -1.39l-0.19 1.4 -6.98 -0.95 0.19 -1.4 0 -0 6.98 0.95zm-6.98 -0.95l0 -0 -0.02 0.15 0.02 -0.14zm7.17 -0.43l-0.19 1.39 -6.98 -0.96 0.19 -1.39 0 -0.01 6.98 0.96zm-6.98 -0.96l0 -0.01 0.01 -0.04 -0.01 0.05zm7.17 -0.41l-0.19 1.37 -6.98 -0.97 0.19 -1.37 0 -0 6.98 0.97zm-6.98 -0.97l0 -0 0.03 -0.19 -0.03 0.2zm7.17 -0.38l-0.19 1.35 -6.98 -0.98 0.19 -1.35 0 -0.01 6.98 0.98zm-6.98 -0.98l0 -0.01 -0 0.01 0 -0zm7.17 -0.35l-0.19 1.34 -6.98 -0.99 0.19 -1.34 0 -0.01 6.98 1zm-6.98 -0.99l0 -0.01 -0.02 0.11 0.01 -0.1zm7.17 -0.32l-0.19 1.31 -6.98 -1.01 0.19 -1.31 0 -0.01 6.97 1.02zm-6.98 -1.01l-0 0 0 -0.01 -0 0.01zm7.16 -0.27l-0.19 1.29 -6.97 -1.03 0.19 -1.29 0 -0.01 6.97 1.04zm-6.97 -1.03l0 -0.01 0.02 -0.14 -0.02 0.15zm7.16 -0.23l-0.19 1.27 -6.97 -1.04 0.19 -1.27 0 -0.01 6.97 1.05zm-6.97 -1.04l0 -0.01 -0.01 0.1 0.01 -0.09zm7.16 -0.19l-0.19 1.24 -6.97 -1.07 0.19 -1.24 0 -0.01 6.97 1.08zm-6.97 -1.07l0 -0.01 0.01 -0.05 -0.01 0.06zm7.15 -0.14l-0.19 1.21 -6.96 -1.09 0.19 -1.21 0 -0.01 6.96 1.1zm-6.96 -1.09l0 -0.01 -0 0.02 0 -0.01zm7.15 -0.08l-0.19 1.18 -6.96 -1.12 0.19 -1.18 0 -0.02 6.96 1.13zm-6.96 -1.12l-0 0 0 -0.02 -0 0.02zm7.15 -0.02l-0.19 1.15 -6.95 -1.15 0.19 -1.15 0 -0.01 6.95 1.16zm-6.95 -1.15l0 -0.01 0 -0.02 -0.01 0.04zm7.14 0.05l-0.19 1.12 -6.95 -1.18 0.19 -1.12 0 -0.02 6.95 1.2zm-6.95 -1.18l0 -0.02 0 -0.01 -0.01 0.03zm7.14 0.12l-0.19 1.08 -6.94 -1.22 0.19 -1.08 0 -0.02 6.94 1.24zm-6.94 -1.22l0 -0.02 -0.01 0.06 0.01 -0.04zm7.13 0.19l-0.19 1.04 -6.93 -1.26 0.19 -1.04 0 -0.02 6.93 1.28zm-6.93 -1.26l0 -0.02 0 -0.02 -0.01 0.05zm7.12 0.28l-0.19 1.01 -6.93 -1.31 0.19 -1.01 0 -0.02 6.92 1.33zm-6.93 -1.31l-0 0.01 0.01 -0.04 -0 0.02zm7.11 0.36l-0.19 0.97 -6.92 -1.36 0.19 -0.97 0.01 -0.03 6.91 1.38zm-6.92 -1.36l0.01 -0.03 -0 0 -0 0.02zm7.1 0.46l-0.19 0.93 -6.91 -1.41 0.19 -0.93 0.01 -0.03 6.9 1.44zm-6.91 -1.41l0.01 -0.03 -0.01 0.04 0 -0.01zm7.09 0.56l-0.19 0.89 -6.89 -1.48 0.19 -0.89 0.01 -0.04 6.88 1.51zm-6.89 -1.48l0.01 -0.04 -0 0.01 -0.01 0.02zm7.07 0.67l-0.19 0.84 -6.88 -1.55 0.19 -0.84 0.01 -0.04 6.87 1.59zm-6.88 -1.55l0.01 -0.04 0 -0.01 -0.01 0.05zm7.06 0.79l-0.19 0.8 -6.86 -1.63 0.19 -0.8 0.01 -0.04 6.85 1.68zm-6.86 -1.63l0 -0.02 0.01 -0.02 -0.01 0.04zm7.04 0.92l-0.19 0.75 -6.84 -1.72 0.19 -0.75 0.01 -0.05 6.82 1.77zm-6.84 -1.72l0 -0.02 0.01 -0.04 -0.01 0.05zm7.01 1.07l-0.19 0.71 -6.81 -1.82 0.19 -0.71 0.02 -0.06 6.79 1.89zm-6.81 -1.82l0.01 -0.03 0.01 -0.03 -0.02 0.06zm6.98 1.22l-0.19 0.66 -6.77 -1.95 0.19 -0.66 0.02 -0.07 6.75 2.01zm-6.77 -1.95l0.01 -0.03 0.01 -0.04 -0.02 0.07zm6.94 1.4l-0.19 0.61 -6.73 -2.08 0.19 -0.61 0.03 -0.08 6.71 2.16zm-6.73 -2.08l0.01 -0.04 0.01 -0.04 -0.03 0.08zm6.9 1.6l-0.19 0.57 -6.68 -2.24 0.19 -0.57 0.03 -0.09 6.65 2.33zm-6.68 -2.24l0.02 -0.05 0.02 -0.04 -0.03 0.09zm6.84 1.82l-0.19 0.52 -6.62 -2.43 0.19 -0.52 0.04 -0.11 6.57 2.54zm-6.62 -2.43l0.02 -0.06 0.02 -0.05 -0.04 0.11zm6.76 2.07l-0.19 0.47 -6.53 -2.65 0.19 -0.47 0.06 -0.13 6.47 2.78zm-6.53 -2.65l0.03 -0.06 0.03 -0.06 -0.06 0.13zm6.66 2.36l-0.19 0.42 -6.42 -2.91 0.19 -0.42 0.08 -0.16 6.34 3.07zm-6.42 -2.91l0.03 -0.08 0.04 -0.08 -0.08 0.16zm6.53 2.7l-0.19 0.37 -6.27 -3.22 0.19 -0.37 0.1 -0.19 6.17 3.41zm-6.27 -3.22l0.05 -0.1 0.05 -0.09 -0.1 0.19zm6.35 3.09l-0.19 0.32 -6.06 -3.6 0.19 -0.32 0.15 -0.23 5.91 3.83zm-6.06 -3.6l0.07 -0.12 0.08 -0.12 -0.15 0.23zm6.1 3.56l-0.19 0.27 -5.76 -4.06 0.19 -0.27 0.22 -0.28 5.54 4.35zm-5.76 -4.06l0.1 -0.15 0.12 -0.14 -0.22 0.28zm5.73 4.13l-0.19 0.22 -5.31 -4.63 0.19 -0.22 0.32 -0.32 4.99 4.95zm-5.31 -4.63l0.15 -0.17 0.17 -0.15 -0.32 0.32zm5.18 4.79l-0.19 0.17 -4.67 -5.28 0.19 -0.17 0.47 -0.35 4.2 5.63zm-4.67 -5.28l0.22 -0.19 0.25 -0.16 -0.47 0.35zm4.39 5.51l-0.19 0.12 -3.73 -5.98 0.19 -0.12 0.68 -0.33 3.05 6.31zm-3.73 -5.98l0.32 -0.2 0.36 -0.13 -0.68 0.33zm3.24 6.24l-0.19 0.07 -2.37 -6.64 0.19 -0.07 0.85 -0.19 1.52 6.83zm-2.37 -6.64l0.42 -0.15 0.44 -0.04 -0.85 0.19zm1.71 6.81l-0.19 0.02 -0.67 -7.02 0.19 -0.02 0.91 0.03 -0.24 6.98zm-0.67 -7.02l0.46 -0.04 0.45 0.08 -0.91 -0.03zm-0.05 7.02l-0.19 -0.03 1.15 -6.95 0.19 0.03 0.81 0.24 -1.96 6.72zm1.15 -6.95l0.42 0.07 0.39 0.17 -0.81 -0.24zm-1.77 6.8l-0.19 -0.08 2.77 -6.48 0.19 0.08 0.6 0.33 -3.37 6.15zm2.77 -6.48l0.32 0.14 0.28 0.19 -0.6 -0.33zm-3.18 6.28l-0.19 -0.13 3.97 -5.82 0.19 0.13 0.42 0.34 -4.39 5.49zm3.97 -5.82l0.22 0.15 0.2 0.18 -0.42 -0.34zm-4.2 5.67l-0.19 -0.18 4.81 -5.15 0.19 0.18 0.29 0.31 -5.1 4.84zm4.81 -5.15l0.16 0.14 0.14 0.16 -0.29 -0.31zm-4.91 5.07l-0.19 -0.23 5.4 -4.53 0.19 0.23 0.2 0.26 -5.59 4.28zm5.4 -4.53l0.1 0.12 0.09 0.13 -0.2 -0.26zm-5.4 4.55l-0.19 -0.27 5.79 -4.02 0.19 0.27 0.14 0.21 -5.93 3.81zm5.79 -4.02l0.07 0.11 0.06 0.11 -0.14 -0.21zm-5.74 4.13l-0.19 -0.32 6.06 -3.6 0.19 0.32 0.1 0.17 -6.16 3.42zm6.06 -3.6l0.05 0.09 0.05 0.09 -0.1 -0.17zm-5.97 3.79l-0.19 -0.37 6.25 -3.25 0.19 0.37 0.07 0.15 -6.33 3.11zm6.25 -3.25l0.04 0.07 0.04 0.08 -0.07 -0.15zm-6.14 3.52l-0.19 -0.41 6.4 -2.96 0.19 0.41 0.05 0.12 -6.45 2.83zm6.4 -2.96l0.03 0.06 0.03 0.07 -0.05 -0.12zm-6.26 3.29l-0.19 -0.45 6.51 -2.71 0.19 0.45 0.04 0.09 -6.54 2.62zm6.51 -2.71l0.02 0.05 0.02 0.04 -0.04 -0.09zm-6.35 3.11l-0.19 -0.5 6.58 -2.53 0.19 0.5 0.04 0.1 -6.62 2.43zm6.58 -2.53l0.02 0.05 0.02 0.05 -0.04 -0.1zm-6.43 2.97l-0.19 -0.54 6.65 -2.33 0.19 0.54 0.03 0.07 -6.68 2.26zm6.65 -2.33l0.01 0.03 0.01 0.04 -0.03 -0.07zm-6.49 2.84l-0.19 -0.58 6.7 -2.19 0.19 0.58 0.02 0.06 -6.72 2.12zm6.7 -2.19l0.01 0.03 0.01 0.04 -0.02 -0.06zm-6.53 2.74l-0.19 -0.62 6.74 -2.06 0.19 0.62 0.02 0.06 -6.76 2zm6.74 -2.06l0.01 0.03 0.01 0.03 -0.02 -0.06zm-6.57 2.66l-0.19 -0.66 6.77 -1.95 0.19 0.66 0.01 0.05 -6.79 1.89zm6.77 -1.95l0.01 0.05 -0 -0.01 -0.01 -0.04zm-6.6 2.59l-0.19 -0.7 6.8 -1.84 0.19 0.7 0.01 0.04 -6.81 1.8zm6.8 -1.84l0 0.01 0.01 0.03 -0.01 -0.04zm-6.62 2.54l-0.19 -0.73 6.82 -1.77 0.19 0.73 0.01 0.04 -6.83 1.73zm6.82 -1.77l0.01 0.02 0 0.02 -0.01 -0.04zm-6.64 2.5l-0.19 -0.77 6.84 -1.69 0.19 0.77 0.01 0.03 -6.85 1.65zm6.84 -1.69l0 0.01 0.01 0.03 -0.01 -0.03zm-6.66 2.46l-0.19 -0.8 6.86 -1.62 0.19 0.8 0.01 0.03 -6.87 1.59zm6.86 -1.62l0 0.02 0 0.01 -0.01 -0.03zm-6.68 2.42l-0.19 -0.84 6.88 -1.55 0.19 0.84 0.01 0.02 -6.88 1.53zm6.88 -1.55l0.01 0.02 0 0 -0.01 -0.02zm-6.69 2.4l-0.19 -0.87 6.89 -1.51 0.19 0.87 0.01 0.02 -6.89 1.48zm6.89 -1.51l0.01 0.02 -0.01 -0.04 0 0.02zm-6.7 2.38l-0.19 -0.9 6.9 -1.46 0.19 0.9 0 0.02 -6.9 1.43zm6.9 -1.46l0.01 0.03 -0 -0.01 -0 -0.02zm-6.71 2.36l-0.19 -0.93 6.91 -1.41 0.19 0.93 0 0.02 -6.91 1.39zm6.91 -1.41l0 0.02 -0.01 -0.05 0.01 0.03zm-6.72 2.35l-0.19 -0.96 6.91 -1.38 0.19 0.96 0 0.02 -6.92 1.36zm6.91 -1.38l0 0.02 0 0.01 -0.01 -0.04zm-6.73 2.34l-0.19 -0.98 6.92 -1.34 0.19 0.98 0 0.01 -6.92 1.32zm6.92 -1.34l0 0.01 -0.01 -0.03 0 0.01zm-6.73 2.33l-0.19 -1.01 6.93 -1.31 0.19 1.01 0 0.01 -6.93 1.29zm6.93 -1.31l0 0.01 0 0.02 -0.01 -0.03zm-6.74 2.32l-0.19 -1.03 6.93 -1.28 0.19 1.03 0 0.01 -6.93 1.27zm6.93 -1.28l0 0.01 0 0 -0 -0.01zm-6.74 2.32l-0.19 -1.05 6.94 -1.26 0.19 1.05 0 0.01 -6.94 1.24zm6.94 -1.26l0 0.01 -0.01 -0.05 0.01 0.04zm-6.75 2.31l-0.19 -1.07 6.94 -1.23 0.19 1.07 0 0.01 -6.94 1.22zm6.94 -1.23l0 0.01 -0 -0.01 0 0zm-6.75 2.31l-0.19 -1.09 6.94 -1.21 0.19 1.09 0 0.01 -6.95 1.2zm6.94 -1.21l0 0.01 0.02 0.12 -0.02 -0.13zm-6.76 2.31l-0.19 -1.11 6.95 -1.19 0.19 1.11 0 0.01 -6.95 1.19zm6.95 -1.19l0 0.01 -0.01 -0.08 0.01 0.07zm-6.76 2.31l-0.19 -1.12 6.95 -1.18 0.19 1.12 0 0.01 -6.95 1.17zm6.95 -1.18l0 0.01 0 0.01 -0 -0.02zm-6.76 2.3l-0.19 -1.13 6.95 -1.16 0.19 1.13 0 0.01 -6.95 1.16zm6.95 -1.16l0 0.01 -0.01 -0.04 0.01 0.04zm-6.76 2.3l-0.19 -1.15 6.95 -1.15 0.19 1.15 0 0 -6.95 1.15zm6.95 -1.15l0 0.01 -0 -0 -0 -0zm-6.76 2.3l-0.19 -1.16 6.96 -1.14 0.19 1.16 0 0 -6.96 1.14zm6.96 -1.14l0 0.01 -0 -0.01 -0 -0zm-6.77 2.3l-0.19 -1.17 6.96 -1.13 0.19 1.17 0 0 -6.96 1.13zm0.19 1.17l-0.19 -1.17 6.96 -1.13 0.19 1.17 0 0.01 -6.96 1.12zm6.96 -1.13l0 0.01 0.02 0.13 -0.02 -0.13zm-6.77 2.3l-0.19 -1.18 6.96 -1.12 0.19 1.18 0 0 -6.96 1.12zm0.19 1.18l-0.19 -1.18 6.96 -1.12 0.19 1.18 0 0 -6.96 1.11zm0.19 1.19l-0.19 -1.19 6.96 -1.11 0.19 1.19 -6.96 1.11 0 -0zm0.19 1.19l-0.19 -1.19 6.96 -1.11 0.19 1.19 0 0 -6.96 1.11zm0.19 1.19l-0.19 -1.19 6.96 -1.11 0.19 1.19 -6.96 1.11 -0 -0zm0.19 1.19l-0.19 -1.19 6.96 -1.11 0.19 1.19 -6.96 1.12 -0 -0zm0.19 1.18l-0.19 -1.18 6.96 -1.12 0.19 1.18 -6.96 1.12 -0 -0zm0.19 1.18l-0.19 -1.18 6.96 -1.12 0.19 1.18 -6.96 1.12 0 -0zm0.19 1.17l-0.19 -1.17 6.96 -1.12 0.19 1.17 -6.96 1.13 -0 -0zm0 0l-0 -0 -0.02 -0.12 0.02 0.12zm0.19 1.16l-0.19 -1.16 6.96 -1.13 0.19 1.16 -6.96 1.14 -0 -0zm0 0l-0 -0 -0 -0.01 0 0.01zm0.19 1.16l-0.19 -1.16 6.96 -1.14 0.19 1.16 -6.95 1.15 -0 -0.01zm0 0.01l-0 -0.01 -0.02 -0.11 0.02 0.12zm0.19 1.15l-0.19 -1.15 6.95 -1.15 0.19 1.15 -6.95 1.16 -0 -0.01zm0 0.01l-0 -0.01 0.02 0.12 -0.02 -0.12zm0.19 1.13l-0.19 -1.13 6.95 -1.17 0.19 1.13 -6.95 1.17 -0 -0zm0 0l-0 -0 -0.02 -0.1 0.02 0.11zm0.19 1.12l-0.19 -1.12 6.95 -1.17 0.19 1.12 -6.95 1.18 -0 -0.01zm0 0.01l-0 -0.01 0.02 0.09 -0.01 -0.09zm0.19 1.11l-0.19 -1.11 6.95 -1.19 0.19 1.11 -6.95 1.2 -0 -0.01zm0 0.01l-0 -0.01 0 -0 0 0.01zm0.19 1.09l-0.19 -1.09 6.94 -1.21 0.19 1.09 -6.94 1.22 -0 -0.01zm0 0.01l-0 -0.01 -0.01 -0.08 0.02 0.09zm0.19 1.08l-0.19 -1.08 6.94 -1.22 0.19 1.08 -6.94 1.23 -0 -0.01zm0 0.01l-0 -0.01 -0 -0.01 0 0.02zm0.19 1.06l-0.19 -1.06 6.94 -1.24 0.19 1.06 -6.94 1.25 -0 -0.01zm0 0.01l-0 -0.01 0.01 0.07 -0.01 -0.06zm0.19 1.04l-0.19 -1.04 6.93 -1.27 0.19 1.04 -6.93 1.28 -0 -0.01zm0 0.01l-0 -0.02 0 0.01 0 0.01zm0.19 1.02l-0.19 -1.02 6.93 -1.29 0.19 1.02 -6.93 1.3 -0 -0.01zm0 0.01l-0 -0.01 -0.01 -0.06 0.01 0.07zm0.19 1l-0.19 -1 6.92 -1.31 0.19 1 -6.92 1.33 -0 -0.01zm0 0.01l-0 -0.01 0.01 0.08 -0.01 -0.06zm0.19 0.98l-0.19 -0.98 6.92 -1.34 0.19 0.98 -6.92 1.36 -0 -0.02zm0 0.02l-0 -0.02 -0.01 -0.05 0.01 0.07zm0.19 0.95l-0.19 -0.95 6.91 -1.37 0.19 0.95 -6.91 1.39 -0 -0.02zm0 0.02l-0 -0.02 0.01 0.03 -0 -0.01zm0.19 0.93l-0.19 -0.93 6.91 -1.41 0.19 0.93 -6.9 1.43 -0 -0.02zm0 0.02l-0 -0.02 0.01 0.05 -0.01 -0.03zm0.19 0.91l-0.19 -0.91 6.9 -1.45 0.19 0.91 -6.89 1.47 -0 -0.02zm0 0.02l-0 -0.02 -0 -0.01 0.01 0.03zm0.19 0.88l-0.19 -0.88 6.89 -1.49 0.19 0.88 -6.89 1.5 -0 -0.02zm0 0.02l-0 -0.02 0 0.01 0 0.01zm0.19 0.86l-0.19 -0.86 6.88 -1.52 0.19 0.86 -6.88 1.55 -0.01 -0.03zm0.01 0.03l-0.01 -0.03 -0 -0.01 0.01 0.03zm0.19 0.83l-0.19 -0.83 6.87 -1.57 0.19 0.83 -6.86 1.6 -0.01 -0.03zm0.01 0.03l-0.01 -0.03 0 0.01 0 0.02zm0.19 0.8l-0.19 -0.8 6.86 -1.63 0.19 0.8 -6.85 1.65 -0.01 -0.03zm0.01 0.03l-0.01 -0.03 0 0.01 0 0.02zm0.19 0.77l-0.19 -0.77 6.85 -1.68 0.19 0.77 -6.84 1.71 -0.01 -0.03zm0.01 0.03l0 0.01 -0.01 -0.04 0.01 0.03zm0.19 0.74l-0.19 -0.74 6.83 -1.74 0.19 0.74 -6.82 1.77 -0.01 -0.03zm0.01 0.03l-0.01 -0.02 -0 -0.01 0.01 0.03zm0.19 0.72l-0.19 -0.72 6.81 -1.81 0.19 0.72 -6.8 1.85 -0.01 -0.04zm0.01 0.04l-0 -0.01 -0.01 -0.03 0.01 0.04zm0.19 0.69l-0.19 -0.69 6.79 -1.89 0.19 0.69 -6.78 1.92 -0.01 -0.04zm0.01 0.04l-0.01 -0.04 -0 -0 0.01 0.04zm0.19 0.66l-0.19 -0.66 6.77 -1.96 0.19 0.66 -6.76 2 -0.01 -0.04zm0.01 0.04l-0.01 -0.02 -0.01 -0.02 0.01 0.04zm0.19 0.63l-0.19 -0.63 6.75 -2.04 0.19 0.63 -6.73 2.09 -0.02 -0.05zm0.02 0.05l-0 -0.01 -0.01 -0.04 0.02 0.05zm0.19 0.59l-0.19 -0.59 6.71 -2.15 0.19 0.59 -6.7 2.2 -0.02 -0.05zm0.02 0.05l-0.01 -0.03 -0.01 -0.03 0.02 0.05zm0.19 0.56l-0.19 -0.56 6.68 -2.25 0.19 0.56 -6.66 2.31 -0.02 -0.06zm0.02 0.06l-0.01 -0.03 -0.01 -0.03 0.02 0.06zm0.19 0.53l-0.19 -0.53 6.64 -2.37 0.19 0.53 -6.61 2.44 -0.02 -0.07zm0.02 0.07l-0.02 -0.04 -0.01 -0.03 0.02 0.07zm0.19 0.5l-0.19 -0.5 6.59 -2.5 0.19 0.5 -6.56 2.57 -0.03 -0.07zm0.03 0.07l-0.01 -0.03 -0.01 -0.04 0.03 0.07zm0.19 0.47l-0.19 -0.47 6.54 -2.64 0.19 0.47 -6.5 2.73 -0.04 -0.09zm0.04 0.09l-0.02 -0.06 -0.01 -0.03 0.04 0.09zm0.19 0.44l-0.19 -0.44 6.46 -2.81 0.19 0.44 -6.42 2.9 -0.04 -0.09zm0.04 0.09l-0.02 -0.03 -0.02 -0.05 0.04 0.09zm0.19 0.4l-0.19 -0.4 6.38 -2.99 0.19 0.4 -6.33 3.09 -0.05 -0.1zm0.05 0.1l-0.03 -0.05 -0.02 -0.05 0.05 0.1zm0.19 0.37l-0.19 -0.37 6.28 -3.19 0.19 0.37 -6.22 3.31 -0.06 -0.11zm0.06 0.11l-0.03 -0.06 -0.03 -0.06 0.06 0.11zm0.19 0.34l-0.19 -0.34 6.16 -3.42 0.19 0.34 -6.09 3.55 -0.08 -0.13zm0.08 0.13l-0.04 -0.06 -0.04 -0.07 0.08 0.13zm0.19 0.31l-0.19 -0.31 6.01 -3.68 0.19 0.31 -5.91 3.84 -0.1 -0.15zm0.1 0.15l-0.05 -0.08 -0.05 -0.08 0.1 0.15zm0.19 0.28l-0.19 -0.28 5.81 -3.99 0.19 0.28 -5.7 4.14 -0.11 -0.16zm0.11 0.16l-0.06 -0.07 -0.06 -0.08 0.11 0.16zm0.19 0.25l-0.19 -0.25 5.58 -4.3 0.19 0.25 -5.44 4.48 -0.15 -0.18zm0.15 0.18l-0.08 -0.09 -0.07 -0.09 0.15 0.18zm0.19 0.21l-0.19 -0.21 5.29 -4.66 0.19 0.21 -5.09 4.87 -0.2 -0.21zm0.2 0.21l-0.1 -0.1 -0.09 -0.11 0.2 0.21zm0.19 0.18l-0.19 -0.18 4.89 -5.07 0.19 0.18 -4.66 5.28 -0.23 -0.21zm0.23 0.21l-0.12 -0.1 -0.11 -0.11 0.23 0.21zm0.19 0.15l-0.19 -0.15 4.43 -5.48 0.19 0.15 -4.13 5.7 -0.3 -0.22zm0.3 0.22l-0.15 -0.1 -0.14 -0.12 0.3 0.22zm0.19 0.12l-0.19 -0.12 3.83 -5.92 0.19 0.12 -3.46 6.13 -0.37 -0.21zm0.37 0.21l-0.19 -0.09 -0.18 -0.12 0.37 0.21zm0.19 0.09l-0.19 -0.09 3.08 -6.34 0.19 0.09 -2.65 6.52 -0.44 -0.18zm0.44 0.18l-0.22 -0.07 -0.21 -0.1 0.44 0.18zm0.19 0.06l-0.19 -0.06 2.21 -6.69 0.19 0.06 -1.73 6.82 -0.49 -0.12zm0.49 0.12l-0.25 -0.04 -0.24 -0.08 0.49 0.12zm0.19 0.03l-0.19 -0.03 1.24 -6.94 0.19 0.03 -0.7 6.99 -0.54 -0.05zm0.54 0.05l-0.27 -0.01 -0.27 -0.05 0.54 0.05zm0.19 0l-0.19 -0 0.16 -7.05 0.19 0 0.36 7.02 -0.52 0.03zm0.52 -0.03l-0.26 0.03 -0.26 -0.01 0.52 -0.03zm0.19 -0.02l-0.19 0.02 -0.87 -6.99 0.19 -0.02 1.35 6.9 -0.48 0.1zm0.48 -0.1l-0.24 0.06 -0.24 0.03 0.48 -0.1zm0.19 -0.05l-0.19 0.05 -1.84 -6.8 0.19 -0.05 2.26 6.66 -0.42 0.14zm0.42 -0.14l-0.21 0.09 -0.22 0.06 0.42 -0.14zm0.19 -0.08l-0.19 0.08 -2.69 -6.52 0.19 -0.08 3.04 6.35 -0.36 0.17zm0.36 -0.17l-0.17 0.09 -0.18 0.08 0.36 -0.17zm11.24 -44.67l0.68 7.02 0.32 -0.05 0.51 -0.18 0.16 -0.11 -0.1 0.12 -0.25 0.37 -0.33 0.6 -0.36 0.8 -0.38 0.97 -0.39 1.11 -0.39 1.23 -0.39 1.34 -0.38 1.43 -0.38 1.51 -0.38 1.57 -0.37 1.62 -0.37 1.66 -0.37 1.68 -0.37 1.69 -0.37 1.69 -0.37 1.68 -0.37 1.66 -0.38 1.62 -0.38 1.58 -0.39 1.52 -0.4 1.46 -0.41 1.39 -0.43 1.31 -0.45 1.23 -0.49 1.15 -0.55 1.08 -0.66 1.03 -0.85 0.98 -1.2 0.89 -3.4 -6.18 -0.28 0.2 0.04 -0.06 0.21 -0.33 0.29 -0.58 0.33 -0.78 0.35 -0.95 0.36 -1.1 0.36 -1.22 0.36 -1.33 0.36 -1.43 0.36 -1.5 0.36 -1.57 0.36 -1.62 0.37 -1.66 0.37 -1.68 0.37 -1.7 0.37 -1.7 0.38 -1.69 0.39 -1.67 0.39 -1.64 0.4 -1.6 0.42 -1.55 0.43 -1.49 0.45 -1.42 0.47 -1.34 0.5 -1.26 0.54 -1.19 0.61 -1.11 0.71 -1.05 0.89 -0.98 1.19 -0.87 1.58 -0.58 0.32 -0.05zm-0.32 0.05l0.16 -0.03 0.16 -0.02 -0.32 0.05zm1.19 6.95l-0.19 0.02 -0.68 -7.02 0.19 -0.02 0.33 -0.02 0.36 7.03zm-0.68 -7.02l0.16 -0.02 0.16 -0 -0.33 0.02zm0.55 7.03l-0.19 0 -0.03 -7.05 0.19 -0 0.34 0.01 -0.31 7.03zm-0.03 -7.05l0.17 -0 0.17 0.02 -0.34 -0.01zm16.95 37.99l-4.26 5.61 -0.1 -0.08 -0.94 -0.91 -0.78 -0.99 -0.68 -1.06 -0.61 -1.14 -0.57 -1.21 -0.53 -1.28 -0.51 -1.36 -0.49 -1.42 -0.48 -1.48 -0.47 -1.53 -0.46 -1.57 -0.45 -1.6 -0.44 -1.62 -0.44 -1.63 -0.43 -1.64 -0.43 -1.63 -0.43 -1.61 -0.42 -1.58 -0.42 -1.53 -0.42 -1.48 -0.42 -1.41 -0.42 -1.33 -0.41 -1.24 -0.41 -1.13 -0.4 -1.01 -0.39 -0.87 -0.36 -0.7 -0.31 -0.51 -0.21 -0.28 -0.04 -0.04 0.26 0.15 0.6 0.15 0.65 -7.02 1.62 0.43 1.26 0.77 0.94 0.91 0.75 0.97 0.63 1.03 0.57 1.1 0.52 1.17 0.5 1.25 0.48 1.32 0.46 1.39 0.45 1.45 0.44 1.5 0.44 1.55 0.43 1.58 0.43 1.61 0.43 1.62 0.43 1.63 0.43 1.62 0.43 1.61 0.43 1.58 0.43 1.54 0.43 1.49 0.44 1.43 0.44 1.35 0.44 1.26 0.44 1.16 0.43 1.04 0.42 0.9 0.4 0.74 0.35 0.56 0.27 0.36 0.14 0.14 -0.1 -0.08zm-4.26 5.61l-0.05 -0.04 -0.05 -0.04 0.1 0.08zm0.19 0.14l-0.19 -0.14 4.26 -5.61 0.19 0.14 -4.14 5.7 -0.12 -0.09zm0.12 0.09l-0.06 -0.04 -0.06 -0.05 0.12 0.09zm0.19 0.13l-0.19 -0.13 4.01 -5.79 0.19 0.13 -3.89 5.87 -0.12 -0.08zm0.12 0.08l-0.06 -0.04 -0.06 -0.04 0.12 0.08zm0.19 0.12l-0.19 -0.12 3.77 -5.95 0.19 0.12 -3.64 6.03 -0.13 -0.08zm0.13 0.08l-0.07 -0.04 -0.06 -0.04 0.13 0.08zm0.19 0.11l-0.19 -0.11 3.51 -6.11 0.19 0.11 -3.36 6.2 -0.15 -0.08zm0.15 0.08l-0.07 -0.04 -0.08 -0.05 0.15 0.08zm0.19 0.1l-0.19 -0.1 3.2 -6.28 0.19 0.1 -3.05 6.35 -0.16 -0.08zm0.16 0.08l-0.08 -0.04 -0.08 -0.04 0.16 0.08zm0.19 0.09l-0.19 -0.09 2.89 -6.43 0.19 0.09 -2.74 6.49 -0.15 -0.06zm0.15 0.06l-0.08 -0.03 -0.07 -0.03 0.15 0.06zm0.19 0.08l-0.19 -0.08 2.59 -6.55 0.19 0.08 -2.41 6.62 -0.19 -0.07zm0.19 0.07l-0.1 -0.03 -0.09 -0.04 0.19 0.07zm0.19 0.06l-0.19 -0.06 2.22 -6.69 0.19 0.06 -2.04 6.74 -0.18 -0.05zm0.18 0.05l-0.09 -0.02 -0.09 -0.03 0.18 0.05zm0.19 0.05l-0.19 -0.05 1.87 -6.8 0.19 0.05 -1.68 6.84 -0.19 -0.05zm0.19 0.05l-0.09 -0.02 -0.1 -0.03 0.19 0.05zm0.19 0.04l-0.19 -0.04 1.49 -6.89 0.19 0.04 -1.29 6.93 -0.19 -0.04zm0.19 0.04l-0.1 -0.02 -0.1 -0.02 0.19 0.04zm0.19 0.03l-0.19 -0.03 1.1 -6.96 0.19 0.03 -0.9 6.99 -0.19 -0.03zm0.19 0.03l-0.09 -0.01 -0.1 -0.02 0.19 0.03zm0.19 0.02l-0.19 -0.02 0.71 -7.01 0.19 0.02 -0.51 7.03 -0.2 -0.01zm0.2 0.01l-0.1 -0 -0.1 -0.01 0.2 0.01zm0.19 0.01l-0.19 -0.01 0.31 -7.04 0.19 0.01 -0.13 7.05 -0.18 -0zm0.18 0l-0.09 0 -0.09 -0 0.18 0zm0.19 -0l-0.19 0 -0.04 -7.05 0.19 -0 0.26 7.04 -0.21 0.01zm0.21 -0.01l-0.1 0.01 -0.11 0 0.21 -0.01zm0.19 -0.01l-0.19 0.01 -0.47 -7.03 0.19 -0.01 0.63 7.02 -0.16 0.01zm0.16 -0.01l-0.08 0.01 -0.08 0.01 0.16 -0.01zm0.19 -0.02l-0.19 0.02 -0.78 -7 0.19 -0.02 0.98 6.98 -0.19 0.03zm0.19 -0.03l-0.1 0.02 -0.1 0.01 0.19 -0.03zm0.19 -0.03l-0.19 0.03 -1.17 -6.95 0.19 -0.03 1.33 6.92 -0.16 0.03zm0.16 -0.03l-0.08 0.02 -0.08 0.01 0.16 -0.03zm12.45 -17.9l0.19 7.05 0.11 -0 -0.15 0.02 -0.15 0.03 -0.17 0.06 -0.19 0.08 -0.22 0.11 -0.24 0.15 -0.26 0.19 -0.29 0.23 -0.3 0.27 -0.31 0.3 -0.33 0.34 -0.34 0.37 -0.34 0.4 -0.35 0.42 -0.36 0.44 -0.37 0.46 -0.37 0.47 -0.38 0.48 -0.39 0.49 -0.4 0.5 -0.41 0.5 -0.43 0.5 -0.44 0.49 -0.46 0.49 -0.49 0.48 -0.52 0.46 -0.55 0.45 -0.6 0.42 -0.64 0.39 -0.7 0.35 -0.75 0.29 -0.8 0.22 -1.49 -6.89 0.08 -0.02 0.11 -0.04 0.15 -0.07 0.18 -0.11 0.22 -0.15 0.25 -0.2 0.27 -0.24 0.29 -0.28 0.31 -0.32 0.32 -0.36 0.33 -0.39 0.34 -0.42 0.35 -0.44 0.36 -0.46 0.38 -0.48 0.39 -0.49 0.4 -0.5 0.41 -0.51 0.43 -0.51 0.44 -0.51 0.46 -0.51 0.48 -0.5 0.51 -0.49 0.54 -0.48 0.57 -0.46 0.61 -0.44 0.66 -0.41 0.7 -0.37 0.75 -0.32 0.8 -0.26 0.84 -0.18 0.87 -0.1 0.11 -0zm-0.11 0l0.06 -0 0.05 -0 -0.11 0zm0.49 7.04l-0.19 0.01 -0.19 -7.05 0.19 -0.01 0.13 -0 0.06 7.05zm-0.19 -7.05l0.07 -0 0.06 0 -0.13 0zm0.25 7.05l-0.19 -0 0.07 -7.05 0.19 0 0.12 0 -0.2 7.04zm0.07 -7.05l0.06 0 0.06 0 -0.12 -0zm-0.01 7.05l-0.19 -0.01 0.32 -7.04 0.19 0.01 0.12 0.01 -0.44 7.03zm0.32 -7.04l0.05 0 0.06 0.01 -0.12 -0.01zm-0.25 7.05l-0.19 -0.01 0.55 -7.03 0.19 0.01 0.11 0.01 -0.67 7.02zm0.55 -7.03l0.06 0.01 0.05 0.01 -0.11 -0.01zm-0.48 7.04l-0.19 -0.02 0.78 -7 0.19 0.02 0.12 0.02 -0.91 6.99zm0.78 -7l0.06 0.01 0.06 0.01 -0.12 -0.02zm-0.72 7.02l-0.19 -0.03 1.03 -6.97 0.19 0.03 0.11 0.02 -1.13 6.96zm1.03 -6.97l0.05 0.01 0.06 0.01 -0.11 -0.02zm15.25 10.84l-0.78 7 -0.08 -0.01 -0.88 -0.15 -0.85 -0.22 -0.81 -0.27 -0.77 -0.32 -0.74 -0.36 -0.7 -0.4 -0.66 -0.43 -0.62 -0.45 -0.59 -0.47 -0.56 -0.48 -0.54 -0.49 -0.52 -0.49 -0.49 -0.49 -0.48 -0.49 -0.46 -0.49 -0.45 -0.48 -0.43 -0.47 -0.42 -0.45 -0.41 -0.44 -0.4 -0.41 -0.39 -0.39 -0.38 -0.36 -0.36 -0.34 -0.35 -0.3 -0.34 -0.27 -0.32 -0.24 -0.31 -0.2 -0.29 -0.17 -0.27 -0.13 -0.26 -0.1 -0.25 -0.08 -0.24 -0.05 1.24 -6.94 0.83 0.19 0.79 0.25 0.75 0.3 0.71 0.35 0.67 0.38 0.63 0.41 0.6 0.44 0.57 0.45 0.54 0.47 0.51 0.47 0.49 0.48 0.48 0.48 0.46 0.48 0.45 0.48 0.44 0.47 0.43 0.46 0.42 0.45 0.41 0.43 0.4 0.42 0.4 0.4 0.39 0.37 0.38 0.35 0.38 0.32 0.37 0.29 0.36 0.26 0.35 0.23 0.35 0.2 0.34 0.17 0.33 0.14 0.33 0.11 0.33 0.08 0.34 0.06 -0.08 -0.01zm-0.78 7l-0.03 -0 -0.05 -0.01 0.08 0.01zm0.19 0.02l-0.19 -0.02 0.78 -7 0.19 0.02 -0.72 7.01 -0.06 -0.01zm0.06 0.01l-0.05 -0 -0.01 -0 0.06 0.01zm0.19 0.02l-0.19 -0.02 0.65 -7.02 0.19 0.02 -0.58 7.02 -0.07 -0.01zm0.07 0.01l-0.02 -0 -0.05 -0 0.07 0.01zm0.19 0.01l-0.19 -0.01 0.51 -7.03 0.19 0.01 -0.43 7.03 -0.08 -0zm0.08 0l-0.05 -0 -0.03 -0 0.08 0zm0.19 0.01l-0.19 -0.01 0.35 -7.04 0.19 0.01 -0.28 7.04 -0.07 -0zm0.07 0l-0.04 -0 -0.03 -0 0.07 0zm15.2 -11.3l-0.22 7.05 0.04 0 -0.32 0 -0.32 0.02 -0.33 0.03 -0.34 0.05 -0.35 0.07 -0.36 0.08 -0.37 0.1 -0.38 0.12 -0.39 0.13 -0.4 0.14 -0.41 0.16 -0.42 0.17 -0.43 0.18 -0.44 0.19 -0.45 0.2 -0.45 0.2 -0.46 0.21 -0.47 0.21 -0.48 0.21 -0.49 0.21 -0.5 0.21 -0.52 0.2 -0.53 0.2 -0.54 0.18 -0.55 0.17 -0.57 0.16 -0.59 0.14 -0.6 0.12 -0.62 0.1 -0.63 0.07 -0.65 0.04 -0.66 -0 0.2 -7.05 0.26 -0 0.27 -0.02 0.29 -0.03 0.3 -0.05 0.32 -0.06 0.33 -0.08 0.34 -0.1 0.36 -0.11 0.38 -0.13 0.39 -0.14 0.4 -0.16 0.41 -0.17 0.42 -0.18 0.44 -0.19 0.45 -0.2 0.46 -0.2 0.47 -0.21 0.48 -0.21 0.49 -0.21 0.51 -0.21 0.52 -0.21 0.53 -0.2 0.55 -0.2 0.56 -0.19 0.58 -0.17 0.59 -0.16 0.61 -0.14 0.62 -0.12 0.64 -0.1 0.66 -0.07 0.67 -0.04 0.68 -0 0.04 0zm-0.04 -0l0.04 0 -0 0 -0.03 -0zm0.01 7.05l-0.19 -0.01 0.22 -7.05 0.19 0.01 0.05 0 -0.27 7.04zm0.22 -7.05l0.02 0 0.03 0 -0.05 -0zm-0.08 7.05l-0.19 -0.01 0.32 -7.04 0.19 0.01 0.04 0 -0.37 7.04zm0.32 -7.04l0.02 0 0.03 0 -0.04 -0zm-0.18 7.05l-0.19 -0.01 0.41 -7.04 0.19 0.01 0.04 0 -0.44 7.03zm0.41 -7.04l0 0 0.03 0 -0.04 -0zm-0.25 7.05l-0.19 -0.01 0.48 -7.03 0.19 0.01 0.04 0 -0.52 7.03zm0.48 -7.03l0.04 0 0.01 0 -0.04 -0zm-0.33 7.04l-0.19 -0.02 0.57 -7.03 0.19 0.02 0.04 0 -0.61 7.02zm0.57 -7.03l0.01 0 0.03 0 -0.04 -0zm-0.42 7.04l-0.19 -0.02 0.65 -7.02 0.19 0.02 0.04 0 -0.69 7.01zm0.65 -7.02l0.04 0 -0.01 -0 -0.03 -0zm-0.5 7.03l-0.19 -0.02 0.73 -7.01 0.19 0.02 0.04 0 -0.77 7.01zm0.73 -7.01l0.03 0 0.01 0 -0.04 -0zm16.87 4.11l0.45 7.03 -0.02 0 -0.76 0.03 -0.75 0 -0.73 -0.02 -0.72 -0.05 -0.7 -0.07 -0.68 -0.09 -0.67 -0.11 -0.65 -0.13 -0.64 -0.14 -0.62 -0.16 -0.6 -0.17 -0.59 -0.18 -0.58 -0.18 -0.56 -0.19 -0.55 -0.19 -0.54 -0.19 -0.53 -0.19 -0.52 -0.19 -0.51 -0.19 -0.5 -0.18 -0.49 -0.18 -0.49 -0.17 -0.48 -0.17 -0.48 -0.16 -0.47 -0.15 -0.47 -0.14 -0.47 -0.13 -0.46 -0.11 -0.47 -0.1 -0.47 -0.09 -0.47 -0.08 -0.48 -0.06 0.81 -7 0.69 0.09 0.68 0.11 0.66 0.13 0.64 0.14 0.63 0.16 0.61 0.17 0.6 0.18 0.58 0.18 0.57 0.19 0.56 0.19 0.54 0.19 0.53 0.19 0.52 0.19 0.51 0.19 0.5 0.19 0.49 0.18 0.49 0.17 0.48 0.17 0.47 0.16 0.47 0.15 0.46 0.14 0.46 0.13 0.46 0.12 0.45 0.1 0.46 0.09 0.46 0.08 0.46 0.06 0.47 0.05 0.47 0.03 0.48 0.02 0.49 -0 0.51 -0.02 -0.02 0zm0.45 7.03l-0.02 0 0.04 -0 -0.02 0zm0.19 -0.01l-0.19 0.01 -0.45 -7.03 0.19 -0.01 0.47 7.03 -0.01 0zm0.01 -0l-0.01 0 -0.04 0 0.05 -0zm0.19 -0.01l-0.19 0.01 -0.48 -7.03 0.19 -0.01 0.5 7.03 -0.02 0zm0.02 -0l-0.01 0 -0.01 0 0.02 -0zm0.19 -0.01l-0.19 0.01 -0.53 -7.03 0.19 -0.01 0.54 7.03 -0.01 0zm0.01 -0l-0.01 0 0.08 -0.01 -0.07 0.01zm0.19 -0.01l-0.19 0.01 -0.55 -7.03 0.19 -0.01 0.56 7.03 -0.01 0zm0.01 -0l-0.01 0 -0.13 0.01 0.14 -0.01zm0.19 -0.02l-0.19 0.02 -0.57 -7.03 0.19 -0.02 0.6 7.02 -0.03 0zm0.03 -0l-0.03 0 0.03 -0 -0 0zm0.19 -0.02l-0.19 0.02 -0.63 -7.02 0.19 -0.02 0.63 7.02zm-0.63 -7.02c1.94,-0.17 3.65,1.26 3.82,3.2 0.17,1.94 -1.26,3.65 -3.2,3.82l-0.63 -7.02z"/>
   </g>
  </g>
 </g>
</svg>
