<?xml version="1.0" encoding="UTF-8"?>
<!DOCTYPE svg PUBLIC "-//W3C//DTD SVG 1.0//EN" "http://www.w3.org/TR/2001/REC-SVG-20010904/DTD/svg10.dtd">
<!-- Creator: CorelDRAW -->
<svg xmlns="http://www.w3.org/2000/svg" xml:space="preserve" width="2.34983in" height="1.9685in" version="1.0" shape-rendering="geometricPrecision" text-rendering="geometricPrecision" image-rendering="optimizeQuality" fill-rule="evenodd" clip-rule="evenodd"
viewBox="0 0 185.26 155.2"
 xmlns:xlink="http://www.w3.org/1999/xlink"
 xmlns:xodm="http://www.corel.com/coreldraw/odm/2003">
 <g id="Layer_x0020_1">
  <metadata id="CorelCorpID_0Corel-Layer"/>
  <g id="_1375223866048">
   <path id="_3979f2be-e166-4043-b147-6c633d94aa2b.svg" fill="black" fill-rule="nonzero" d="M37.26 27.74l0 0c-2.96,-11.15 2.13,-17.45 5.35,-20.14 0.39,-0.35 1.01,-0.4 1.46,-0.02 0.34,0.28 0.47,0.59 0.51,1 -0.36,7.88 5.07,13.68 5.07,13.68l-12.39 5.48z"/>
   <path id="_3979f2be-e166-4043-b147-6c633d94aa2b.svg_0" fill="black" fill-rule="nonzero" d="M0.92 69.47c1.79,2.56 1.99,2.72 3.97,5.05 2.69,3.22 5.46,6.22 8.35,9.31 0.47,0.59 1.03,1.06 1.69,1.42 1.08,0.43 6.69,-0.06 10.84,-0.43 6.02,-0.53 12.36,-1.08 15.77,-0.33 1.7,0.27 3.14,1.19 3.99,2.58 1.56,2.27 1.78,5.9 0.85,10.8 2.31,-1.24 4.47,-2.06 6.51,-2.53 4.43,-13.12 15.32,-23.27 28.89,-26.67l-0.38 0.1c1.27,-3.4 2.57,-6.87 4.12,-10.14 1.89,-4.1 3.99,-8.09 6.28,-11.95 -3.49,-5.89 -7.45,-11.5 -11.83,-16.81 -1.41,-1.76 -2.91,-3.41 -4.31,-5.06 -5.82,-6.71 -11.87,-13.71 -14.44,-22.8 -0.59,-1.94 -1.01,-2 -1.01,-2 -0.31,0.03 -0.51,0.15 -0.71,0.27 -3.19,1.85 -5.38,5.49 -6.14,9.95 -0.69,4.04 -0.23,8.08 0.4,12.94 0.05,0.62 -0.31,1.28 -0.81,1.54l-1.81 0.89c-4.32,2.05 -8.84,4.23 -13.05,6.27 -1.3,0.64 -2.51,1.27 -3.38,2.07 -1.45,1.38 -2.1,3.53 -2.84,5.79 -1.23,4.42 0.08,4.51 2.43,8.77l-28 15.85c-0.57,-0.02 -6.23,1.7 -6.3,2.91 0.12,0.69 0.45,1.62 0.92,2.21zm81.19 -0.87c0.16,-0.04 0.33,-0.08 0.49,-0.12 -0.16,0.04 -0.33,0.08 -0.49,0.12zm0.78 -0.18c0.17,-0.04 0.34,-0.07 0.51,-0.11 -0.17,0.04 -0.34,0.07 -0.51,0.11zm0.79 -0.17c0.17,-0.03 0.34,-0.07 0.51,-0.1 -0.17,0.03 -0.34,0.07 -0.51,0.1zm0.79 -0.15c0.2,-0.04 0.4,-0.07 0.6,-0.1 -0.2,0.03 -0.4,0.07 -0.6,0.1zm0.79 -0.13c0.21,-0.03 0.41,-0.07 0.62,-0.09 -0.21,0.03 -0.42,0.06 -0.62,0.09zm0.81 -0.12c0.21,-0.03 0.42,-0.06 0.64,-0.08 -0.21,0.03 -0.43,0.05 -0.64,0.08zm0.78 -0.1c0.24,-0.03 0.48,-0.06 0.72,-0.08 -0.24,0.02 -0.48,0.05 -0.72,0.08zm0.8 -0.09c0.24,-0.02 0.49,-0.05 0.74,-0.07 -0.25,0.02 -0.49,0.04 -0.74,0.07zm2.47 -0.17c0.27,-0.01 0.54,-0.02 0.81,-0.02 -0.27,0.01 -0.54,0.01 -0.81,0.02zm0.84 -0.03c0.28,-0.01 0.55,-0.01 0.83,-0.01 -0.28,0 -0.55,0 -0.83,0.01z"/>
   <g>
    <path fill="black" fill-rule="nonzero" d="M50.75 86.39c0.73,-1.35 2.42,-1.85 3.77,-1.12 1.35,0.73 1.85,2.42 1.12,3.77l-4.89 -2.65zm-0.04 22.16l-5.56 0 0 0 0.01 -0.75 0.02 -0.75 0.03 -0.74 0.04 -0.74 0.05 -0.74 0.06 -0.74 0.08 -0.73 0.09 -0.73 0.1 -0.73 0.11 -0.72 0.12 -0.72 0.13 -0.71 0.14 -0.71 0.15 -0.71 0.16 -0.7 0.17 -0.7 0.18 -0.69 0.19 -0.69 0.2 -0.69 0.21 -0.68 0.23 -0.68 0.23 -0.67 0.24 -0.67 0.25 -0.66 0.26 -0.66 0.27 -0.65 0.28 -0.65 0.29 -0.64 0.3 -0.64 0.31 -0.63 0.32 -0.63 0.33 -0.62 4.89 2.65 -0.29 0.55 -0.28 0.55 -0.27 0.56 -0.27 0.56 -0.26 0.57 -0.25 0.57 -0.24 0.57 -0.23 0.58 -0.22 0.58 -0.22 0.59 -0.21 0.59 -0.2 0.6 -0.19 0.6 -0.18 0.6 -0.17 0.61 -0.16 0.61 -0.15 0.61 -0.14 0.62 -0.13 0.62 -0.12 0.63 -0.12 0.63 -0.11 0.63 -0.1 0.64 -0.09 0.64 -0.08 0.64 -0.07 0.65 -0.06 0.65 -0.05 0.65 -0.04 0.65 -0.03 0.66 -0.02 0.66 -0.01 0.66 0 0zm22.3 36.65l-2.19 5.11 -0.17 -0.08 -1.45 -0.77 -1.42 -0.82 -1.38 -0.86 -1.34 -0.91 -1.31 -0.95 -1.27 -0.99 -1.23 -1.03 -1.19 -1.07 -1.15 -1.11 -1.11 -1.15 -1.07 -1.18 -1.03 -1.21 -0.98 -1.25 -0.94 -1.28 -0.9 -1.31 -0.85 -1.34 -0.81 -1.37 -0.76 -1.39 -0.71 -1.42 -0.66 -1.45 -0.61 -1.47 -0.57 -1.49 -0.51 -1.51 -0.46 -1.53 -0.41 -1.55 -0.36 -1.57 -0.31 -1.58 -0.25 -1.6 -0.2 -1.61 -0.14 -1.62 -0.09 -1.64 -0.03 -1.64 5.56 0 0.03 1.45 0.08 1.44 0.13 1.43 0.17 1.42 0.22 1.41 0.27 1.4 0.32 1.38 0.36 1.37 0.41 1.35 0.45 1.33 0.5 1.31 0.54 1.29 0.58 1.27 0.63 1.25 0.67 1.23 0.71 1.21 0.75 1.18 0.79 1.16 0.83 1.13 0.87 1.1 0.91 1.07 0.94 1.04 0.98 1.01 1.01 0.98 1.05 0.94 1.08 0.91 1.12 0.87 1.15 0.84 1.18 0.8 1.22 0.76 1.25 0.72 1.28 0.68 -0.17 -0.08zm-2.19 5.11l-0.09 -0.04 -0.08 -0.04 0.17 0.08zm10.57 -15.38l5.5 0.78 -0 0.01 -0.09 0.66 -0.09 0.68 -0.09 0.7 -0.09 0.72 -0.09 0.73 -0.1 0.74 -0.11 0.75 -0.12 0.75 -0.13 0.76 -0.15 0.76 -0.17 0.76 -0.2 0.75 -0.23 0.74 -0.26 0.74 -0.3 0.73 -0.35 0.71 -0.41 0.7 -0.47 0.67 -0.54 0.64 -0.62 0.59 -0.7 0.53 -0.77 0.45 -0.84 0.36 -0.89 0.26 -0.93 0.16 -0.96 0.06 -0.99 -0.03 -1.01 -0.12 -1.04 -0.21 -1.08 -0.3 -1.12 -0.38 -1.16 -0.46 2.19 -5.11 0.91 0.36 0.82 0.28 0.73 0.2 0.65 0.13 0.56 0.07 0.47 0.02 0.39 -0.03 0.32 -0.06 0.26 -0.08 0.22 -0.09 0.19 -0.11 0.18 -0.14 0.18 -0.17 0.19 -0.22 0.19 -0.27 0.19 -0.32 0.18 -0.38 0.18 -0.43 0.17 -0.47 0.16 -0.52 0.14 -0.56 0.13 -0.59 0.12 -0.62 0.11 -0.65 0.1 -0.67 0.1 -0.68 0.09 -0.7 0.09 -0.71 0.09 -0.72 0.09 -0.72 0.09 -0.72 0.1 -0.72 -0 0.01zm5.5 0.78l-0 0.01 -0.01 0.04 0.01 -0.05zm0.15 -1.05l-0.15 1.05 -5.5 -0.78 0.15 -1.05 5.5 0.78 -0 0zm0 -0l-0 0 0.02 -0.13 -0.02 0.13zm0.15 -1.07l-0.15 1.07 -5.51 -0.77 0.15 -1.07 5.51 0.77 -0 0zm0 -0l-0 0 -0.01 0.04 0.01 -0.04zm0.15 -1.08l-0.15 1.08 -5.51 -0.76 0.15 -1.08 5.51 0.76 -0 0zm0 -0l-0 0 -0.01 0.1 0.01 -0.1zm0.15 -1.09l-0.15 1.09 -5.51 -0.75 0.15 -1.09 5.51 0.75 -0 0zm0 -0l-0 0.01 0 -0.01 0 -0zm0.15 -1.1l-0.15 1.1 -5.51 -0.75 0.15 -1.1 5.51 0.74 -0 0zm0.15 -1.11l-0.15 1.11 -5.51 -0.74 0.15 -1.11 5.51 0.74 -0 0zm0.15 -1.12l-0.15 1.12 -5.51 -0.74 0.15 -1.12 5.51 0.74 0 0zm0.15 -1.12l-0.15 1.12 -5.51 -0.74 0.15 -1.12 5.51 0.74 -0 0zm0.15 -1.12l-0.15 1.12 -5.51 -0.73 0.15 -1.12 5.51 0.73 0 0zm0.15 -1.12l-0.15 1.12 -5.51 -0.73 0.15 -1.12 0 -0 5.51 0.73zm0.15 -1.12l-0.15 1.12 -5.51 -0.74 0.15 -1.12 0 -0 5.51 0.74zm0.15 -1.11l-0.15 1.12 -5.51 -0.74 0.15 -1.12 0 -0 5.51 0.74zm0.15 -1.11l-0.15 1.11 -5.51 -0.74 0.15 -1.11 0 -0 5.51 0.75zm0.15 -1.1l-0.15 1.1 -5.51 -0.75 0.15 -1.1 0 -0 5.51 0.75zm-5.51 -0.75l0 -0 -0.02 0.12 0.02 -0.11zm5.66 -0.34l-0.15 1.09 -5.51 -0.75 0.15 -1.09 0 -0 5.51 0.76zm-5.51 -0.75l0 -0 0 -0.03 -0 0.04zm5.66 -0.32l-0.15 1.08 -5.51 -0.76 0.15 -1.08 0 -0 5.51 0.77zm-5.51 -0.76l0 -0 0.02 -0.15 -0.02 0.16zm5.66 -0.3l-0.15 1.07 -5.51 -0.77 0.15 -1.07 0 -0 5.5 0.78zm-5.51 -0.77l0 -0 -0 0.01 0 -0zm5.65 -0.28l-0.15 1.05 -5.5 -0.78 0.15 -1.05 0 -0.01 5.5 0.79zm-5.5 -0.78l0 -0.01 -0.01 0.09 0.01 -0.08zm5.65 -0.25l-0.15 1.04 -5.5 -0.79 0.15 -1.04 0 -0.01 5.5 0.8zm-5.5 -0.79l-0 0 0 -0.01 -0 0.01zm5.65 -0.22l-0.15 1.02 -5.5 -0.81 0.15 -1.02 0 -0.01 5.5 0.82zm-5.5 -0.81l0 -0.01 0.02 -0.11 -0.02 0.12zm5.65 -0.18l-0.15 1 -5.5 -0.82 0.15 -1 0 -0.01 5.5 0.83zm-5.5 -0.82l0 -0.01 -0.01 0.08 0.01 -0.07zm5.65 -0.15l-0.15 0.98 -5.49 -0.84 0.15 -0.98 0 -0.01 5.49 0.85zm-5.49 -0.84l0 -0.01 0.01 -0.04 -0.01 0.05zm5.64 -0.11l-0.15 0.96 -5.49 -0.86 0.15 -0.96 0 -0.01 5.49 0.87zm-5.49 -0.86l0 -0.01 -0 0.02 0 -0zm5.64 -0.06l-0.15 0.93 -5.49 -0.88 0.15 -0.93 0 -0.01 5.49 0.89zm-5.49 -0.88l-0 0 0 -0.02 -0 0.01zm5.64 -0.01l-0.15 0.91 -5.48 -0.91 0.15 -0.91 0 -0.01 5.48 0.92zm-5.48 -0.91l0 -0.01 0 -0.02 -0.01 0.03zm5.63 0.04l-0.15 0.88 -5.48 -0.93 0.15 -0.88 0 -0.01 5.48 0.95zm-5.48 -0.93l0 -0.01 0 -0.01 -0 0.02zm5.63 0.09l-0.15 0.85 -5.48 -0.96 0.15 -0.85 0 -0.02 5.47 0.98zm-5.48 -0.96l0 -0.02 -0.01 0.04 0 -0.03zm5.62 0.15l-0.15 0.82 -5.47 -0.99 0.15 -0.82 0 -0.02 5.47 1.01zm-5.47 -0.99l0 -0.02 0 -0.02 -0.01 0.04zm5.62 0.22l-0.15 0.79 -5.46 -1.03 0.15 -0.79 0 -0.02 5.46 1.05zm-5.46 -1.03l-0 0.01 0.01 -0.03 -0 0.02zm5.61 0.29l-0.15 0.76 -5.45 -1.07 0.15 -0.76 0 -0.02 5.45 1.09zm-5.45 -1.07l0 -0.02 -0 0 -0 0.02zm5.6 0.36l-0.15 0.73 -5.45 -1.11 0.15 -0.73 0.01 -0.03 5.44 1.14zm-5.45 -1.11l0.01 -0.03 -0.01 0.03 0 -0.01zm5.59 0.44l-0.15 0.7 -5.44 -1.16 0.15 -0.7 0.01 -0.03 5.43 1.19zm-5.44 -1.16l0.01 -0.03 -0 0.01 -0 0.02zm5.58 0.53l-0.15 0.66 -5.42 -1.22 0.15 -0.66 0.01 -0.03 5.41 1.26zm-5.42 -1.22l0.01 -0.03 0 -0.01 -0.01 0.04zm5.56 0.63l-0.15 0.63 -5.41 -1.29 0.15 -0.63 0.01 -0.03 5.4 1.32zm-5.41 -1.29l0 -0.02 0 -0.02 -0.01 0.03zm5.55 0.73l-0.15 0.59 -5.39 -1.36 0.15 -0.59 0.01 -0.04 5.38 1.4zm-5.39 -1.36l0 -0.01 0.01 -0.03 -0.01 0.04zm5.53 0.84l-0.15 0.56 -5.37 -1.44 0.15 -0.56 0.01 -0.05 5.36 1.49zm-5.37 -1.44l0.01 -0.02 0.01 -0.02 -0.01 0.05zm5.51 0.97l-0.15 0.52 -5.34 -1.54 0.15 -0.52 0.02 -0.05 5.33 1.59zm-5.34 -1.54l0.01 -0.02 0.01 -0.03 -0.02 0.05zm5.48 1.11l-0.15 0.48 -5.31 -1.64 0.15 -0.48 0.02 -0.06 5.29 1.71zm-5.31 -1.64l0.01 -0.03 0.01 -0.03 -0.02 0.06zm5.44 1.26l-0.15 0.45 -5.27 -1.77 0.15 -0.45 0.03 -0.07 5.24 1.84zm-5.27 -1.77l0.01 -0.04 0.01 -0.04 -0.03 0.07zm5.39 1.43l-0.15 0.41 -5.22 -1.91 0.15 -0.41 0.03 -0.09 5.18 2zm-5.22 -1.91l0.02 -0.05 0.02 -0.04 -0.03 0.09zm5.33 1.63l-0.15 0.37 -5.15 -2.09 0.15 -0.37 0.04 -0.1 5.11 2.19zm-5.15 -2.09l0.02 -0.05 0.02 -0.05 -0.04 0.1zm5.26 1.86l-0.15 0.33 -5.06 -2.3 0.15 -0.33 0.06 -0.12 5 2.42zm-5.06 -2.3l0.03 -0.06 0.03 -0.06 -0.06 0.12zm5.15 2.13l-0.15 0.29 -4.94 -2.54 0.15 -0.29 0.08 -0.15 4.86 2.69zm-4.94 -2.54l0.04 -0.08 0.04 -0.07 -0.08 0.15zm5.01 2.44l-0.15 0.25 -4.78 -2.84 0.15 -0.25 0.12 -0.18 4.66 3.02zm-4.78 -2.84l0.06 -0.09 0.06 -0.09 -0.12 0.18zm4.81 2.81l-0.15 0.21 -4.54 -3.21 0.15 -0.21 0.18 -0.22 4.37 3.43zm-4.54 -3.21l0.08 -0.12 0.09 -0.11 -0.18 0.22zm4.52 3.26l-0.15 0.17 -4.19 -3.65 0.15 -0.17 0.25 -0.25 3.94 3.91zm-4.19 -3.65l0.12 -0.14 0.13 -0.12 -0.25 0.25zm4.09 3.77l-0.15 0.13 -3.69 -4.16 0.15 -0.13 0.37 -0.28 3.32 4.44zm-3.69 -4.16l0.17 -0.15 0.2 -0.12 -0.37 0.28zm3.47 4.34l-0.15 0.09 -2.94 -4.71 0.15 -0.09 0.54 -0.26 2.41 4.97zm-2.94 -4.71l0.25 -0.16 0.28 -0.1 -0.54 0.26zm2.56 4.92l-0.15 0.05 -1.87 -5.23 0.15 -0.05 0.67 -0.15 1.2 5.38zm-1.87 -5.23l0.33 -0.12 0.34 -0.03 -0.67 0.15zm1.35 5.37l-0.15 0.01 -0.53 -5.53 0.15 -0.01 0.72 0.03 -0.19 5.51zm-0.53 -5.53l0.36 -0.03 0.36 0.06 -0.72 -0.03zm-0.04 5.53l-0.15 -0.02 0.91 -5.48 0.15 0.02 0.64 0.19 -1.55 5.3zm0.91 -5.48l0.33 0.05 0.31 0.13 -0.64 -0.19zm-1.4 5.36l-0.15 -0.06 2.18 -5.11 0.15 0.06 0.47 0.26 -2.66 4.85zm2.18 -5.11l0.25 0.11 0.22 0.15 -0.47 -0.26zm-2.51 4.95l-0.15 -0.1 3.13 -4.59 0.15 0.1 0.33 0.27 -3.46 4.33zm3.13 -4.59l0.18 0.12 0.16 0.15 -0.33 -0.27zm-3.31 4.47l-0.15 -0.14 3.79 -4.06 0.15 0.14 0.23 0.24 -4.03 3.82zm3.79 -4.06l0.12 0.11 0.11 0.13 -0.23 -0.24zm-3.88 4l-0.15 -0.18 4.26 -3.57 0.15 0.18 0.15 0.2 -4.41 3.37zm4.26 -3.57l0.08 0.1 0.07 0.1 -0.15 -0.2zm-4.26 3.59l-0.15 -0.22 4.57 -3.17 0.15 0.22 0.11 0.17 -4.67 3zm4.57 -3.17l0.06 0.08 0.05 0.08 -0.11 -0.17zm-4.52 3.26l-0.15 -0.25 4.78 -2.84 0.15 0.25 0.08 0.14 -4.86 2.7zm4.78 -2.84l0.04 0.07 0.04 0.07 -0.08 -0.14zm-4.71 2.99l-0.15 -0.29 4.93 -2.56 0.15 0.29 0.06 0.12 -4.99 2.45zm4.93 -2.56l0.03 0.05 0.03 0.06 -0.06 -0.12zm-4.84 2.77l-0.15 -0.32 5.05 -2.33 0.15 0.32 0.04 0.1 -5.09 2.24zm5.05 -2.33l0.02 0.05 0.02 0.05 -0.04 -0.1zm-4.94 2.59l-0.15 -0.36 5.13 -2.14 0.15 0.36 0.03 0.07 -5.16 2.06zm5.13 -2.14l0.02 0.04 0.01 0.03 -0.03 -0.07zm-5.01 2.46l-0.15 -0.39 5.19 -1.99 0.15 0.39 0.03 0.08 -5.22 1.92zm5.19 -1.99l0.01 0.04 0.01 0.04 -0.03 -0.08zm-5.07 2.34l-0.15 -0.43 5.25 -1.84 0.15 0.43 0.02 0.06 -5.26 1.78zm5.25 -1.84l0.01 0.03 0.01 0.03 -0.02 -0.06zm-5.12 2.24l-0.15 -0.46 5.28 -1.72 0.15 0.46 0.02 0.05 -5.3 1.67zm5.28 -1.72l0.01 0.02 0.01 0.03 -0.02 -0.05zm-5.15 2.16l-0.15 -0.49 5.32 -1.62 0.15 0.49 0.01 0.05 -5.33 1.58zm5.32 -1.62l0.01 0.02 0.01 0.02 -0.01 -0.05zm-5.18 2.1l-0.15 -0.52 5.34 -1.53 0.15 0.52 0.01 0.04 -5.35 1.49zm5.34 -1.53l0.01 0.04 -0 -0.01 -0.01 -0.03zm-5.2 2.05l-0.15 -0.55 5.37 -1.45 0.15 0.55 0.01 0.03 -5.37 1.42zm5.37 -1.45l0 0.01 0.01 0.02 -0.01 -0.03zm-5.22 2l-0.15 -0.58 5.38 -1.39 0.15 0.58 0.01 0.03 -5.39 1.36zm5.38 -1.39l0 0.02 0 0.02 -0.01 -0.03zm-5.24 1.97l-0.15 -0.61 5.4 -1.33 0.15 0.61 0.01 0.03 -5.4 1.3zm5.4 -1.33l0 0.01 0 0.02 -0.01 -0.03zm-5.25 1.94l-0.15 -0.63 5.41 -1.28 0.15 0.63 0.01 0.03 -5.42 1.25zm5.41 -1.28l0 0.01 0 0.01 -0.01 -0.03zm-5.27 1.91l-0.15 -0.66 5.42 -1.23 0.15 0.66 0 0.02 -5.43 1.21zm5.42 -1.23l0 0.02 0 0 -0 -0.02zm-5.28 1.89l-0.15 -0.69 5.43 -1.19 0.15 0.69 0 0.02 -5.43 1.17zm5.43 -1.19l0 0.02 -0.01 -0.03 0 0.01zm-5.29 1.88l-0.15 -0.71 5.44 -1.15 0.15 0.71 0 0.02 -5.44 1.13zm5.44 -1.15l0.01 0.03 -0 -0.01 -0 -0.02zm-5.29 1.86l-0.15 -0.73 5.45 -1.11 0.15 0.73 0 0.01 -5.45 1.1zm5.45 -1.11l0 0.01 -0.01 -0.04 0 0.02zm-5.3 1.85l-0.15 -0.75 5.45 -1.09 0.15 0.75 0 0.02 -5.45 1.07zm5.45 -1.09l0 0.02 0 0.01 -0.01 -0.03zm-5.31 1.84l-0.15 -0.77 5.46 -1.05 0.15 0.77 0 0.01 -5.46 1.04zm5.46 -1.05l0 0.01 -0 -0.02 0 0.01zm-5.31 1.84l-0.15 -0.79 5.46 -1.03 0.15 0.79 0 0.01 -5.46 1.02zm5.46 -1.03l0 0.01 0 0.02 -0 -0.03zm-5.31 1.83l-0.15 -0.81 5.47 -1.01 0.15 0.81 0 0.01 -5.47 1zm5.47 -1.01l0 0.01 0 0 -0 -0.01zm-5.32 1.83l-0.15 -0.83 5.47 -0.99 0.15 0.83 0 0.01 -5.47 0.98zm5.47 -0.99l0 0.01 -0.01 -0.04 0 0.03zm-5.32 1.82l-0.15 -0.84 5.47 -0.97 0.15 0.84 0 0.01 -5.47 0.96zm5.47 -0.97l0 0.01 -0 -0.01 0 0zm-5.33 1.82l-0.15 -0.86 5.48 -0.95 0.15 0.86 0 0.01 -5.48 0.95zm5.48 -0.95l0 0.01 0.02 0.09 -0.02 -0.1zm-5.33 1.82l-0.15 -0.87 5.48 -0.94 0.15 0.87 0 0.01 -5.48 0.94zm5.48 -0.94l0 0.01 -0.01 -0.06 0.01 0.05zm-5.33 1.82l-0.15 -0.88 5.48 -0.93 0.15 0.88 0 0.01 -5.48 0.92zm5.48 -0.93l0 0.01 0 0.01 -0 -0.02zm-5.33 1.82l-0.15 -0.89 5.48 -0.92 0.15 0.89 0 0 -5.48 0.91zm5.48 -0.92l0 0 -0.01 -0.04 0.01 0.03zm-5.33 1.82l-0.15 -0.9 5.48 -0.91 0.15 0.9 0 0 -5.48 0.9zm5.48 -0.91l0 0.01 -0 -0 -0 -0zm-5.34 1.82l-0.15 -0.91 5.49 -0.9 0.15 0.91 0 0 -5.49 0.9zm5.49 -0.9l0 0.01 -0 -0.01 -0 -0zm-5.34 1.82l-0.15 -0.92 5.49 -0.89 0.15 0.92 0 0 -5.49 0.89zm0.15 0.92l-0.15 -0.93 5.49 -0.89 0.15 0.93 0 0 -5.49 0.89zm5.49 -0.89l0 0 0.02 0.1 -0.02 -0.1zm-5.34 1.82l-0.15 -0.93 5.49 -0.88 0.15 0.93 0 0 -5.49 0.88zm0.15 0.93l-0.15 -0.93 5.49 -0.88 0.15 0.93 0 0 -5.49 0.88zm0.15 0.93l-0.15 -0.94 5.49 -0.88 0.15 0.94 -5.49 0.88 0 -0zm0.15 0.94l-0.15 -0.94 5.49 -0.88 0.15 0.94 0 0 -5.49 0.88zm0.15 0.93l-0.15 -0.94 5.49 -0.88 0.15 0.94 -5.49 0.88 -0 -0zm0.15 0.94l-0.15 -0.93 5.49 -0.88 0.15 0.93 -5.49 0.88 -0 -0zm0.15 0.93l-0.15 -0.93 5.49 -0.88 0.15 0.93 -5.49 0.88 -0 -0zm0.15 0.93l-0.15 -0.93 5.49 -0.89 0.15 0.93 -5.49 0.89 0 -0zm0.15 0.92l-0.15 -0.92 5.49 -0.89 0.15 0.92 -5.49 0.89 -0 -0zm0 0l-0 -0 -0.02 -0.1 0.02 0.1zm0.15 0.92l-0.15 -0.92 5.49 -0.89 0.15 0.92 -5.49 0.9 -0 -0zm0 0l-0 -0 -0 -0.01 0 0.01zm0.15 0.91l-0.15 -0.91 5.49 -0.9 0.15 0.91 -5.48 0.91 -0 -0zm0 0l-0 -0 -0.01 -0.09 0.02 0.09zm0.15 0.9l-0.15 -0.9 5.48 -0.91 0.15 0.9 -5.48 0.91 -0 -0zm0 0l-0 -0 0.02 0.1 -0.02 -0.09zm0.15 0.89l-0.15 -0.89 5.48 -0.92 0.15 0.89 -5.48 0.92 -0 -0zm0 0l-0 -0 -0.01 -0.08 0.01 0.09zm0.15 0.88l-0.15 -0.88 5.48 -0.93 0.15 0.88 -5.48 0.93 -0 -0.01zm0 0.01l-0 -0.01 0.01 0.07 -0.01 -0.07zm0.15 0.87l-0.15 -0.87 5.48 -0.94 0.15 0.87 -5.48 0.95 -0 -0.01zm0 0.01l-0 -0.01 0 -0 0 0.01zm0.15 0.86l-0.15 -0.86 5.48 -0.95 0.15 0.86 -5.48 0.96 -0 -0.01zm0 0.01l-0 -0.01 -0.01 -0.06 0.01 0.07zm0.15 0.85l-0.15 -0.85 5.47 -0.97 0.15 0.85 -5.47 0.97 -0 -0.01zm0 0.01l-0 -0.01 -0 -0.01 0 0.01zm0.15 0.83l-0.15 -0.83 5.47 -0.98 0.15 0.83 -5.47 0.99 -0 -0.01zm0 0.01l-0 -0.01 0.01 0.06 -0.01 -0.05zm0.15 0.82l-0.15 -0.82 5.47 -1 0.15 0.82 -5.47 1.01 -0 -0.01zm0 0.01l-0 -0.02 0 0.01 0 0.01zm0.15 0.8l-0.15 -0.8 5.46 -1.02 0.15 0.8 -5.46 1.03 -0 -0.01zm0 0.01l-0 -0.01 -0.01 -0.05 0.01 0.06zm0.15 0.79l-0.15 -0.79 5.46 -1.04 0.15 0.79 -5.46 1.05 -0 -0.01zm0 0.01l-0 -0.01 0.01 0.06 -0.01 -0.05zm0.15 0.77l-0.15 -0.77 5.46 -1.06 0.15 0.77 -5.45 1.07 -0 -0.01zm0 0.01l-0 -0.01 -0.01 -0.04 0.01 0.05zm0.15 0.75l-0.15 -0.75 5.45 -1.08 0.15 0.75 -5.45 1.1 -0 -0.01zm0 0.01l-0 -0.01 0 0.02 -0 -0.01zm0.15 0.73l-0.15 -0.73 5.45 -1.11 0.15 0.73 -5.44 1.13 -0 -0.02zm0 0.02l-0 -0.02 0.01 0.04 -0 -0.02zm0.15 0.71l-0.15 -0.71 5.44 -1.14 0.15 0.71 -5.44 1.16 -0 -0.02zm0 0.02l-0 -0.02 -0 -0.01 0.01 0.03zm0.15 0.69l-0.15 -0.69 5.43 -1.17 0.15 0.69 -5.43 1.19 -0 -0.01zm0 0.01l-0 -0.01 0 0.01 0 0zm0.15 0.67l-0.15 -0.67 5.43 -1.2 0.15 0.67 -5.42 1.22 -0 -0.02zm0 0.02l-0 -0.02 -0 -0 0.01 0.02zm0.15 0.65l-0.15 -0.65 5.42 -1.24 0.15 0.65 -5.41 1.26 -0 -0.02zm0 0.02l-0 -0.02 0 0 0 0.02zm0.15 0.63l-0.15 -0.63 5.41 -1.28 0.15 0.63 -5.4 1.3 -0 -0.02zm0 0.02l-0 -0.02 0 0.01 0 0.01zm0.15 0.61l-0.15 -0.61 5.4 -1.32 0.15 0.61 -5.39 1.35 -0.01 -0.02zm0.01 0.02l0 0.01 -0.01 -0.03 0.01 0.02zm0.15 0.59l-0.15 -0.59 5.39 -1.37 0.15 0.59 -5.38 1.4 -0.01 -0.03zm0.01 0.03l-0 -0.02 -0 -0.01 0.01 0.03zm0.15 0.56l-0.15 -0.56 5.37 -1.42 0.15 0.56 -5.36 1.46 -0.01 -0.03zm0.01 0.03l-0 -0.01 -0.01 -0.03 0.01 0.03zm0.15 0.54l-0.15 -0.54 5.36 -1.49 0.15 0.54 -5.35 1.52 -0.01 -0.03zm0.01 0.03l-0.01 -0.03 -0 -0 0.01 0.03zm0.15 0.52l-0.15 -0.52 5.34 -1.55 0.15 0.52 -5.33 1.58 -0.01 -0.03zm0.01 0.03l-0 -0.01 -0.01 -0.02 0.01 0.03zm0.15 0.49l-0.15 -0.49 5.32 -1.61 0.15 0.49 -5.31 1.65 -0.01 -0.04zm0.01 0.04l-0 -0.01 -0.01 -0.03 0.01 0.04zm0.15 0.47l-0.15 -0.47 5.3 -1.69 0.15 0.47 -5.28 1.73 -0.01 -0.04zm0.01 0.04l-0.01 -0.02 -0.01 -0.02 0.01 0.04zm0.15 0.44l-0.15 -0.44 5.27 -1.78 0.15 0.44 -5.25 1.82 -0.02 -0.05zm0.02 0.05l-0.01 -0.02 -0.01 -0.02 0.02 0.05zm0.15 0.42l-0.15 -0.42 5.24 -1.87 0.15 0.42 -5.22 1.92 -0.02 -0.05zm0.02 0.05l-0.01 -0.03 -0.01 -0.02 0.02 0.05zm0.15 0.39l-0.15 -0.39 5.2 -1.97 0.15 0.39 -5.18 2.03 -0.02 -0.05zm0.02 0.05l-0.01 -0.02 -0.01 -0.03 0.02 0.05zm0.15 0.37l-0.15 -0.37 5.16 -2.08 0.15 0.37 -5.13 2.15 -0.03 -0.07zm0.03 0.07l-0.02 -0.04 -0.01 -0.02 0.03 0.07zm0.15 0.34l-0.15 -0.34 5.1 -2.22 0.15 0.34 -5.07 2.29 -0.03 -0.07zm0.03 0.07l-0.01 -0.03 -0.02 -0.04 0.03 0.07zm0.15 0.32l-0.15 -0.32 5.03 -2.36 0.15 0.32 -4.99 2.44 -0.04 -0.08zm0.04 0.08l-0.02 -0.04 -0.02 -0.04 0.04 0.08zm0.15 0.29l-0.15 -0.29 4.96 -2.52 0.15 0.29 -4.91 2.61 -0.05 -0.09zm0.05 0.09l-0.02 -0.04 -0.02 -0.04 0.05 0.09zm0.15 0.27l-0.15 -0.27 4.86 -2.7 0.15 0.27 -4.8 2.8 -0.06 -0.1zm0.06 0.1l-0.03 -0.05 -0.03 -0.05 0.06 0.1zm0.15 0.24l-0.15 -0.24 4.74 -2.9 0.15 0.24 -4.66 3.02 -0.08 -0.12zm0.08 0.12l-0.04 -0.06 -0.04 -0.06 0.08 0.12zm0.15 0.22l-0.15 -0.22 4.58 -3.15 0.15 0.22 -4.49 3.27 -0.09 -0.12zm0.09 0.12l-0.05 -0.06 -0.04 -0.06 0.09 0.12zm0.15 0.19l-0.15 -0.19 4.4 -3.39 0.15 0.19 -4.29 3.53 -0.12 -0.14zm0.12 0.14l-0.06 -0.07 -0.06 -0.07 0.12 0.14zm0.15 0.17l-0.15 -0.17 4.17 -3.67 0.15 0.17 -4.02 3.84 -0.16 -0.16zm0.16 0.16l-0.08 -0.08 -0.07 -0.08 0.16 0.16zm0.15 0.14l-0.15 -0.14 3.86 -4 0.15 0.14 -3.68 4.16 -0.18 -0.16zm0.18 0.16l-0.09 -0.08 -0.09 -0.09 0.18 0.16zm0.15 0.12l-0.15 -0.12 3.49 -4.33 0.15 0.12 -3.26 4.5 -0.24 -0.17zm0.24 0.17l-0.12 -0.08 -0.11 -0.09 0.24 0.17zm0.15 0.1l-0.15 -0.1 3.02 -4.67 0.15 0.1 -2.73 4.83 -0.29 -0.17zm0.29 0.17l-0.15 -0.07 -0.14 -0.09 0.29 0.17zm0.15 0.07l-0.15 -0.07 2.43 -5 0.15 0.07 -2.09 5.14 -0.34 -0.14zm0.34 0.14l-0.18 -0.06 -0.17 -0.08 0.34 0.14zm0.15 0.05l-0.15 -0.05 1.74 -5.28 0.15 0.05 -1.36 5.38 -0.38 -0.1zm0.38 0.1l-0.2 -0.03 -0.19 -0.06 0.38 0.1zm0.15 0.03l-0.15 -0.03 0.98 -5.47 0.15 0.03 -0.55 5.51 -0.42 -0.04zm0.42 0.04l-0.21 -0 -0.21 -0.04 0.42 0.04zm0.15 0l-0.15 -0 0.13 -5.56 0.15 0 0.28 5.54 -0.41 0.02zm0.41 -0.02l-0.2 0.03 -0.2 -0 0.41 -0.02zm0.15 -0.02l-0.15 0.02 -0.69 -5.52 0.15 -0.02 1.07 5.44 -0.38 0.08zm0.38 -0.08l-0.19 0.05 -0.19 0.02 0.38 -0.08zm0.15 -0.04l-0.15 0.04 -1.45 -5.37 0.15 -0.04 1.78 5.25 -0.33 0.11zm0.33 -0.11l-0.16 0.07 -0.17 0.05 0.33 -0.11zm0.15 -0.06l-0.15 0.06 -2.12 -5.14 0.15 -0.06 2.4 5.01 -0.28 0.13zm0.28 -0.13l-0.14 0.07 -0.15 0.06 0.28 -0.13zm8.87 -35.23l0.54 5.53 0.25 -0.04 0.4 -0.14 0.13 -0.09 -0.08 0.1 -0.2 0.29 -0.26 0.47 -0.29 0.63 -0.3 0.76 -0.31 0.88 -0.31 0.97 -0.31 1.06 -0.3 1.13 -0.3 1.19 -0.3 1.24 -0.3 1.28 -0.29 1.31 -0.29 1.32 -0.29 1.33 -0.29 1.33 -0.29 1.33 -0.29 1.31 -0.3 1.28 -0.3 1.25 -0.31 1.2 -0.32 1.15 -0.33 1.1 -0.34 1.04 -0.36 0.97 -0.39 0.91 -0.43 0.85 -0.52 0.81 -0.67 0.77 -0.94 0.7 -2.68 -4.87 -0.22 0.16 0.03 -0.04 0.17 -0.26 0.23 -0.45 0.26 -0.61 0.28 -0.75 0.28 -0.87 0.29 -0.97 0.29 -1.05 0.29 -1.12 0.29 -1.19 0.29 -1.24 0.29 -1.28 0.29 -1.31 0.29 -1.33 0.29 -1.34 0.3 -1.34 0.3 -1.33 0.3 -1.32 0.31 -1.29 0.32 -1.26 0.33 -1.22 0.34 -1.17 0.35 -1.12 0.37 -1.06 0.39 -1 0.43 -0.94 0.48 -0.88 0.56 -0.83 0.71 -0.77 0.94 -0.69 1.24 -0.46 0.25 -0.04zm-0.25 0.04l0.13 -0.02 0.13 -0.01 -0.25 0.04zm0.94 5.48l-0.15 0.01 -0.54 -5.53 0.15 -0.01 0.26 -0.01 0.28 5.55zm-0.54 -5.53l0.13 -0.01 0.13 -0 -0.26 0.01zm0.43 5.54l-0.15 0 -0.02 -5.56 0.15 -0 0.27 0.01 -0.24 5.55zm-0.02 -5.56l0.13 -0 0.13 0.01 -0.27 -0.01zm13.37 29.96l-3.36 4.43 -0.08 -0.06 -0.74 -0.72 -0.62 -0.78 -0.53 -0.84 -0.48 -0.9 -0.45 -0.96 -0.42 -1.01 -0.4 -1.07 -0.39 -1.12 -0.38 -1.16 -0.37 -1.2 -0.36 -1.24 -0.35 -1.26 -0.35 -1.28 -0.34 -1.29 -0.34 -1.29 -0.34 -1.28 -0.34 -1.27 -0.33 -1.24 -0.33 -1.21 -0.33 -1.17 -0.33 -1.11 -0.33 -1.05 -0.33 -0.98 -0.32 -0.89 -0.32 -0.8 -0.3 -0.68 -0.28 -0.55 -0.24 -0.4 -0.17 -0.22 -0.03 -0.03 0.21 0.12 0.47 0.12 0.51 -5.53 1.28 0.34 0.99 0.61 0.74 0.71 0.59 0.77 0.5 0.81 0.45 0.87 0.41 0.92 0.39 0.98 0.38 1.04 0.37 1.09 0.36 1.14 0.35 1.18 0.35 1.22 0.34 1.25 0.34 1.27 0.34 1.28 0.34 1.28 0.34 1.28 0.34 1.27 0.34 1.25 0.34 1.22 0.34 1.18 0.34 1.13 0.35 1.07 0.35 1 0.34 0.91 0.34 0.82 0.33 0.71 0.31 0.59 0.28 0.44 0.22 0.28 0.11 0.11 -0.08 -0.06zm-3.36 4.43l-0.04 -0.03 -0.04 -0.03 0.08 0.06zm0.15 0.11l-0.15 -0.11 3.36 -4.43 0.15 0.11 -3.26 4.5 -0.1 -0.07zm0.1 0.07l-0.05 -0.03 -0.05 -0.04 0.1 0.07zm0.15 0.1l-0.15 -0.1 3.17 -4.57 0.15 0.1 -3.07 4.63 -0.1 -0.06zm0.1 0.06l-0.05 -0.03 -0.05 -0.03 0.1 0.06zm0.15 0.09l-0.15 -0.09 2.97 -4.7 0.15 0.09 -2.87 4.76 -0.1 -0.06zm0.1 0.06l-0.06 -0.03 -0.05 -0.03 0.1 0.06zm0.15 0.09l-0.15 -0.09 2.77 -4.82 0.15 0.09 -2.65 4.89 -0.12 -0.07zm0.12 0.07l-0.06 -0.03 -0.06 -0.04 0.12 0.07zm0.15 0.08l-0.15 -0.08 2.53 -4.95 0.15 0.08 -2.4 5.01 -0.12 -0.06zm0.12 0.06l-0.06 -0.03 -0.06 -0.03 0.12 0.06zm0.15 0.07l-0.15 -0.07 2.28 -5.07 0.15 0.07 -2.16 5.12 -0.12 -0.05zm0.12 0.05l-0.06 -0.02 -0.06 -0.03 0.12 0.05zm0.15 0.06l-0.15 -0.06 2.04 -5.17 0.15 0.06 -1.9 5.22 -0.15 -0.05zm0.15 0.05l-0.08 -0.03 -0.07 -0.03 0.15 0.05zm0.15 0.05l-0.15 -0.05 1.75 -5.28 0.15 0.05 -1.61 5.32 -0.14 -0.04zm0.14 0.04l-0.07 -0.02 -0.07 -0.02 0.14 0.04zm0.15 0.04l-0.15 -0.04 1.47 -5.36 0.15 0.04 -1.32 5.4 -0.15 -0.04zm0.15 0.04l-0.07 -0.02 -0.08 -0.02 0.15 0.04zm0.15 0.03l-0.15 -0.03 1.17 -5.43 0.15 0.03 -1.02 5.46 -0.15 -0.03zm0.15 0.03l-0.08 -0.01 -0.08 -0.02 0.15 0.03zm0.15 0.02l-0.15 -0.02 0.87 -5.49 0.15 0.02 -0.71 5.51 -0.15 -0.02zm0.15 0.02l-0.07 -0.01 -0.08 -0.01 0.15 0.02zm0.15 0.02l-0.15 -0.02 0.56 -5.53 0.15 0.02 -0.4 5.54 -0.16 -0.01zm0.16 0.01l-0.08 -0 -0.08 -0.01 0.16 0.01zm0.15 0.01l-0.15 -0.01 0.24 -5.55 0.15 0.01 -0.1 5.56 -0.14 -0zm0.14 0l-0.07 0 -0.07 -0 0.14 0zm0.15 -0l-0.15 0 -0.03 -5.56 0.15 -0 0.2 5.55 -0.17 0.01zm0.17 -0.01l-0.08 0.01 -0.09 0 0.17 -0.01zm0.15 -0.01l-0.15 0.01 -0.37 -5.55 0.15 -0.01 0.49 5.54 -0.12 0.01zm0.12 -0.01l-0.06 0.01 -0.06 0 0.12 -0.01zm0.15 -0.02l-0.15 0.02 -0.62 -5.52 0.15 -0.02 0.77 5.5 -0.15 0.02zm0.15 -0.02l-0.08 0.01 -0.08 0.01 0.15 -0.02zm0.15 -0.03l-0.15 0.03 -0.92 -5.48 0.15 -0.03 1.05 5.46 -0.12 0.02zm0.12 -0.02l-0.06 0.01 -0.06 0.01 0.12 -0.02zm9.82 -14.11l0.15 5.56 0.09 -0 -0.12 0.01 -0.12 0.03 -0.13 0.04 -0.15 0.06 -0.17 0.09 -0.19 0.12 -0.21 0.15 -0.23 0.18 -0.24 0.21 -0.25 0.24 -0.26 0.27 -0.27 0.29 -0.27 0.31 -0.28 0.33 -0.28 0.35 -0.29 0.36 -0.29 0.37 -0.3 0.38 -0.31 0.39 -0.32 0.39 -0.33 0.39 -0.34 0.39 -0.35 0.39 -0.37 0.38 -0.39 0.38 -0.41 0.37 -0.44 0.35 -0.47 0.33 -0.51 0.31 -0.55 0.28 -0.6 0.23 -0.63 0.17 -1.17 -5.43 0.06 -0.02 0.08 -0.03 0.11 -0.06 0.15 -0.09 0.17 -0.12 0.19 -0.16 0.21 -0.19 0.23 -0.22 0.24 -0.25 0.25 -0.28 0.26 -0.31 0.27 -0.33 0.28 -0.35 0.29 -0.36 0.3 -0.38 0.3 -0.39 0.31 -0.39 0.32 -0.4 0.34 -0.4 0.35 -0.4 0.36 -0.4 0.38 -0.4 0.4 -0.39 0.43 -0.38 0.45 -0.36 0.48 -0.35 0.52 -0.32 0.55 -0.29 0.59 -0.25 0.63 -0.2 0.67 -0.14 0.69 -0.08 0.09 -0zm-0.09 0l0.05 -0 0.04 -0 -0.09 0zm0.39 5.55l-0.15 0 -0.15 -5.56 0.15 -0 0.1 -0 0.05 5.56zm-0.15 -5.56l0.05 -0 0.05 0 -0.1 0zm0.2 5.56l-0.15 -0 0.06 -5.56 0.15 0 0.1 0 -0.16 5.56zm0.06 -5.56l0.05 0 0.05 0 -0.1 -0zm-0.01 5.56l-0.15 -0.01 0.25 -5.55 0.15 0.01 0.09 0.01 -0.35 5.55zm0.25 -5.55l0.04 0 0.05 0 -0.09 -0.01zm-0.2 5.56l-0.15 -0.01 0.44 -5.54 0.15 0.01 0.09 0.01 -0.53 5.53zm0.44 -5.54l0.05 0 0.04 0 -0.09 -0.01zm-0.38 5.55l-0.15 -0.02 0.62 -5.52 0.15 0.02 0.1 0.01 -0.71 5.51zm0.62 -5.52l0.05 0.01 0.05 0.01 -0.1 -0.01zm-0.56 5.53l-0.15 -0.02 0.81 -5.5 0.15 0.02 0.08 0.01 -0.89 5.49zm0.81 -5.5l0.04 0.01 0.04 0.01 -0.08 -0.01zm12.03 8.55l-0.62 5.52 -0.06 -0.01 -0.69 -0.12 -0.67 -0.17 -0.64 -0.21 -0.61 -0.25 -0.58 -0.29 -0.55 -0.31 -0.52 -0.34 -0.49 -0.35 -0.47 -0.37 -0.44 -0.38 -0.42 -0.38 -0.41 -0.39 -0.39 -0.39 -0.37 -0.39 -0.36 -0.38 -0.35 -0.38 -0.34 -0.37 -0.33 -0.36 -0.32 -0.34 -0.31 -0.33 -0.3 -0.31 -0.3 -0.29 -0.29 -0.27 -0.28 -0.24 -0.27 -0.21 -0.25 -0.19 -0.24 -0.16 -0.23 -0.13 -0.21 -0.11 -0.2 -0.08 -0.19 -0.06 -0.19 -0.04 0.98 -5.47 0.65 0.15 0.62 0.2 0.59 0.24 0.56 0.27 0.53 0.3 0.5 0.32 0.47 0.34 0.45 0.36 0.42 0.37 0.41 0.37 0.39 0.38 0.38 0.38 0.36 0.38 0.35 0.38 0.34 0.37 0.34 0.36 0.33 0.35 0.32 0.34 0.32 0.33 0.31 0.31 0.31 0.29 0.3 0.27 0.3 0.25 0.29 0.23 0.29 0.21 0.28 0.18 0.27 0.16 0.27 0.13 0.26 0.11 0.26 0.09 0.26 0.07 0.27 0.05 -0.06 -0.01zm-0.62 5.52l-0.02 -0 -0.04 -0 0.06 0.01zm0.15 0.02l-0.15 -0.02 0.62 -5.52 0.15 0.02 -0.57 5.53 -0.05 -0zm0.05 0l-0.04 -0 -0.01 -0 0.05 0zm0.15 0.01l-0.15 -0.01 0.52 -5.53 0.15 0.01 -0.46 5.54 -0.06 -0zm0.06 0l-0.02 -0 -0.04 -0 0.06 0zm0.15 0.01l-0.15 -0.01 0.4 -5.54 0.15 0.01 -0.34 5.55 -0.06 -0zm0.06 0l-0.04 -0 -0.03 -0 0.06 0zm0.15 0.01l-0.15 -0.01 0.28 -5.55 0.15 0.01 -0.22 5.55 -0.06 -0zm0.06 0l-0.03 -0 -0.02 -0 0.06 0zm11.99 -8.92l-0.17 5.56 0.03 0 -0.25 0 -0.25 0.01 -0.26 0.03 -0.27 0.04 -0.28 0.05 -0.28 0.07 -0.29 0.08 -0.3 0.09 -0.31 0.1 -0.31 0.11 -0.32 0.12 -0.33 0.13 -0.34 0.14 -0.34 0.15 -0.35 0.15 -0.36 0.16 -0.37 0.16 -0.37 0.17 -0.38 0.17 -0.39 0.17 -0.4 0.16 -0.41 0.16 -0.42 0.15 -0.43 0.15 -0.44 0.14 -0.45 0.13 -0.46 0.11 -0.48 0.1 -0.49 0.08 -0.5 0.05 -0.51 0.03 -0.52 -0 0.16 -5.56 0.21 -0 0.22 -0.01 0.23 -0.02 0.24 -0.04 0.25 -0.05 0.26 -0.06 0.27 -0.08 0.28 -0.09 0.3 -0.1 0.3 -0.11 0.31 -0.12 0.33 -0.13 0.33 -0.14 0.34 -0.15 0.35 -0.16 0.36 -0.16 0.37 -0.16 0.38 -0.17 0.39 -0.17 0.4 -0.17 0.41 -0.16 0.42 -0.16 0.43 -0.15 0.44 -0.15 0.45 -0.14 0.47 -0.13 0.48 -0.11 0.49 -0.1 0.51 -0.08 0.52 -0.05 0.53 -0.03 0.54 -0 0.03 0zm-0.03 -0l0.03 0 -0 0 -0.03 -0zm0 5.56l-0.15 -0 0.17 -5.56 0.15 0 0.04 0 -0.21 5.55zm0.17 -5.56l0.02 0 0.02 0 -0.04 -0zm-0.06 5.56l-0.15 -0.01 0.25 -5.55 0.15 0.01 0.03 0 -0.29 5.55zm0.25 -5.55l0.01 0 0.02 0 -0.03 -0zm-0.14 5.56l-0.15 -0.01 0.32 -5.55 0.15 0.01 0.03 0 -0.35 5.55zm0.32 -5.55l0 0 0.03 0 -0.03 -0zm-0.2 5.56l-0.15 -0.01 0.38 -5.55 0.15 0.01 0.04 0 -0.41 5.54zm0.38 -5.55l0.03 0 0.01 0 -0.04 -0zm-0.26 5.56l-0.15 -0.01 0.45 -5.54 0.15 0.01 0.03 0 -0.48 5.54zm0.45 -5.54l0.01 0 0.03 0 -0.03 -0zm-0.33 5.55l-0.15 -0.01 0.52 -5.53 0.15 0.01 0.03 0 -0.55 5.53zm0.52 -5.53l0.03 0 -0.01 -0 -0.02 -0zm-0.4 5.55l-0.15 -0.02 0.57 -5.53 0.15 0.02 0.03 0 -0.61 5.53zm0.57 -5.53l0.03 0 0 0 -0.03 -0zm13.3 3.24l0.36 5.55 -0.02 0 -0.6 0.02 -0.59 0 -0.58 -0.02 -0.56 -0.04 -0.55 -0.06 -0.54 -0.07 -0.53 -0.09 -0.51 -0.1 -0.5 -0.11 -0.49 -0.12 -0.48 -0.13 -0.47 -0.14 -0.45 -0.14 -0.44 -0.15 -0.43 -0.15 -0.42 -0.15 -0.42 -0.15 -0.41 -0.15 -0.4 -0.15 -0.39 -0.15 -0.39 -0.14 -0.38 -0.14 -0.38 -0.13 -0.37 -0.12 -0.37 -0.12 -0.37 -0.11 -0.37 -0.1 -0.37 -0.09 -0.37 -0.08 -0.37 -0.07 -0.37 -0.06 -0.37 -0.05 0.64 -5.52 0.55 0.07 0.53 0.09 0.52 0.1 0.51 0.11 0.5 0.12 0.48 0.13 0.47 0.14 0.46 0.14 0.45 0.15 0.44 0.15 0.43 0.15 0.42 0.15 0.41 0.15 0.4 0.15 0.39 0.15 0.39 0.14 0.38 0.14 0.38 0.13 0.37 0.12 0.37 0.12 0.36 0.11 0.36 0.1 0.36 0.09 0.36 0.08 0.36 0.07 0.36 0.06 0.36 0.05 0.37 0.04 0.37 0.03 0.38 0.01 0.39 -0 0.4 -0.02 -0.02 0zm0.36 5.55l-0.02 0 0.04 -0 -0.02 0zm0.15 -0.01l-0.15 0.01 -0.36 -5.55 0.15 -0.01 0.37 5.55 -0.01 0zm0.01 -0l-0.01 0 -0.03 0 0.04 -0zm0.15 -0.01l-0.15 0.01 -0.38 -5.55 0.15 -0.01 0.4 5.54 -0.02 0zm0.02 -0l-0.01 0 -0.01 0 0.02 -0zm0.15 -0.01l-0.15 0.01 -0.41 -5.54 0.15 -0.01 0.43 5.54 -0.01 0zm0.01 -0l-0.01 0 0.07 -0 -0.05 0zm0.15 -0.01l-0.15 0.01 -0.44 -5.54 0.15 -0.01 0.44 5.54 -0.01 0zm0.01 -0l-0.01 0 -0.1 0.01 0.11 -0.01zm0.15 -0.01l-0.15 0.01 -0.45 -5.54 0.15 -0.01 0.47 5.54 -0.02 0zm0.02 -0l-0.02 0 0.03 -0 -0 0zm0.15 -0.01l-0.15 0.01 -0.49 -5.54 0.15 -0.01 0.49 5.54zm-0.49 -5.54c1.53,-0.14 2.88,0.99 3.02,2.52 0.14,1.53 -0.99,2.88 -2.52,3.02l-0.49 -5.54z"/>
   </g>
   <g>
    <path fill="#B3B3B3" d="M120.55 145.28c-2.79,2.19 -5.83,4.06 -9.08,5.57 1.04,-2.14 1.85,-4.89 2.58,-7.88 1.67,-1.08 3.25,-2.27 4.74,-3.58 0.55,2.04 1.13,4.04 1.76,5.89zm-19 8.89c-3.15,0.67 -6.41,1.03 -9.76,1.03 -3.99,0 -7.87,-0.5 -11.57,-1.45 2.49,-0.68 4.27,-2.36 5.58,-4.65 1.95,0.28 3.95,0.43 5.97,0.43 2.22,0 4.39,-0.18 6.51,-0.52l0.02 0.05c0.17,0.46 0.35,0.89 0.54,1.34l0.21 0.43 0.06 0.15 0.15 0.29 0.1 0.15 0.24 0.44 0.28 0.45 0.15 0.22 0.51 0.67 0.15 0.17 0.59 0.58 0.25 0.21zm-9.77 -86.73c22.67,0 41.05,18.38 41.05,41.05 0,8.08 -2.34,15.62 -6.37,21.97 0.28,1.02 0.55,2.05 0.82,3.08 0.35,1.35 0.71,2.7 1.06,4 6.32,-7.96 10.1,-18.03 10.1,-28.99 0,-25.76 -20.88,-46.64 -46.64,-46.64l-0.01 5.53 0 0z"/>
   </g>
   <path id="_3979f2be-e166-4043-b147-6c633d94aa2b.svg_1" fill="#B3B3B3" fill-rule="nonzero" d="M182.68 69.47c-1.79,2.56 -1.99,2.72 -3.97,5.05 -2.69,3.22 -5.46,6.22 -8.35,9.31 -0.47,0.59 -1.03,1.06 -1.69,1.42 -1.08,0.43 -6.69,-0.06 -10.84,-0.43 -6.02,-0.53 -12.36,-1.08 -15.77,-0.33 -1.7,0.27 -3.14,1.19 -3.99,2.58 -1.56,2.27 -1.8,5.81 -0.87,10.71 -2.33,-1.25 -4.5,-2.07 -6.55,-2.54 -5.51,-16.17 -20.83,-27.81 -38.86,-27.81 -3.59,0 -7.07,0.46 -10.38,1.33 1.27,-3.4 2.57,-6.87 4.12,-10.14 4.78,-10.36 10.85,-19.98 18.11,-28.76 1.41,-1.76 2.91,-3.41 4.31,-5.06 5.82,-6.71 11.87,-13.71 14.44,-22.8 0.59,-1.94 1.01,-2 1.01,-2 0.31,0.03 0.51,0.15 0.71,0.27 3.19,1.85 5.38,5.49 6.14,9.95 0.69,4.04 0.23,8.08 -0.4,12.94 -0.05,0.62 0.31,1.28 0.81,1.54l1.81 0.89c4.32,2.05 8.84,4.23 13.05,6.27 1.3,0.64 2.51,1.27 3.38,2.07 1.45,1.38 2.1,3.53 2.84,5.79 1.23,4.42 -0.08,4.51 -2.43,8.77l28 15.85c0.57,-0.02 6.23,1.7 6.3,2.91 -0.12,0.69 -0.45,1.62 -0.92,2.21z"/>
   <path id="_3979f2be-e166-4043-b147-6c633d94aa2b.svg_2" fill="#B3B3B3" fill-rule="nonzero" d="M146.29 27.74c2.96,-11.15 -2.14,-17.45 -5.35,-20.14 -0.39,-0.35 -1.01,-0.4 -1.46,-0.02 -0.34,0.28 -0.47,0.59 -0.51,1 0.36,7.88 -5.07,13.68 -5.07,13.68l12.39 5.48z"/>
  </g>
 </g>
</svg>
