<?xml version="1.0" encoding="UTF-8"?>
<!DOCTYPE svg PUBLIC "-//W3C//DTD SVG 1.0//EN" "http://www.w3.org/TR/2001/REC-SVG-20010904/DTD/svg10.dtd">
<!-- Creator: CorelDRAW -->
<svg xmlns="http://www.w3.org/2000/svg" xml:space="preserve" width="6.05974in" height="1.96852in" version="1.0" shape-rendering="geometricPrecision" text-rendering="geometricPrecision" image-rendering="optimizeQuality" fill-rule="evenodd" clip-rule="evenodd"
viewBox="0 0 1232.04 400.23"
 xmlns:xlink="http://www.w3.org/1999/xlink"
 xmlns:xodm="http://www.corel.com/coreldraw/odm/2003">
 <g id="Layer_x0020_1">
  <metadata id="CorelCorpID_0Corel-Layer"/>
  <g id="_1375682584880">
   <g>
    <path fill="black" fill-rule="nonzero" d="M535.81 138.77l25.56 0c7.21,0 13.77,2.96 18.55,7.72l0.04 0.04c4.75,4.78 7.7,11.34 7.7,18.53l0 200.64 -14.12 -18.32 0 -182.33c0,-3.36 -1.36,-6.4 -3.56,-8.6l-0.03 -0.03c-2.19,-2.19 -5.24,-3.56 -8.6,-3.56l-25.56 0c-3.34,0 -6.39,1.37 -8.6,3.58 -2.21,2.21 -3.58,5.25 -3.58,8.6l0 208.86c0,3.36 1.36,6.4 3.56,8.6l0.03 0.03c2.19,2.19 5.24,3.56 8.6,3.56l25.56 0c3.24,0 6.19,-1.27 8.36,-3.33 0.52,-0.49 1,-1.03 1.43,-1.6l8.75 11.35c-0.15,0.15 -0.31,0.31 -0.47,0.46 -4.73,4.48 -11.1,7.25 -18.07,7.25l-25.56 0c-7.21,0 -13.77,-2.96 -18.55,-7.72l-0.04 -0.04c-4.75,-4.77 -7.7,-11.34 -7.7,-18.53l0 -208.86c0,-7.24 2.96,-13.82 7.72,-18.58 4.76,-4.76 11.34,-7.72 18.58,-7.72z"/>
    <path fill="none" stroke="black" stroke-width="14.12" stroke-linecap="round" stroke-linejoin="round" stroke-miterlimit="22.9256" d="M672.66 145.83l0 228.1c0,10.58 -8.66,19.24 -19.24,19.24l-25.56 0c-10.58,0 -19.24,-8.66 -19.24,-19.24l0 -228.1"/>
    <rect fill="none" stroke="black" stroke-width="14.12" stroke-linecap="round" stroke-linejoin="round" stroke-miterlimit="22.9256" x="1068.89" y="145.82" width="64.04" height="247.34" rx="19.24" ry="28.39"/>
    <g>
     <path fill="none" stroke="black" stroke-width="14.12" stroke-linecap="round" stroke-linejoin="round" stroke-miterlimit="22.9256" d="M700.68 393.17l0 -247.34 44.8 0c10.58,0 19.24,8.66 19.24,19.24"/>
     <path fill="none" stroke="black" stroke-width="14.12" stroke-linecap="round" stroke-linejoin="round" stroke-miterlimit="22.9256" d="M764.72 165.07l0 81.06c0,10.58 -8.66,19.24 -19.24,19.24l-44.8 0"/>
     <path fill="none" stroke="black" stroke-width="14.12" stroke-linecap="round" stroke-linejoin="round" stroke-miterlimit="22.9256" d="M745.48 265.37c10.58,0 19.24,8.66 19.24,19.24l0 108.56"/>
    </g>
    <g>
     <path fill="none" stroke="black" stroke-width="14.12" stroke-linecap="round" stroke-linejoin="round" stroke-miterlimit="22.9256" d="M884.78 393.17l0 -247.34 44.8 0c10.58,0 19.24,8.66 19.24,19.24"/>
     <path fill="none" stroke="black" stroke-width="14.12" stroke-linecap="round" stroke-linejoin="round" stroke-miterlimit="22.9256" d="M948.82 165.07l0 65.05m-19.24 35.25l-44.8 0"/>
     <path fill="none" stroke="black" stroke-width="14.12" stroke-linecap="round" stroke-linejoin="round" stroke-miterlimit="22.9256" d="M948.82 300.62l0 73.31c0,10.57 -8.67,19.24 -19.24,19.24l-42.82 0c-1.09,0 -1.98,-0.89 -1.98,-1.98"/>
    </g>
    <g>
     <path fill="none" stroke="black" stroke-width="14.12" stroke-linecap="round" stroke-linejoin="round" stroke-miterlimit="22.9256" d="M976.84 393.17l0 -247.34 44.8 0c10.58,0 19.24,8.66 19.24,19.24"/>
     <path fill="none" stroke="black" stroke-width="14.12" stroke-linecap="round" stroke-linejoin="round" stroke-miterlimit="22.9256" d="M1040.87 165.07l0 81.06c0,10.58 -8.66,19.24 -19.24,19.24l-44.8 0"/>
     <path fill="none" stroke="black" stroke-width="14.12" stroke-linecap="round" stroke-linejoin="round" stroke-miterlimit="22.9256" d="M1021.63 265.37c10.58,0 19.24,8.66 19.24,19.24l0 108.56"/>
    </g>
    <path fill="none" stroke="black" stroke-width="14.12" stroke-linecap="round" stroke-linejoin="round" stroke-miterlimit="22.9256" d="M856.77 145.83l-12.01 228.1c-0.5,9.5 -10.77,19.38 -19.98,19.24 -8.92,-0.13 -19.47,-8.43 -20.04,-19.24l-12.01 -228.1"/>
    <path fill="none" stroke="black" stroke-width="14.12" stroke-linecap="round" stroke-linejoin="round" stroke-miterlimit="22.9256" d="M1224.98 230.32l0 -65.26c0,-10.58 -8.66,-19.24 -19.24,-19.24l-25.56 0c-10.58,0 -19.24,8.66 -19.24,19.24l0 65.05 64.04 70.5 0 73.31c0,10.58 -8.66,19.24 -19.24,19.24l-25.56 0c-10.58,0 -19.24,-8.66 -19.24,-19.24l0 -73.87"/>
    <line fill="none" stroke="black" stroke-width="14.12" stroke-linecap="round" stroke-linejoin="round" stroke-miterlimit="22.9256" x1="551.72" y1="337.52" x2="594.62" y2= "393.17" />
   </g>
   <g>
    <g>
     <path id="_3979f2be-e166-4043-b147-6c633d94aa2b.svg" fill="black" fill-rule="nonzero" d="M217.07 158.99c1.11,-2.63 2.26,-5.24 3.47,-7.8 12.32,-26.71 27.98,-51.51 46.69,-74.16 3.63,-4.54 7.51,-8.78 11.13,-13.06 15,-17.3 30.61,-35.36 37.25,-58.8 1.52,-4.99 2.61,-5.17 2.61,-5.17 0.8,0.07 1.32,0.39 1.83,0.7 8.22,4.77 13.87,14.16 15.83,25.67 1.79,10.41 0.61,20.83 -1.03,33.37 -0.14,1.61 0.79,3.31 2.08,3.96l4.66 2.3c11.14,5.29 22.79,10.9 33.66,16.17 3.37,1.64 6.46,3.26 8.71,5.35 3.73,3.56 5.41,9.11 7.33,14.94 3.17,11.4 -0.21,11.62 -6.27,22.63l72.21 40.88c1.47,-0.06 16.06,4.39 16.24,7.5 -0.3,1.77 -1.16,4.18 -2.37,5.69 -4.63,6.61 -5.12,7 -10.23,13.03 -6.93,8.3 -14.08,16.04 -21.53,24.02 -1.21,1.51 -2.67,2.74 -4.37,3.67 -2.79,1.1 -17.25,-0.16 -27.96,-1.1 -15.53,-1.36 -31.86,-2.79 -40.66,-0.86 -4.38,0.7 -8.09,3.07 -10.3,6.65 -4.02,5.85 -4.65,14.99 -2.25,27.61 2.16,9.06 3.22,18.46 3.22,27.76 0,28.25 -9.75,54.23 -26.05,74.76 -0.91,-3.34 -1.82,-6.84 -2.74,-10.31 -0.7,-2.67 -1.4,-5.33 -2.12,-7.95 10.41,-16.38 16.43,-35.82 16.43,-56.66 0,-49.18 -33.54,-90.52 -78.99,-102.41 -8.58,-2.24 -17.58,-4.39 -26.86,-4.39 -6.71,0 -13.66,0.52 -20.02,1.71l0.39 -13.43 0 -2.27zm93.81 215.67c-7.19,5.64 -15.04,10.47 -23.42,14.37 2.68,-5.53 4.77,-12.6 6.66,-20.32 4.3,-2.78 8.38,-5.87 12.22,-9.22 1.43,5.27 2.92,10.42 4.54,15.18zm-48.99 22.92c-8.11,1.73 -16.53,2.64 -25.16,2.64 -10.3,0 -20.3,-1.3 -29.84,-3.73 6.43,-1.74 11.01,-6.08 14.4,-11.98 5.03,0.73 10.17,1.12 15.41,1.12 5.72,0 11.33,-0.46 16.8,-1.33l0.06 0.12c0.45,1.17 0.9,2.3 1.4,3.45l0.53 1.12 0.15 0.39 0.39 0.76 0.25 0.39 0.63 1.13 0.73 1.17 0.39 0.56 1.32 1.73 0.39 0.44 1.52 1.49 0.66 0.53z"/>
    </g>
    <path id="_3979f2be-e166-4043-b147-6c633d94aa2b.svg_0" fill="black" fill-rule="nonzero" d="M377.25 71.55c7.64,-28.74 -5.51,-45 -13.8,-51.93 -1,-0.9 -2.61,-1.04 -3.77,-0.06 -0.87,0.73 -1.21,1.51 -1.3,2.58 0.92,20.32 -13.07,35.28 -13.07,35.28l31.95 14.13z"/>
    <path id="_3979f2be-e166-4043-b147-6c633d94aa2b.svg_1" fill="black" fill-rule="nonzero" d="M96.08 71.55l0 0c-7.64,-28.74 5.51,-45 13.8,-51.93 1,-0.9 2.61,-1.04 3.77,-0.06 0.87,0.73 1.21,1.51 1.3,2.58 -0.92,20.32 13.07,35.28 13.07,35.28l-31.95 14.13z"/>
    <path id="_3979f2be-e166-4043-b147-6c633d94aa2b.svg_2" fill="black" fill-rule="nonzero" d="M2.37 179.14c4.63,6.61 5.12,7 10.23,13.03 6.93,8.3 14.08,16.04 21.53,24.02 1.21,1.51 2.67,2.73 4.37,3.67 2.8,1.1 17.25,-0.16 27.97,-1.1 15.53,-1.36 31.86,-2.79 40.66,-0.86 4.38,0.7 8.09,3.07 10.3,6.65 4.02,5.85 4.59,15.23 2.19,27.85 5.97,-3.21 11.54,-5.3 16.78,-6.52 14.13,-41.83 53.7,-71.95 100.31,-71.95 9.28,0 18.28,1.2 26.86,3.44 -3.28,-8.78 -6.63,-17.75 -10.63,-26.19 -12.32,-26.71 -27.98,-51.51 -46.69,-74.16 -3.63,-4.54 -7.51,-8.79 -11.13,-13.06 -15,-17.3 -30.61,-35.36 -37.25,-58.8 -1.52,-4.99 -2.61,-5.17 -2.61,-5.17 -0.8,0.07 -1.32,0.39 -1.83,0.7 -8.22,4.77 -13.87,14.16 -15.83,25.67 -1.79,10.41 -0.61,20.83 1.03,33.37 0.14,1.61 -0.79,3.31 -2.08,3.96l-4.66 2.3c-11.14,5.29 -22.79,10.9 -33.66,16.17 -3.36,1.64 -6.46,3.26 -8.71,5.35 -3.74,3.57 -5.41,9.11 -7.33,14.94 -3.17,11.4 0.21,11.62 6.27,22.63l-72.21 40.88c-1.47,-0.06 -16.06,4.39 -16.24,7.5 0.3,1.77 1.16,4.18 2.37,5.69z"/>
    <g>
     <path fill="black" fill-rule="nonzero" d="M201.49 164.66c3.78,-1.19 7.8,0.91 8.99,4.69 1.19,3.78 -0.91,7.8 -4.69,8.99l-4.3 -13.68zm-70.71 115.28l-14.33 0 0 0 0.1 -5.06 0.31 -5.01 0.51 -4.95 0.71 -4.89 0.91 -4.82 1.1 -4.75 1.28 -4.68 1.46 -4.6 1.64 -4.52 1.81 -4.43 1.98 -4.34 2.15 -4.24 2.31 -4.15 2.46 -4.04 2.62 -3.94 2.76 -3.82 2.91 -3.71 3.04 -3.59 3.18 -3.47 3.31 -3.34 3.44 -3.22 3.56 -3.08 3.68 -2.94 3.8 -2.8 3.91 -2.66 4.01 -2.51 4.12 -2.36 4.21 -2.2 4.31 -2.04 4.4 -1.87 4.48 -1.71 4.57 -1.53 4.3 13.68 -4.03 1.35 -3.96 1.51 -3.88 1.65 -3.8 1.8 -3.72 1.94 -3.63 2.08 -3.54 2.22 -3.45 2.35 -3.35 2.47 -3.25 2.6 -3.14 2.72 -3.04 2.84 -2.92 2.95 -2.81 3.06 -2.69 3.17 -2.56 3.27 -2.44 3.37 -2.3 3.47 -2.17 3.56 -2.03 3.65 -1.89 3.74 -1.74 3.82 -1.6 3.9 -1.44 3.97 -1.29 4.05 -1.13 4.12 -0.96 4.18 -0.8 4.25 -0.63 4.31 -0.45 4.36 -0.27 4.42 -0.09 4.47 0 0zm57.51 94.51l-5.64 13.18 -0.43 -0.2 -3.74 -1.99 -3.65 -2.11 -3.56 -2.23 -3.47 -2.34 -3.37 -2.45 -3.27 -2.56 -3.17 -2.66 -3.07 -2.76 -2.97 -2.86 -2.87 -2.96 -2.76 -3.05 -2.65 -3.13 -2.54 -3.22 -2.43 -3.3 -2.31 -3.38 -2.2 -3.45 -2.08 -3.53 -1.96 -3.6 -1.84 -3.66 -1.71 -3.73 -1.59 -3.79 -1.46 -3.85 -1.33 -3.9 -1.2 -3.95 -1.06 -4 -0.93 -4.04 -0.79 -4.08 -0.65 -4.12 -0.51 -4.16 -0.37 -4.19 -0.22 -4.22 -0.07 -4.24 14.33 0 0.07 3.74 0.19 3.72 0.32 3.69 0.45 3.66 0.57 3.63 0.7 3.6 0.82 3.56 0.94 3.52 1.05 3.48 1.17 3.44 1.28 3.39 1.4 3.34 1.51 3.29 1.62 3.23 1.72 3.17 1.83 3.11 1.94 3.04 2.04 2.98 2.14 2.91 2.24 2.84 2.33 2.76 2.43 2.68 2.52 2.6 2.62 2.52 2.71 2.43 2.8 2.34 2.88 2.25 2.97 2.16 3.05 2.06 3.13 1.96 3.22 1.86 3.29 1.75 -0.43 -0.2zm-5.64 13.18l-0.22 -0.1 -0.21 -0.11 0.43 0.2zm27.27 -39.66l14.19 2.01 -0 0.02 -0.23 1.69 -0.23 1.75 -0.22 1.81 -0.23 1.85 -0.23 1.89 -0.25 1.92 -0.27 1.93 -0.3 1.95 -0.34 1.95 -0.38 1.95 -0.44 1.95 -0.5 1.94 -0.58 1.92 -0.67 1.9 -0.78 1.87 -0.9 1.84 -1.05 1.79 -1.22 1.73 -1.4 1.64 -1.6 1.52 -1.81 1.36 -2 1.16 -2.16 0.93 -2.3 0.68 -2.39 0.41 -2.47 0.16 -2.55 -0.08 -2.61 -0.32 -2.69 -0.54 -2.78 -0.76 -2.88 -0.98 -2.99 -1.2 5.64 -13.18 2.34 0.93 2.11 0.72 1.89 0.52 1.66 0.34 1.44 0.18 1.22 0.04 1.01 -0.06 0.82 -0.14 0.67 -0.2 0.56 -0.24 0.5 -0.29 0.48 -0.36 0.47 -0.45 0.48 -0.57 0.49 -0.69 0.49 -0.83 0.48 -0.97 0.46 -1.1 0.43 -1.22 0.4 -1.34 0.37 -1.44 0.34 -1.52 0.31 -1.6 0.29 -1.67 0.27 -1.72 0.25 -1.76 0.23 -1.8 0.23 -1.83 0.22 -1.85 0.23 -1.85 0.24 -1.86 0.26 -1.85 -0 0.02zm14.19 2.01l-0 0.02 -0.02 0.11 0.02 -0.13zm0.39 -2.71l-0.39 2.71 -14.19 -2.01 0.39 -2.71 14.19 2 -0 0.01zm0 -0.01l-0 0.01 0.05 -0.34 -0.04 0.32zm0.39 -2.76l-0.39 2.76 -14.2 -1.99 0.39 -2.76 14.2 1.98 -0 0.01zm0 -0.01l-0 0.01 -0.01 0.1 0.02 -0.11zm0.39 -2.79l-0.39 2.79 -14.2 -1.96 0.39 -2.79 14.2 1.95 -0 0.01zm0 -0.01l-0 0.01 -0.03 0.25 0.03 -0.25zm0.39 -2.82l-0.39 2.82 -14.2 -1.95 0.39 -2.82 14.2 1.93 -0 0.01zm0 -0.01l-0 0.03 0 -0.01 0 -0.01zm0.39 -2.85l-0.39 2.85 -14.2 -1.92 0.39 -2.85 14.21 1.92 -0 0zm0.39 -2.87l-0.39 2.87 -14.21 -1.92 0.39 -2.87 14.21 1.91 -0 0zm0.39 -2.88l-0.39 2.88 -14.21 -1.91 0.39 -2.88 14.21 1.9 0 0zm0.39 -2.89l-0.39 2.89 -14.21 -1.9 0.39 -2.89 14.21 1.9 -0 0zm0.39 -2.9l-0.39 2.9 -14.21 -1.89 0.39 -2.9 14.21 1.89 0 0zm0.39 -2.89l-0.39 2.89 -14.21 -1.89 0.39 -2.89 0 -0 14.21 1.89zm0.39 -2.89l-0.39 2.89 -14.21 -1.9 0.39 -2.89 0 -0.01 14.21 1.9zm0.39 -2.87l-0.39 2.88 -14.21 -1.91 0.39 -2.88 0 -0 14.21 1.91zm0.39 -2.86l-0.39 2.86 -14.21 -1.92 0.39 -2.86 0 -0 14.21 1.92zm0.38 -2.84l-0.39 2.84 -14.2 -1.93 0.39 -2.84 0 -0.01 14.2 1.93zm-14.2 -1.93l0 -0.01 -0.04 0.3 0.04 -0.29zm14.59 -0.88l-0.39 2.82 -14.2 -1.94 0.39 -2.82 0 -0.01 14.2 1.96zm-14.2 -1.94l0 -0.01 0.01 -0.08 -0.01 0.1zm14.59 -0.83l-0.39 2.79 -14.2 -1.97 0.39 -2.79 0 -0.01 14.2 1.98zm-14.2 -1.97l0 -0.01 0.05 -0.39 -0.06 0.4zm14.58 -0.78l-0.39 2.75 -14.2 -1.99 0.39 -2.75 0 -0.01 14.2 2zm-14.2 -1.99l0 -0.01 -0 0.02 0 -0.01zm14.58 -0.72l-0.39 2.72 -14.19 -2.01 0.39 -2.72 0 -0.02 14.19 2.03zm-14.19 -2.01l0 -0.02 -0.03 0.23 0.03 -0.21zm14.58 -0.64l-0.39 2.67 -14.19 -2.05 0.39 -2.67 0 -0.02 14.18 2.07zm-14.19 -2.05l-0 0 0 -0.03 -0 0.02zm14.57 -0.56l-0.39 2.63 -14.18 -2.09 0.39 -2.63 0 -0.02 14.18 2.11zm-14.18 -2.09l0 -0.02 0.04 -0.29 -0.04 0.3zm14.57 -0.47l-0.39 2.58 -14.18 -2.12 0.39 -2.58 0 -0.02 14.17 2.14zm-14.18 -2.12l0 -0.02 -0.03 0.2 0.03 -0.18zm14.56 -0.38l-0.39 2.52 -14.17 -2.17 0.39 -2.52 0 -0.02 14.17 2.19zm-14.17 -2.17l0 -0.02 0.02 -0.1 -0.02 0.13zm14.55 -0.28l-0.39 2.47 -14.16 -2.21 0.39 -2.47 0 -0.03 14.16 2.24zm-14.16 -2.21l0 -0.03 -0.01 0.04 0 -0.01zm14.54 -0.16l-0.39 2.4 -14.15 -2.27 0.39 -2.4 0.01 -0.03 14.15 2.31zm-14.15 -2.27l-0 0.01 0.01 -0.04 -0.01 0.03zm14.53 -0.03l-0.39 2.34 -14.14 -2.34 0.39 -2.34 0 -0.03 14.14 2.37zm-14.14 -2.34l0 -0.03 0.01 -0.05 -0.01 0.08zm14.52 0.1l-0.39 2.27 -14.13 -2.4 0.39 -2.27 0.01 -0.04 14.13 2.44zm-14.13 -2.4l0.01 -0.04 0 -0.02 -0.01 0.06zm14.51 0.24l-0.39 2.2 -14.12 -2.48 0.39 -2.2 0.01 -0.04 14.11 2.52zm-14.12 -2.48l0.01 -0.04 -0.02 0.11 0.01 -0.07zm14.5 0.39l-0.39 2.13 -14.1 -2.56 0.39 -2.13 0.01 -0.05 14.1 2.61zm-14.1 -2.56l0.01 -0.05 0.01 -0.05 -0.02 0.1zm14.48 0.56l-0.39 2.05 -14.09 -2.66 0.39 -2.05 0.01 -0.05 14.08 2.71zm-14.09 -2.66l-0.01 0.03 0.02 -0.08 -0.01 0.05zm14.46 0.74l-0.39 1.97 -14.07 -2.76 0.39 -1.97 0.01 -0.06 14.06 2.81zm-14.07 -2.76l0.01 -0.06 -0 0.01 -0.01 0.05zm14.44 0.93l-0.39 1.88 -14.04 -2.87 0.39 -1.88 0.01 -0.07 14.03 2.94zm-14.04 -2.87l0.01 -0.07 -0.02 0.08 0 -0.02zm14.42 1.14l-0.39 1.8 -14.02 -3 0.39 -1.8 0.02 -0.08 14 3.08zm-14.02 -3l0.02 -0.08 -0.01 0.03 -0.01 0.05zm14.39 1.37l-0.39 1.71 -13.98 -3.16 0.39 -1.71 0.02 -0.08 13.96 3.24zm-13.98 -3.16l0.02 -0.08 0 -0.02 -0.02 0.1zm14.35 1.62l-0.39 1.62 -13.95 -3.32 0.39 -1.62 0.02 -0.09 13.92 3.41zm-13.95 -3.32l0.01 -0.04 0.01 -0.05 -0.02 0.09zm14.31 1.88l-0.39 1.53 -13.9 -3.5 0.39 -1.53 0.03 -0.11 13.87 3.6zm-13.9 -3.5l0.01 -0.03 0.02 -0.08 -0.03 0.11zm14.26 2.17l-0.39 1.44 -13.85 -3.71 0.39 -1.44 0.03 -0.12 13.81 3.83zm-13.85 -3.71l0.02 -0.06 0.02 -0.06 -0.03 0.12zm14.2 2.49l-0.39 1.35 -13.78 -3.96 0.39 -1.35 0.04 -0.14 13.74 4.1zm-13.78 -3.96l0.02 -0.06 0.03 -0.08 -0.04 0.14zm14.12 2.85l-0.39 1.25 -13.69 -4.24 0.39 -1.25 0.05 -0.16 13.64 4.4zm-13.69 -4.24l0.03 -0.08 0.03 -0.08 -0.05 0.16zm14.03 3.25l-0.39 1.15 -13.59 -4.56 0.39 -1.15 0.07 -0.19 13.52 4.75zm-13.59 -4.56l0.03 -0.1 0.03 -0.09 -0.07 0.19zm13.91 3.69l-0.39 1.05 -13.46 -4.93 0.39 -1.05 0.09 -0.23 13.37 5.16zm-13.46 -4.93l0.04 -0.12 0.04 -0.11 -0.09 0.23zm13.76 4.21l-0.39 0.95 -13.28 -5.4 0.39 -0.95 0.11 -0.26 13.17 5.66zm-13.28 -5.4l0.05 -0.13 0.06 -0.13 -0.11 0.26zm13.55 4.81l-0.39 0.85 -13.06 -5.92 0.39 -0.85 0.15 -0.32 12.9 6.24zm-13.06 -5.92l0.07 -0.15 0.08 -0.16 -0.15 0.32zm13.29 5.49l-0.39 0.75 -12.75 -6.56 0.39 -0.75 0.21 -0.38 12.54 6.94zm-12.75 -6.56l0.1 -0.2 0.1 -0.18 -0.21 0.38zm12.92 6.29l-0.39 0.65 -12.33 -7.31 0.39 -0.65 0.31 -0.48 12.02 7.79zm-12.33 -7.31l0.14 -0.24 0.17 -0.24 -0.31 0.48zm12.41 7.24l-0.39 0.55 -11.71 -8.27 0.39 -0.55 0.45 -0.58 11.26 8.84zm-11.71 -8.27l0.21 -0.3 0.24 -0.28 -0.45 0.58zm11.64 8.4l-0.39 0.44 -10.8 -9.42 0.39 -0.44 0.65 -0.65 10.16 10.07zm-10.8 -9.42l0.31 -0.35 0.34 -0.3 -0.65 0.65zm10.54 9.73l-0.39 0.34 -9.51 -10.73 0.39 -0.34 0.96 -0.71 8.55 11.44zm-9.51 -10.73l0.45 -0.4 0.51 -0.32 -0.96 0.71zm8.94 11.2l-0.39 0.24 -7.59 -12.16 0.39 -0.24 1.38 -0.67 6.21 12.83zm-7.59 -12.16l0.65 -0.41 0.73 -0.26 -1.38 0.67zm6.59 12.69l-0.39 0.14 -4.83 -13.5 0.39 -0.14 1.73 -0.39 3.09 13.88zm-4.83 -13.5l0.84 -0.3 0.89 -0.08 -1.73 0.39zm3.48 13.85l-0.39 0.04 -1.36 -14.27 0.39 -0.04 1.85 0.06 -0.49 14.21zm-1.36 -14.27l0.93 -0.09 0.92 0.15 -1.85 -0.06zm-0.11 14.27l-0.39 -0.06 2.35 -14.14 0.39 0.06 1.64 0.48 -3.99 13.66zm2.35 -14.14l0.85 0.14 0.79 0.34 -1.64 -0.48zm-3.6 13.83l-0.39 -0.16 5.63 -13.18 0.39 0.16 1.22 0.67 -6.86 12.51zm5.63 -13.18l0.64 0.28 0.58 0.39 -1.22 -0.67zm-6.47 12.78l-0.39 -0.26 8.08 -11.84 0.39 0.26 0.85 0.68 -8.93 11.16zm8.08 -11.84l0.45 0.31 0.4 0.37 -0.85 -0.68zm-8.54 11.52l-0.39 -0.36 9.78 -10.48 0.39 0.36 0.6 0.63 -10.38 9.85zm9.78 -10.48l0.32 0.29 0.28 0.33 -0.6 -0.63zm-10 10.31l-0.39 -0.46 10.98 -9.22 0.39 0.46 0.4 0.52 -11.38 8.7zm10.98 -9.22l0.21 0.25 0.19 0.27 -0.4 -0.52zm-10.99 9.25l-0.39 -0.56 11.77 -8.18 0.39 0.56 0.28 0.43 -12.05 7.75zm11.77 -8.18l0.15 0.22 0.13 0.21 -0.28 -0.43zm-11.67 8.39l-0.39 -0.65 12.33 -7.31 0.39 0.65 0.19 0.35 -12.52 6.96zm12.33 -7.31l0.1 0.17 0.09 0.18 -0.19 -0.35zm-12.14 7.71l-0.39 -0.74 12.72 -6.61 0.39 0.74 0.15 0.3 -12.86 6.32zm12.72 -6.61l0.07 0.14 0.07 0.16 -0.15 -0.3zm-12.48 7.15l-0.39 -0.83 13.01 -6.02 0.39 0.83 0.11 0.25 -13.12 5.76zm13.01 -6.02l0.06 0.12 0.06 0.13 -0.11 -0.25zm-12.74 6.69l-0.39 -0.92 13.23 -5.51 0.39 0.92 0.08 0.19 -13.31 5.32zm13.23 -5.51l0.04 0.1 0.03 0.08 -0.08 -0.19zm-12.92 6.33l-0.39 -1.01 13.38 -5.14 0.39 1.01 0.07 0.19 -13.45 4.94zm13.38 -5.14l0.04 0.1 0.03 0.09 -0.07 -0.19zm-13.07 6.04l-0.39 -1.1 13.53 -4.75 0.39 1.1 0.05 0.15 -13.58 4.6zm13.53 -4.75l0.02 0.07 0.03 0.09 -0.05 -0.15zm-13.19 5.78l-0.39 -1.18 13.63 -4.44 0.39 1.18 0.04 0.13 -13.67 4.32zm13.63 -4.44l0.02 0.06 0.02 0.07 -0.04 -0.13zm-13.28 5.58l-0.39 -1.26 13.71 -4.19 0.39 1.26 0.03 0.12 -13.74 4.07zm13.71 -4.19l0.02 0.06 0.02 0.06 -0.03 -0.12zm-13.36 5.42l-0.39 -1.34 13.78 -3.96 0.39 1.34 0.03 0.1 -13.81 3.85zm13.78 -3.96l0.03 0.1 -0 -0.02 -0.02 -0.09zm-13.42 5.27l-0.39 -1.42 13.84 -3.75 0.39 1.42 0.02 0.08 -13.86 3.67zm13.84 -3.75l0.01 0.03 0.01 0.05 -0.02 -0.08zm-13.47 5.16l-0.39 -1.49 13.88 -3.59 0.39 1.49 0.02 0.08 -13.9 3.51zm13.88 -3.59l0.01 0.04 0.01 0.04 -0.02 -0.08zm-13.51 5.08l-0.39 -1.57 13.92 -3.43 0.39 1.57 0.02 0.07 -13.94 3.36zm13.92 -3.43l0 0.02 0.01 0.05 -0.02 -0.07zm-13.55 5l-0.39 -1.64 13.95 -3.29 0.39 1.64 0.02 0.07 -13.97 3.23zm13.95 -3.29l0.01 0.04 0.01 0.03 -0.02 -0.07zm-13.58 4.93l-0.39 -1.7 13.98 -3.16 0.39 1.7 0.01 0.05 -13.99 3.11zm13.98 -3.16l0.01 0.05 0 0 -0.01 -0.05zm-13.61 4.88l-0.39 -1.77 14 -3.06 0.39 1.77 0.01 0.05 -14.02 3.01zm14 -3.06l0.01 0.05 -0.02 -0.08 0.01 0.03zm-13.63 4.84l-0.39 -1.83 14.03 -2.96 0.39 1.83 0.01 0.04 -14.04 2.92zm14.03 -2.96l0.01 0.07 -0 -0.02 -0.01 -0.04zm-13.65 4.8l-0.39 -1.89 14.04 -2.87 0.39 1.89 0.01 0.03 -14.05 2.84zm14.04 -2.87l0.01 0.03 -0.02 -0.09 0.01 0.06zm-13.66 4.78l-0.39 -1.94 14.06 -2.8 0.39 1.94 0.01 0.04 -14.07 2.76zm14.06 -2.8l0.01 0.04 0.01 0.03 -0.01 -0.07zm-13.68 4.75l-0.39 -1.99 14.08 -2.72 0.39 1.99 0.01 0.03 -14.08 2.69zm14.08 -2.72l0.01 0.03 -0.01 -0.06 0.01 0.03zm-13.69 4.73l-0.39 -2.05 14.09 -2.66 0.39 2.05 0.01 0.03 -14.09 2.63zm14.09 -2.66l0.01 0.03 0.01 0.04 -0.01 -0.07zm-13.71 4.72l-0.39 -2.09 14.1 -2.6 0.39 2.09 0 0.02 -14.1 2.58zm14.1 -2.6l0 0.02 0 0.01 -0 -0.03zm-13.71 4.71l-0.39 -2.13 14.11 -2.56 0.39 2.13 0 0.03 -14.11 2.53zm14.11 -2.56l0 0.03 -0.02 -0.1 0.01 0.07zm-13.73 4.7l-0.39 -2.18 14.12 -2.5 0.39 2.18 0 0.02 -14.12 2.48zm14.12 -2.5l0 0.02 -0 -0.02 0 0zm-13.73 4.69l-0.39 -2.21 14.12 -2.46 0.39 2.21 0 0.02 -14.12 2.45zm14.12 -2.46l0 0.02 0.04 0.24 -0.05 -0.26zm-13.74 4.69l-0.39 -2.25 14.13 -2.43 0.39 2.25 0 0.02 -14.13 2.41zm14.13 -2.43l0 0.02 -0.03 -0.15 0.02 0.14zm-13.74 4.69l-0.39 -2.28 14.13 -2.4 0.39 2.28 0 0.02 -14.14 2.38zm14.13 -2.4l0 0.02 0 0.03 -0.01 -0.05zm-13.75 4.69l-0.39 -2.31 14.14 -2.36 0.39 2.31 0 0.01 -14.14 2.35zm14.14 -2.36l0 0.01 -0.02 -0.09 0.01 0.08zm-13.75 4.68l-0.39 -2.33 14.14 -2.34 0.39 2.33 0 0.01 -14.14 2.33zm14.14 -2.34l0 0.02 -0 -0.01 -0 -0.01zm-13.76 4.68l-0.39 -2.35 14.15 -2.32 0.39 2.35 0 0.01 -14.15 2.31zm14.15 -2.32l0 0.03 -0 -0.02 -0 -0.01zm-13.76 4.68l-0.39 -2.37 14.15 -2.3 0.39 2.37 0 0 -14.15 2.3zm0.39 2.38l-0.39 -2.39 14.15 -2.3 0.39 2.39 0 0.01 -14.15 2.29zm14.15 -2.3l0 0.01 0.04 0.26 -0.04 -0.27zm-13.77 4.68l-0.39 -2.4 14.15 -2.27 0.39 2.4 0 0 -14.15 2.27zm0.39 2.4l-0.39 -2.41 14.15 -2.27 0.39 2.41 0 0 -14.15 2.27zm0.39 2.41l-0.39 -2.41 14.16 -2.26 0.39 2.41 -14.16 2.27 0 -0zm0.39 2.42l-0.39 -2.41 14.16 -2.27 0.39 2.41 0 0 -14.16 2.26zm0.38 2.41l-0.39 -2.41 14.16 -2.26 0.39 2.41 -14.16 2.26 -0 -0zm0.39 2.41l-0.39 -2.41 14.16 -2.27 0.39 2.41 -14.15 2.27 -0 -0zm0.39 2.41l-0.39 -2.4 14.15 -2.27 0.39 2.4 -14.15 2.28 -0 -0zm0.39 2.4l-0.39 -2.39 14.15 -2.28 0.39 2.39 -14.15 2.29 0 -0zm0.39 2.38l-0.39 -2.38 14.15 -2.29 0.39 2.38 -14.15 2.3 -0 -0.01zm0 0.01l-0 -0.01 -0.04 -0.25 0.04 0.25zm0.39 2.37l-0.39 -2.37 14.15 -2.3 0.39 2.37 -14.15 2.31 -0 -0.01zm0 0.01l-0 -0.01 -0 -0.02 0 0.03zm0.39 2.35l-0.39 -2.35 14.15 -2.32 0.39 2.35 -14.14 2.33 -0 -0.01zm0 0.01l-0 -0.01 -0.04 -0.23 0.04 0.24zm0.39 2.33l-0.39 -2.33 14.14 -2.35 0.39 2.33 -14.14 2.36 -0 -0.01zm0 0.01l-0 -0.01 0.04 0.25 -0.04 -0.23zm0.39 2.31l-0.39 -2.31 14.14 -2.37 0.39 2.31 -14.14 2.38 -0 -0.01zm0 0.01l-0 -0.01 -0.04 -0.21 0.04 0.22zm0.39 2.28l-0.39 -2.28 14.13 -2.39 0.39 2.28 -14.13 2.4 -0 -0.02zm0 0.02l-0 -0.02 0.03 0.19 -0.03 -0.17zm0.39 2.25l-0.39 -2.25 14.13 -2.42 0.39 2.25 -14.13 2.44 -0 -0.02zm0 0.02l-0 -0.02 0 -0 0 0.02zm0.39 2.22l-0.39 -2.22 14.12 -2.46 0.39 2.22 -14.12 2.47 -0 -0.02zm0 0.02l-0 -0.02 -0.03 -0.16 0.03 0.18zm0.39 2.19l-0.39 -2.19 14.12 -2.49 0.39 2.19 -14.11 2.51 -0 -0.02zm0 0.02l-0 -0.02 -0 -0.02 0.01 0.04zm0.39 2.15l-0.39 -2.15 14.11 -2.52 0.39 2.15 -14.11 2.55 -0 -0.02zm0 0.02l-0 -0.02 0.03 0.15 -0.02 -0.12zm0.39 2.11l-0.39 -2.11 14.1 -2.57 0.39 2.11 -14.1 2.6 -0.01 -0.03zm0.01 0.03l-0.01 -0.05 0 0.02 0.01 0.03zm0.39 2.07l-0.39 -2.07 14.09 -2.63 0.39 2.07 -14.09 2.65 -0 -0.02zm0 0.02l-0 -0.02 -0.02 -0.12 0.03 0.14zm0.39 2.03l-0.39 -2.03 14.08 -2.67 0.39 2.03 -14.08 2.7 -0 -0.03zm0 0.03l-0 -0.03 0.03 0.16 -0.02 -0.13zm0.39 1.99l-0.39 -1.99 14.07 -2.73 0.39 1.99 -14.07 2.76 -0.01 -0.03zm0.01 0.03l-0.01 -0.03 -0.02 -0.1 0.03 0.14zm0.39 1.94l-0.39 -1.94 14.06 -2.8 0.39 1.94 -14.05 2.83 -0.01 -0.03zm0.01 0.03l-0.01 -0.03 0.01 0.06 -0 -0.02zm0.39 1.89l-0.39 -1.89 14.05 -2.86 0.39 1.89 -14.04 2.9 -0.01 -0.04zm0.01 0.04l-0.01 -0.04 0.02 0.09 -0.01 -0.05zm0.39 1.84l-0.39 -1.84 14.03 -2.94 0.39 1.84 -14.02 2.98 -0.01 -0.04zm0.01 0.04l-0.01 -0.04 -0.01 -0.03 0.01 0.07zm0.39 1.79l-0.39 -1.79 14.01 -3.02 0.39 1.79 -14 3.06 -0.01 -0.04zm0.01 0.04l-0.01 -0.04 0.01 0.03 0 0.01zm0.39 1.74l-0.39 -1.74 14 -3.1 0.39 1.74 -13.98 3.15 -0.01 -0.05zm0.01 0.05l-0.01 -0.05 -0 -0.01 0.01 0.06zm0.39 1.68l-0.39 -1.68 13.97 -3.2 0.39 1.68 -13.96 3.25 -0.01 -0.05zm0.01 0.05l-0.01 -0.05 0 0.01 0.01 0.04zm0.39 1.63l-0.39 -1.63 13.95 -3.31 0.39 1.63 -13.93 3.36 -0.01 -0.05zm0.01 0.05l-0.01 -0.05 0 0.02 0.01 0.03zm0.39 1.57l-0.39 -1.57 13.92 -3.41 0.39 1.57 -13.91 3.47 -0.01 -0.06zm0.01 0.06l0 0.01 -0.02 -0.07 0.01 0.06zm0.39 1.51l-0.39 -1.51 13.89 -3.53 0.39 1.51 -13.87 3.6 -0.02 -0.07zm0.02 0.07l-0.01 -0.05 -0.01 -0.02 0.02 0.07zm0.39 1.46l-0.39 -1.46 13.86 -3.67 0.39 1.46 -13.83 3.75 -0.02 -0.08zm0.02 0.08l-0 -0.01 -0.02 -0.07 0.02 0.08zm0.39 1.4l-0.39 -1.4 13.81 -3.84 0.39 1.4 -13.79 3.91 -0.02 -0.07zm0.02 0.07l-0.02 -0.07 -0 -0.01 0.02 0.08zm0.39 1.33l-0.39 -1.33 13.77 -3.98 0.39 1.33 -13.74 4.07 -0.02 -0.08zm0.02 0.08l-0.01 -0.04 -0.01 -0.05 0.02 0.08zm0.39 1.27l-0.39 -1.27 13.72 -4.15 0.39 1.27 -13.69 4.26 -0.03 -0.1zm0.03 0.1l-0.01 -0.02 -0.03 -0.09 0.03 0.1zm0.39 1.21l-0.39 -1.21 13.66 -4.36 0.39 1.21 -13.62 4.47 -0.04 -0.11zm0.04 0.11l-0.02 -0.06 -0.02 -0.05 0.04 0.11zm0.39 1.15l-0.39 -1.15 13.58 -4.58 0.39 1.15 -13.54 4.7 -0.04 -0.12zm0.04 0.12l-0.02 -0.06 -0.02 -0.06 0.04 0.12zm0.39 1.08l-0.39 -1.08 13.5 -4.82 0.39 1.08 -13.45 4.95 -0.05 -0.14zm0.05 0.14l-0.03 -0.08 -0.02 -0.05 0.05 0.14zm0.39 1.02l-0.39 -1.02 13.4 -5.09 0.39 1.02 -13.35 5.23 -0.05 -0.14zm0.05 0.14l-0.02 -0.06 -0.03 -0.08 0.05 0.14zm0.39 0.95l-0.39 -0.95 13.29 -5.36 0.39 0.95 -13.22 5.54 -0.08 -0.18zm0.08 0.18l-0.05 -0.12 -0.03 -0.06 0.08 0.18zm0.39 0.89l-0.39 -0.89 13.14 -5.72 0.39 0.89 -13.06 5.9 -0.08 -0.18zm0.08 0.18l-0.03 -0.07 -0.05 -0.11 0.08 0.18zm0.39 0.82l-0.39 -0.82 12.98 -6.08 0.39 0.82 -12.88 6.29 -0.1 -0.21zm0.1 0.21l-0.05 -0.1 -0.05 -0.1 0.1 0.21zm0.39 0.76l-0.39 -0.76 12.78 -6.5 0.39 0.76 -12.66 6.73 -0.12 -0.23zm0.12 0.23l-0.06 -0.11 -0.06 -0.12 0.12 0.23zm0.39 0.69l-0.39 -0.69 12.54 -6.95 0.39 0.69 -12.38 7.22 -0.16 -0.27zm0.16 0.27l-0.08 -0.13 -0.08 -0.14 0.16 0.27zm0.39 0.63l-0.39 -0.63 12.22 -7.49 0.39 0.63 -12.02 7.8 -0.2 -0.31zm0.2 0.31l-0.11 -0.16 -0.1 -0.16 0.2 0.31zm0.39 0.56l-0.39 -0.56 11.82 -8.11 0.39 0.56 -11.59 8.43 -0.23 -0.32zm0.23 0.32l-0.12 -0.15 -0.11 -0.16 0.23 0.32zm0.39 0.5l-0.39 -0.5 11.36 -8.75 0.39 0.5 -11.06 9.11 -0.3 -0.37zm0.3 0.37l-0.16 -0.18 -0.14 -0.19 0.3 0.37zm0.39 0.44l-0.39 -0.44 10.76 -9.48 0.39 0.44 -10.35 9.9 -0.4 -0.42zm0.4 0.42l-0.21 -0.2 -0.19 -0.22 0.4 0.42zm0.39 0.37l-0.39 -0.37 9.95 -10.32 0.39 0.37 -9.48 10.73 -0.47 -0.42zm0.47 0.42l-0.24 -0.2 -0.23 -0.22 0.47 0.42zm0.39 0.31l-0.39 -0.31 9.01 -11.15 0.39 0.31 -8.4 11.59 -0.61 -0.44zm0.61 0.44l-0.31 -0.2 -0.29 -0.24 0.61 0.44zm0.39 0.25l-0.39 -0.25 7.79 -12.03 0.39 0.25 -7.03 12.46 -0.76 -0.43zm0.76 0.43l-0.39 -0.19 -0.37 -0.24 0.76 0.43zm0.39 0.19l-0.39 -0.19 6.27 -12.89 0.39 0.19 -5.38 13.25 -0.89 -0.36zm0.89 0.36l-0.45 -0.15 -0.43 -0.21 0.89 0.36zm0.39 0.13l-0.39 -0.13 4.5 -13.61 0.39 0.13 -3.51 13.86 -0.99 -0.25zm0.99 0.25l-0.5 -0.09 -0.49 -0.16 0.99 0.25zm0.39 0.07l-0.39 -0.07 2.52 -14.11 0.39 0.07 -1.42 14.22 -1.1 -0.11zm1.1 0.11l-0.55 -0.01 -0.54 -0.1 1.1 0.11zm0.39 0.01l-0.39 -0.01 0.33 -14.33 0.39 0.01 0.72 14.28 -1.05 0.05zm1.05 -0.05l-0.52 0.06 -0.53 -0.01 1.05 -0.05zm0.39 -0.05l-0.39 0.05 -1.77 -14.23 0.39 -0.05 2.76 14.03 -0.98 0.19zm0.98 -0.19l-0.49 0.13 -0.5 0.06 0.98 -0.19zm0.39 -0.1l-0.39 0.1 -3.74 -13.84 0.39 -0.1 4.6 13.55 -0.86 0.29zm0.86 -0.29l-0.42 0.17 -0.44 0.12 0.86 -0.29zm0.39 -0.16l-0.39 0.16 -5.46 -13.25 0.39 -0.16 6.19 12.91 -0.72 0.35zm0.72 -0.35l-0.35 0.19 -0.38 0.15 0.72 -0.35zm22.87 -90.84l1.39 14.27 0.65 -0.09 1.04 -0.36 0.33 -0.22 -0.21 0.25 -0.51 0.76 -0.67 1.22 -0.74 1.62 -0.77 1.96 -0.79 2.26 -0.79 2.51 -0.79 2.73 -0.78 2.91 -0.77 3.07 -0.77 3.19 -0.76 3.29 -0.76 3.37 -0.75 3.42 -0.75 3.44 -0.75 3.44 -0.75 3.42 -0.76 3.37 -0.77 3.3 -0.78 3.21 -0.79 3.1 -0.81 2.97 -0.84 2.83 -0.87 2.67 -0.93 2.51 -1 2.34 -1.12 2.2 -1.33 2.09 -1.73 2 -2.43 1.81 -6.91 -12.56 -0.57 0.4 0.08 -0.11 0.43 -0.68 0.59 -1.17 0.67 -1.58 0.71 -1.93 0.73 -2.23 0.74 -2.49 0.74 -2.71 0.74 -2.9 0.74 -3.06 0.74 -3.19 0.74 -3.29 0.74 -3.37 0.75 -3.42 0.75 -3.45 0.76 -3.46 0.77 -3.44 0.79 -3.4 0.8 -3.34 0.82 -3.25 0.84 -3.15 0.87 -3.02 0.91 -2.88 0.96 -2.73 1.02 -2.57 1.1 -2.41 1.24 -2.26 1.45 -2.13 1.82 -2 2.43 -1.77 3.21 -1.17 0.65 -0.09zm-0.65 0.09l0.33 -0.06 0.33 -0.03 -0.65 0.09zm2.43 14.14l-0.39 0.04 -1.39 -14.27 0.39 -0.04 0.67 -0.03 0.73 14.3zm-1.39 -14.27l0.33 -0.03 0.34 -0 -0.67 0.03zm1.11 14.3l-0.39 0 -0.06 -14.33 0.39 -0 0.69 0.03 -0.63 14.3zm-0.06 -14.33l0.34 -0 0.35 0.03 -0.69 -0.03zm34.47 77.26l-8.67 11.42 -0.2 -0.16 -1.92 -1.85 -1.59 -2.02 -1.37 -2.16 -1.24 -2.31 -1.15 -2.46 -1.09 -2.61 -1.04 -2.76 -1 -2.89 -0.97 -3 -0.95 -3.11 -0.93 -3.19 -0.91 -3.25 -0.9 -3.3 -0.89 -3.32 -0.88 -3.33 -0.87 -3.31 -0.86 -3.27 -0.86 -3.2 -0.86 -3.12 -0.85 -3.01 -0.85 -2.87 -0.85 -2.71 -0.84 -2.53 -0.83 -2.3 -0.82 -2.05 -0.79 -1.76 -0.73 -1.42 -0.63 -1.03 -0.43 -0.58 -0.07 -0.09 0.53 0.3 1.22 0.31 1.31 -14.27 3.3 0.87 2.56 1.57 1.91 1.84 1.52 1.97 1.29 2.1 1.15 2.23 1.07 2.38 1.01 2.54 0.97 2.68 0.94 2.82 0.92 2.95 0.9 3.05 0.89 3.15 0.88 3.22 0.88 3.27 0.87 3.3 0.87 3.31 0.87 3.3 0.87 3.27 0.88 3.21 0.88 3.13 0.88 3.03 0.89 2.9 0.89 2.75 0.89 2.57 0.89 2.36 0.88 2.11 0.85 1.83 0.81 1.51 0.72 1.14 0.56 0.72 0.28 0.29 -0.2 -0.16zm-8.67 11.42l-0.11 -0.08 -0.1 -0.08 0.2 0.16zm0.39 0.29l-0.39 -0.29 8.67 -11.42 0.39 0.29 -8.42 11.6 -0.25 -0.18zm0.25 0.18l-0.12 -0.08 -0.13 -0.1 0.25 0.18zm0.39 0.27l-0.39 -0.27 8.16 -11.78 0.39 0.27 -7.92 11.95 -0.25 -0.16zm0.25 0.16l-0.13 -0.08 -0.12 -0.08 0.25 0.16zm0.39 0.24l-0.39 -0.24 7.67 -12.11 0.39 0.24 -7.4 12.27 -0.27 -0.16zm0.27 0.16l-0.15 -0.08 -0.12 -0.08 0.27 0.16zm0.39 0.22l-0.39 -0.22 7.13 -12.43 0.39 0.22 -6.82 12.6 -0.31 -0.17zm0.31 0.17l-0.14 -0.07 -0.16 -0.09 0.31 0.17zm0.39 0.2l-0.39 -0.2 6.52 -12.77 0.39 0.2 -6.2 12.92 -0.32 -0.15zm0.32 0.15l-0.16 -0.07 -0.16 -0.08 0.32 0.15zm0.39 0.17l-0.39 -0.17 5.88 -13.08 0.39 0.17 -5.57 13.2 -0.3 -0.13zm0.3 0.13l-0.15 -0.06 -0.15 -0.07 0.3 0.13zm0.39 0.15l-0.39 -0.15 5.27 -13.33 0.39 0.15 -4.89 13.47 -0.38 -0.14zm0.38 0.14l-0.2 -0.07 -0.18 -0.07 0.38 0.14zm0.39 0.13l-0.39 -0.13 4.52 -13.6 0.39 0.13 -4.16 13.71 -0.36 -0.11zm0.36 0.11l-0.18 -0.05 -0.18 -0.06 0.36 0.11zm0.39 0.11l-0.39 -0.11 3.79 -13.82 0.39 0.11 -3.41 13.92 -0.39 -0.09zm0.39 0.09l-0.19 -0.04 -0.19 -0.05 0.39 0.09zm0.39 0.08l-0.39 -0.08 3.02 -14.01 0.39 0.08 -2.63 14.09 -0.4 -0.07zm0.4 0.07l-0.2 -0.03 -0.19 -0.04 0.4 0.07zm0.39 0.06l-0.39 -0.06 2.23 -14.16 0.39 0.06 -1.84 14.21 -0.39 -0.05zm0.39 0.05l-0.19 -0.02 -0.2 -0.03 0.39 0.05zm0.39 0.04l-0.39 -0.04 1.45 -14.26 0.39 0.04 -1.04 14.29 -0.41 -0.03zm0.41 0.03l-0.21 -0.01 -0.2 -0.02 0.41 0.03zm0.39 0.02l-0.39 -0.02 0.62 -14.32 0.39 0.02 -0.27 14.33 -0.36 -0.01zm0.36 0.01l-0.18 0 -0.17 -0.01 0.36 0.01zm0.39 -0l-0.39 0 -0.09 -14.33 0.39 -0 0.52 14.32 -0.43 0.02zm0.43 -0.02l-0.21 0.01 -0.22 0 0.43 -0.02zm0.39 -0.03l-0.39 0.03 -0.95 -14.3 0.39 -0.03 1.27 14.28 -0.32 0.03zm0.32 -0.03l-0.16 0.02 -0.16 0.01 0.32 -0.03zm0.39 -0.04l-0.39 0.04 -1.59 -14.25 0.39 -0.04 1.99 14.19 -0.39 0.06zm0.39 -0.06l-0.2 0.03 -0.2 0.02 0.39 -0.06zm0.39 -0.06l-0.39 0.06 -2.38 -14.14 0.39 -0.06 2.7 14.07 -0.32 0.06zm0.32 -0.06l-0.16 0.03 -0.16 0.03 0.32 -0.06zm25.31 -36.4l0.38 14.33 0.22 -0.01 -0.31 0.03 -0.31 0.07 -0.35 0.11 -0.39 0.17 -0.44 0.23 -0.49 0.31 -0.54 0.39 -0.58 0.47 -0.61 0.55 -0.64 0.62 -0.67 0.69 -0.69 0.75 -0.7 0.81 -0.72 0.86 -0.73 0.9 -0.75 0.93 -0.76 0.96 -0.78 0.98 -0.79 1 -0.82 1.01 -0.84 1.01 -0.87 1.01 -0.9 1 -0.95 0.99 -1 0.97 -1.06 0.94 -1.13 0.91 -1.22 0.86 -1.31 0.79 -1.42 0.71 -1.53 0.59 -1.63 0.45 -3.02 -14.01 0.16 -0.04 0.22 -0.09 0.3 -0.15 0.37 -0.23 0.44 -0.31 0.5 -0.41 0.55 -0.49 0.59 -0.58 0.63 -0.65 0.65 -0.73 0.68 -0.79 0.7 -0.84 0.72 -0.89 0.74 -0.94 0.76 -0.97 0.79 -0.99 0.81 -1.02 0.84 -1.03 0.87 -1.04 0.9 -1.04 0.94 -1.03 0.98 -1.02 1.04 -1 1.1 -0.97 1.17 -0.94 1.25 -0.89 1.34 -0.83 1.43 -0.75 1.53 -0.65 1.63 -0.52 1.72 -0.37 1.78 -0.2 0.22 -0.01zm-0.22 0.01l0.12 -0.01 0.11 -0 -0.22 0.01zm0.99 14.31l-0.39 0.01 -0.38 -14.33 0.39 -0.01 0.27 -0 0.12 14.33zm-0.38 -14.33l0.14 -0 0.13 0 -0.27 0zm0.5 14.34l-0.39 -0 0.15 -14.33 0.39 0 0.25 0.01 -0.4 14.33zm0.15 -14.33l0.12 0 0.13 0.01 -0.25 -0.01zm-0.02 14.34l-0.39 -0.02 0.65 -14.32 0.39 0.02 0.24 0.02 -0.89 14.3zm0.65 -14.32l0.11 0 0.13 0.01 -0.24 -0.02zm-0.51 14.34l-0.39 -0.03 1.13 -14.29 0.39 0.03 0.23 0.02 -1.36 14.27zm1.13 -14.29l0.13 0.01 0.1 0.01 -0.23 -0.02zm-0.97 14.31l-0.39 -0.04 1.59 -14.25 0.39 0.04 0.25 0.03 -1.84 14.21zm1.59 -14.25l0.13 0.01 0.12 0.02 -0.25 -0.03zm-1.46 14.27l-0.39 -0.06 2.09 -14.18 0.39 0.06 0.22 0.04 -2.3 14.15zm2.09 -14.18l0.1 0.02 0.11 0.02 -0.22 -0.04zm31.02 22.05l-1.6 14.25 -0.15 -0.02 -1.79 -0.31 -1.73 -0.44 -1.65 -0.55 -1.57 -0.65 -1.5 -0.74 -1.42 -0.81 -1.34 -0.87 -1.27 -0.91 -1.21 -0.95 -1.15 -0.97 -1.09 -0.99 -1.05 -1 -1 -1 -0.97 -1 -0.93 -0.99 -0.91 -0.97 -0.88 -0.95 -0.85 -0.92 -0.83 -0.89 -0.81 -0.84 -0.79 -0.79 -0.76 -0.74 -0.74 -0.68 -0.72 -0.62 -0.69 -0.55 -0.66 -0.48 -0.63 -0.41 -0.59 -0.34 -0.55 -0.27 -0.52 -0.21 -0.5 -0.16 -0.49 -0.11 2.52 -14.11 1.68 0.38 1.61 0.51 1.53 0.61 1.45 0.71 1.36 0.78 1.28 0.84 1.22 0.89 1.15 0.92 1.09 0.95 1.05 0.96 1 0.97 0.97 0.98 0.94 0.98 0.91 0.97 0.89 0.96 0.87 0.94 0.85 0.91 0.84 0.88 0.82 0.85 0.81 0.81 0.79 0.76 0.78 0.71 0.77 0.65 0.75 0.59 0.74 0.53 0.72 0.47 0.7 0.4 0.69 0.34 0.67 0.28 0.67 0.23 0.67 0.17 0.69 0.12 -0.15 -0.02zm-1.6 14.25l-0.06 -0.01 -0.1 -0.01 0.15 0.02zm0.39 0.04l-0.39 -0.04 1.6 -14.25 0.39 0.04 -1.46 14.26 -0.13 -0.01zm0.13 0.01l-0.11 -0.01 -0.03 -0 0.13 0.01zm0.39 0.04l-0.39 -0.04 1.33 -14.27 0.39 0.04 -1.18 14.28 -0.15 -0.01zm0.15 0.01l-0.05 -0 -0.1 -0.01 0.15 0.01zm0.39 0.03l-0.39 -0.03 1.04 -14.3 0.39 0.03 -0.88 14.31 -0.16 -0.01zm0.16 0.01l-0.09 -0 -0.07 -0 0.16 0.01zm0.39 0.02l-0.39 -0.02 0.71 -14.32 0.39 0.02 -0.56 14.32 -0.15 -0.01zm0.15 0.01l-0.09 -0 -0.06 -0 0.15 0.01zm30.92 -22.99l-0.45 14.33 0.07 0 -0.64 0 -0.65 0.04 -0.67 0.07 -0.68 0.1 -0.71 0.14 -0.73 0.17 -0.75 0.2 -0.77 0.23 -0.79 0.26 -0.81 0.29 -0.83 0.32 -0.85 0.34 -0.87 0.36 -0.89 0.38 -0.91 0.4 -0.92 0.41 -0.94 0.42 -0.96 0.43 -0.98 0.43 -1 0.43 -1.02 0.42 -1.05 0.41 -1.08 0.4 -1.1 0.38 -1.13 0.35 -1.16 0.32 -1.19 0.29 -1.23 0.25 -1.26 0.2 -1.29 0.14 -1.32 0.07 -1.35 -0 0.41 -14.33 0.54 -0 0.56 -0.03 0.58 -0.06 0.61 -0.1 0.64 -0.13 0.67 -0.16 0.7 -0.2 0.73 -0.23 0.76 -0.26 0.78 -0.29 0.81 -0.32 0.84 -0.34 0.86 -0.37 0.89 -0.39 0.91 -0.4 0.93 -0.41 0.96 -0.43 0.98 -0.43 1 -0.43 1.03 -0.43 1.05 -0.42 1.08 -0.42 1.11 -0.4 1.14 -0.38 1.17 -0.35 1.2 -0.32 1.23 -0.29 1.27 -0.25 1.31 -0.2 1.33 -0.14 1.36 -0.08 1.39 -0.01 0.07 0zm-0.07 -0l0.07 0 -0.01 0 -0.07 -0zm0.01 14.34l-0.39 -0.01 0.45 -14.33 0.39 0.01 0.1 0 -0.55 14.32zm0.45 -14.33l0.05 0 0.05 0 -0.1 -0zm-0.16 14.34l-0.39 -0.02 0.65 -14.32 0.39 0.02 0.09 0 -0.74 14.32zm0.65 -14.32l0.03 0 0.06 0 -0.09 -0zm-0.36 14.34l-0.39 -0.02 0.83 -14.31 0.39 0.02 0.07 0 -0.9 14.31zm0.83 -14.31l0.01 0 0.07 0 -0.07 -0zm-0.52 14.33l-0.39 -0.03 0.97 -14.3 0.39 0.03 0.09 0.01 -1.07 14.29zm0.97 -14.3l0.07 0 0.02 0 -0.09 -0.01zm-0.68 14.33l-0.39 -0.03 1.16 -14.29 0.39 0.03 0.09 0.01 -1.24 14.28zm1.16 -14.29l0.02 0 0.07 0.01 -0.09 -0.01zm-0.86 14.32l-0.39 -0.04 1.33 -14.27 0.39 0.04 0.08 0.01 -1.41 14.26zm1.33 -14.27l0.08 0.01 -0.02 -0 -0.06 -0.01zm-1.02 14.3l-0.39 -0.04 1.48 -14.26 0.39 0.04 0.08 0.01 -1.57 14.25zm1.48 -14.26l0.07 0.01 0.01 0 -0.08 -0.01zm34.31 8.36l0.92 14.31 -0.05 0 -1.55 0.06 -1.52 0 -1.49 -0.05 -1.46 -0.1 -1.42 -0.15 -1.39 -0.19 -1.36 -0.23 -1.32 -0.26 -1.3 -0.29 -1.26 -0.32 -1.23 -0.34 -1.2 -0.36 -1.17 -0.37 -1.15 -0.38 -1.12 -0.39 -1.09 -0.39 -1.07 -0.39 -1.05 -0.39 -1.03 -0.38 -1.02 -0.38 -1 -0.37 -0.99 -0.35 -0.98 -0.34 -0.97 -0.32 -0.96 -0.3 -0.95 -0.28 -0.95 -0.26 -0.95 -0.23 -0.95 -0.21 -0.95 -0.18 -0.95 -0.16 -0.97 -0.13 1.65 -14.24 1.41 0.19 1.38 0.22 1.34 0.26 1.31 0.29 1.28 0.32 1.25 0.34 1.22 0.36 1.19 0.37 1.16 0.38 1.13 0.39 1.1 0.39 1.08 0.39 1.06 0.39 1.04 0.39 1.02 0.38 1 0.37 0.99 0.35 0.97 0.34 0.96 0.32 0.95 0.3 0.94 0.28 0.94 0.26 0.93 0.24 0.93 0.21 0.93 0.18 0.93 0.16 0.94 0.13 0.95 0.1 0.96 0.07 0.98 0.03 1 -0 1.03 -0.04 -0.05 0zm0.92 14.31l-0.05 0 0.09 -0.01 -0.04 0zm0.39 -0.02l-0.39 0.02 -0.92 -14.31 0.39 -0.02 0.95 14.3 -0.03 0zm0.03 -0l-0.03 0 -0.07 0 0.1 -0.01zm0.39 -0.03l-0.39 0.03 -0.98 -14.3 0.39 -0.03 1.02 14.3 -0.04 0zm0.04 -0l-0.02 0 -0.02 0 0.04 -0zm0.39 -0.03l-0.39 0.03 -1.07 -14.29 0.39 -0.03 1.1 14.29 -0.03 0zm0.03 -0l-0.03 0 0.17 -0.01 -0.14 0.01zm0.39 -0.03l-0.39 0.03 -1.13 -14.29 0.39 -0.03 1.14 14.29 -0.01 0zm0.01 -0l-0.01 0 -0.26 0.02 0.28 -0.02zm0.39 -0.03l-0.39 0.03 -1.15 -14.29 0.39 -0.03 1.21 14.28 -0.06 0zm0.06 -0l-0.06 0 0.07 -0.01 -0.01 0zm0.39 -0.03l-0.39 0.03 -1.27 -14.28 0.39 -0.03 1.27 14.28zm-1.27 -14.28c3.94,-0.35 7.42,2.56 7.78,6.5 0.35,3.94 -2.56,7.42 -6.5,7.78l-1.27 -14.28z"/>
    </g>
   </g>
  </g>
 </g>
</svg>
